<?xml version="1.0" encoding="utf-8"?>
<!-- Generator: Adobe Illustrator 23.1.1, SVG Export Plug-In . SVG Version: 6.00 Build 0)  -->
<svg version="1.1" id="Layer_1" xmlns="http://www.w3.org/2000/svg" xmlns:xlink="http://www.w3.org/1999/xlink" x="0px" y="0px"
	 viewBox="0 0 1841.3 628.2" style="enable-background:new 0 0 1841.3 628.2;" xml:space="preserve">
<style type="text/css">
	.st0{fill:#4FC8EC;}
	.st1{fill-rule:evenodd;clip-rule:evenodd;fill:#82D3EB;}
	.st2{fill-rule:evenodd;clip-rule:evenodd;fill:#6BBAC6;}
	.st3{fill-rule:evenodd;clip-rule:evenodd;fill:#F15D4E;}
	.st4{fill:#6D4D41;}
	.st5{fill:#CD5749;}
	.st6{fill-rule:evenodd;clip-rule:evenodd;fill:#6D4D41;}
	.st7{fill-rule:evenodd;clip-rule:evenodd;fill:#CD5749;}
	.st8{fill-rule:evenodd;clip-rule:evenodd;fill:#B15548;}
	.st9{fill:none;stroke:#6D4D41;stroke-width:3;stroke-miterlimit:10;}
	.st10{fill:#F5F6F6;}
	.st11{fill-rule:evenodd;clip-rule:evenodd;fill:#A7938D;}
	.st12{opacity:0.61;}
	.st13{fill:#9F8B84;}
	.st14{fill-rule:evenodd;clip-rule:evenodd;fill:#F58D83;}
	.st15{fill:#F58D83;}
	.st16{fill-rule:evenodd;clip-rule:evenodd;fill:#3EB3CD;}
	.st17{fill:#F47C6D;}
	.st18{fill-rule:evenodd;clip-rule:evenodd;fill:#F8AFA7;}
	.st19{fill-rule:evenodd;clip-rule:evenodd;fill:#D19286;}
	.st20{fill-rule:evenodd;clip-rule:evenodd;fill:#BDB3B1;}
	.st21{fill:#6E4E42;}
	.st22{fill-rule:evenodd;clip-rule:evenodd;fill:#E0E1E0;}
	.st23{fill-rule:evenodd;clip-rule:evenodd;fill:#919090;}
	.st24{fill-rule:evenodd;clip-rule:evenodd;fill:#806D68;}
	.st25{fill-rule:evenodd;clip-rule:evenodd;fill:#ECECEC;}
	.st26{fill-rule:evenodd;clip-rule:evenodd;fill:#D36F60;}
	.st27{fill-rule:evenodd;clip-rule:evenodd;fill:#6E4E42;}
	.st28{fill-rule:evenodd;clip-rule:evenodd;fill:#C8C8C8;}
	.st29{fill-rule:evenodd;clip-rule:evenodd;fill:#78625A;}
	.st30{fill-rule:evenodd;clip-rule:evenodd;fill:#BCBCBC;}
	.st31{fill-rule:evenodd;clip-rule:evenodd;fill:#717272;}
	.st32{fill-rule:evenodd;clip-rule:evenodd;fill:#EFB0AB;}
	.st33{fill-rule:evenodd;clip-rule:evenodd;fill:#D63F29;}
	.st34{opacity:0.54;}
	.st35{fill-rule:evenodd;clip-rule:evenodd;fill:#7D6158;}
	.st36{fill-rule:evenodd;clip-rule:evenodd;fill:#ABABAA;}
	.st37{fill-rule:evenodd;clip-rule:evenodd;fill:#F15F4F;}
	.st38{opacity:0.42;}
	.st39{fill-rule:evenodd;clip-rule:evenodd;fill:#CFCAC8;}
	.st40{fill-rule:evenodd;clip-rule:evenodd;fill:#98847D;}
	.st41{fill:#FCDFB6;}
	.st42{fill-rule:evenodd;clip-rule:evenodd;fill:#FFEDD5;}
	.st43{fill-rule:evenodd;clip-rule:evenodd;fill:#C4A589;}
	.st44{fill:#CE584A;}
	.st45{fill-rule:evenodd;clip-rule:evenodd;fill:#CE584A;}
	.st46{fill:none;stroke:#6E4E42;stroke-width:3;stroke-miterlimit:10;}
	.st47{fill-rule:evenodd;clip-rule:evenodd;fill:#F58E84;}
	.st48{fill-rule:evenodd;clip-rule:evenodd;fill:#B25649;}
	.st49{fill:#6D4E43;}
	.st50{fill-rule:evenodd;clip-rule:evenodd;fill:#FBDF8A;}
	.st51{fill-rule:evenodd;clip-rule:evenodd;fill:#D9BB77;}
	.st52{fill-rule:evenodd;clip-rule:evenodd;fill:#B79867;}
	.st53{fill-rule:evenodd;clip-rule:evenodd;fill:#6D4E43;}
	.st54{fill-rule:evenodd;clip-rule:evenodd;fill:#FBE7AC;}
</style>
<g>
	<g>
		<circle class="st0" cx="323.6" cy="312.7" r="283.6"/>
	</g>
	<g>
		<circle class="st1" cx="322.6" cy="227.9" r="155.1"/>
	</g>
	<g id="XMLID_1_">
		<path class="st2" d="M251.3,256.9l21.1,5.5c0,0,10.1-36.4,35.8-27.1c25.7,9.3,45.9-7.2,45.9-7.2c7.6,29.5-33.3,44.4-75.8,76.5
			c-14.5,10.9-18.7,43-19.9,61.2c-0.5,7.9,18.2,9.1,18.2,9.1l81.1-1.9c0,0,23.2-1.5,30.9-5.2c11.3-5.5,25.1-16,25.1-16
			s-3-14.4-3.2-22.3c-0.5-26,21.3-65.7,18.8-123.3c-2.5-57.6-69.4-73.7-69.4-73.7c14.1-13.8-20.2-38.8-20.2-38.8v41.1
			c-36.8,2.4-51.9,24.7-51.9,24.7l4.9,16.2c0,0-46.2,41.3-57.9,50.5c-11.7,9.2,5.2,34.1,5.2,34.1L251.3,256.9z"/>
	</g>
	<g id="XMLID_7_">
		<path class="st3" d="M235.2,252.9l21.1,5.5c0,0,10.1-36.4,35.8-27.1c25.7,9.3,45.9-7.2,45.9-7.2c7.6,29.5-33.3,44.4-75.8,76.5
			c-20.7,15.6-20.4,74.4-20.4,74.4l164.2-0.1c-0.7-0.9-11-22.5-11.6-49.5c-0.5-26,21.3-65.7,18.8-123.3
			c-2.5-57.6-69.4-73.7-69.4-73.7c14.1-13.8-20.2-38.8-20.2-38.8v41.1c-36.8,2.4-51.9,24.7-51.9,24.7l4.9,16.2
			c0,0-46.2,41.3-57.9,50.5c-11.7,9.2,5.2,34.1,5.2,34.1L235.2,252.9z M413.2,389.2L413.2,389.2c0-2.5-2-4.5-4.5-4.5H241.2
			c-2.5,0-4.5,2-4.5,4.5l0,0c0,2.5,2,4.5,4.5,4.5h167.6C411.2,393.7,413.2,391.7,413.2,389.2z M423.9,435.7l-9.5-28.8
			c0-1.6-1.3-2.8-2.8-2.8H240.7c-1.6,0-2.8,1.3-2.8,2.8l-9.5,28.8c0,1.6,1.3,2.8,2.8,2.8h189.8C422.6,438.5,423.9,437.2,423.9,435.7
			z M378.9,511.4c0,0-31.1-19.4-31.1-32.5c0-13.1,14.5-25.7,14.5-25.7c0-1.6-2.3-5.7-2.7-5.7h-33.5h-33.5c-0.4,0-2.7,4.2-2.7,5.7
			c0,0,14.5,12.6,14.5,25.7c0,13.1-31.1,32.5-31.1,32.5c-2.1,3.5,1.1,5.7,1.5,5.7h51.2h51.2C377.7,517.1,380.9,514.9,378.9,511.4z"
			/>
		<path class="st4" d="M377.3,519H275c-1.3,0-2.7-1.3-3.4-2.6c-1.1-1.9-1-4,0.2-6.1l0.2-0.4l0.4-0.3c8.4-5.2,30.2-21,30.2-30.9
			c0-12.1-13.7-24.1-13.9-24.2l-0.7-0.6l0-0.9c0-1.4,2.2-7.7,4.6-7.7h66.9c2.4,0,4.6,6.3,4.6,7.7v0.9l-0.7,0.6
			c-0.1,0.1-13.9,12.1-13.9,24.2c0,9.9,21.8,25.6,30.2,30.9l0.4,0.3l0.2,0.4c1.2,2,1.3,4.2,0.2,6.1C380,517.7,378.6,519,377.3,519z
			 M275.5,515.2h101.4c0.2-0.2,0.6-0.6,0.7-1.1c0.1-0.4,0.1-0.9-0.2-1.4c-4.8-3.1-31.6-20.6-31.6-33.9c0-12.1,11.1-23.4,14.4-26.4
			c-0.3-0.9-1-2.3-1.5-3.1h-65.1c-0.5,0.8-1.2,2.2-1.5,3.1c3.2,3,14.4,14.3,14.4,26.4c0,13.3-26.7,30.8-31.6,33.9
			c-0.2,0.5-0.3,1-0.2,1.4C274.9,514.6,275.2,515,275.5,515.2z M421.1,440.5H231.2c-2.6,0-4.8-2.1-4.8-4.8v-0.3l9.5-28.9
			c0.2-2.5,2.3-4.4,4.8-4.4h170.9c2.5,0,4.6,2,4.8,4.4l9.5,28.9v0.3C425.9,438.3,423.7,440.5,421.1,440.5z M230.4,435.9
			c0.1,0.4,0.5,0.7,0.9,0.7h189.8c0.4,0,0.8-0.3,0.9-0.7l-9.5-28.7v-0.3c0-0.5-0.4-0.9-0.9-0.9H240.7c-0.5,0-0.9,0.4-0.9,0.9v0.3
			L230.4,435.9z M408.7,395.6H241.2c-3.6,0-6.4-2.9-6.4-6.4s2.9-6.4,6.4-6.4h167.6c3.6,0,6.4,2.9,6.4,6.4S412.3,395.6,408.7,395.6z
			 M241.2,386.6c-1.4,0-2.6,1.1-2.6,2.6c0,1.4,1.1,2.6,2.6,2.6h167.6c1.4,0,2.6-1.1,2.6-2.6c0-1.4-1.1-2.6-2.6-2.6H241.2z
			 M239.8,377l0-1.9c0-2.4,0-60,21.2-76c11-8.3,22.1-15.6,31.9-22.1c26.8-17.7,46.6-30.6,43.8-49.6c-6.3,4.2-23.9,13.5-45.2,5.7
			c-5.7-2.1-10.9-1.9-15.7,0.6c-12.2,6.3-17.5,25-17.5,25.2l-0.5,1.8l-22.5-5.8l-12.3,3.6l-0.8-1.2c-0.7-1.1-17.7-26.5-4.8-36.8
			c10.6-8.4,50.3-43.7,56.9-49.6l-4.8-15.9l0.5-0.8c0.6-0.9,15.6-22.4,51.6-25.4V85.7l3.1,2.3c1,0.7,23.4,17.2,24.4,31.5
			c0.2,2.9-0.4,5.5-1.9,7.8c5.6,1.7,18.4,6.1,31.4,14.7c22.8,15.1,35.5,35.8,36.5,60c1.5,35.3-5.9,63.7-11.9,86.6
			c-3.8,14.4-7,26.8-6.8,36.7c0.5,25.2,9.9,46.2,11.3,48.5l1.8,2.9l-3.4,0.1L239.8,377z M339.2,220.6l0.8,2.9
			c6,23.2-16.5,38-44.9,56.7c-9.7,6.4-20.8,13.7-31.7,21.9c-17.6,13.3-19.5,60.7-19.6,70.9l159.2-0.1c-3.2-7.2-10-25.7-10.4-47.5
			c-0.2-10.5,3.1-23.2,6.9-37.8c5.9-22.6,13.3-50.8,11.8-85.5c-1-23.2-12.7-42.4-34.8-56.9c-16.6-10.9-33-15-33.1-15l-3.4-0.8
			l2.5-2.5c2.1-2,3-4.4,2.8-7.2c-0.7-9.6-13.6-21.3-19.7-26.2v38.9l-1.8,0.1c-18.5,1.2-31.2,7.6-38.6,12.8
			c-6.3,4.4-10,8.7-11.3,10.3l5,16.5l-0.9,0.8c-1.9,1.7-46.4,41.4-58,50.6c-8,6.3,0.2,23,4.8,30.3l10.6-3.1l19.9,5.2
			c1.7-5.2,7.5-19.9,18.9-25.8c5.8-3,12.1-3.2,18.8-0.8c24.3,8.8,43.8-6.7,44-6.9L339.2,220.6z"/>
	</g>
	<g>
		<path class="st5" d="M361.4,136.2c0,0-1,13.1,8.6,31.3c9.6,18.2-3.5,40.9-13.1,52c-9.6,11.1-22.7,39.4-18.2,73.7
			s-34.3,67.7-55.5,73.7C262,373,245,354,245,354l-1.4,18.6l159,0.2c0,0-12.4-32.4-10-52.1c2.4-19.8,12.9-55,15-67.6
			c2.1-12.6,5.5-42.6,3.1-56.2s-6.2-28.1-21.7-41.9C373.5,141.2,361.4,136.2,361.4,136.2z"/>
	</g>
	<g>
		<circle class="st6" cx="271" cy="102.1" r="8.7"/>
	</g>
	<g>
		<circle class="st6" cx="249.2" cy="112.9" r="3.3"/>
	</g>
	<g>
		<path class="st7" d="M326.3,449.3v65.4h50.1c0,0,1.1-0.7,0.7-2.4c0,0-11.7-7.7-17-12.5c0,0-8.2-7.1-12.3-13.9c0,0-2.5-3.9-2.1-9.1
			c0.4-5.1,3.1-11.8,8.3-18.2c0,0,3.1-4.1,5.9-6.3c0,0-0.8-2.1-1.6-3.3L326.3,449.3z"/>
	</g>
	<g>
		<path class="st8" d="M293.8,449.3h64.5l1.6,3.1c0,0-17.5,4.1-33.8,4.1s-33.8-4.3-33.8-4.3L293.8,449.3z"/>
	</g>
	<g>
		<polygon class="st7" points="240.6,406.1 420.9,436.4 411.4,406.1 		"/>
	</g>
	<g>
		
			<ellipse transform="matrix(0.4178 -0.9085 0.9085 0.4178 -239.3503 471.5325)" class="st7" cx="248.2" cy="422.5" rx="7.6" ry="3.8"/>
	</g>
	<g>
		
			<ellipse transform="matrix(0.4178 -0.9085 0.9085 0.4178 -233.9637 484.3932)" class="st7" cx="261" cy="424.8" rx="4.2" ry="2.1"/>
	</g>
	<g>
		<path class="st4" d="M216.6,234.1c-0.6,0-0.9,0-1-0.1l0.2-1.3c0.2,0,5.6,0.7,7.4-4.2c1.8-4.9-2-7.2-2.1-7.3l0.7-1.1
			c0,0,4.8,3,2.7,8.9C222.8,233.6,218.6,234.1,216.6,234.1z"/>
	</g>
	<g>
		
			<rect x="218" y="190.5" transform="matrix(0.9305 -0.3662 0.3662 0.9305 -48.5061 126.531)" class="st4" width="182.5" height="1.3"/>
	</g>
	<g>
		<path class="st9" d="M411.4,189.7"/>
	</g>
	<g>
		<path class="st9" d="M225.2,227.5"/>
	</g>
	<g>
		
			<rect x="243.2" y="214.4" transform="matrix(0.2603 -0.9655 0.9655 0.2603 -47.0258 409.5783)" class="st4" width="1.3" height="42.1"/>
	</g>
	<g>
		
			<rect x="222.2" y="212.6" transform="matrix(0.9858 -0.168 0.168 0.9858 -31.3205 56.4128)" class="st4" width="190.9" height="1.3"/>
	</g>
	<g>
		
			<rect x="238.8" y="223.3" transform="matrix(0.6247 -0.7809 0.7809 0.6247 -100.5759 278.472)" class="st4" width="1.3" height="41.1"/>
	</g>
	<g>
		
			<rect x="204.1" y="176.1" transform="matrix(0.8198 -0.5726 0.5726 0.8198 -49.9225 194.9229)" class="st4" width="161.3" height="1.3"/>
	</g>
	<g>
		<path class="st4" d="M220.3,247.8l-1.2-0.4c0.9-3.2,2.7-5.4,5.3-6.5c4.3-1.8,9.6-0.2,12.2,0.9c-0.5-1.6-0.4-2.9,0.3-4.1
			c1.2-2,3.9-2.8,5.7-3.1c-1.2-1.1-1.9-2.2-1.8-3.5c0-2.4,2.3-4.4,3.6-5.3c-2-1.4-3.1-2.9-3.1-4.6c0-2.4,2.1-4.4,3.4-5.4
			c-2.2-0.9-3.5-2.1-3.9-3.7c-0.8-3.8,3.9-8,4.1-8.1l0.9,1c0,0-4.4,3.9-3.7,6.9c0.3,1.4,1.7,2.5,4.2,3.2l1.4,0.4l-1.3,0.8
			c0,0-3.9,2.3-3.9,5c0,1.4,1.1,2.8,3.3,4.1l1,0.6l-1,0.6c0,0-3.8,2.2-3.8,4.8c0,1.2,0.9,2.3,2.6,3.4l1.9,1.1l-2.2,0.1
			c0,0-4.9,0.2-6.3,2.7c-0.7,1.1-0.5,2.6,0.4,4.4l0.9,1.8l-1.8-0.9c-0.1,0-7.4-3.7-12.6-1.5C222.7,243.2,221.2,245,220.3,247.8z"/>
	</g>
	<g>
		<path class="st4" d="M265.4,241.8c-2.9-3.3-4.1-6.8-3.5-10.2c1-5.4,6.1-9.2,8.3-10.6c-3.8-2-5.9-4.4-6-7c-0.2-3.7,3.4-6.7,5.2-7.9
			c-3.2-1.7-5.1-4-5.7-6.8c-1.1-5,2.5-9.9,3.5-11.2c-1.5-3.6,1.5-7.9,1.6-8.1l1.1,0.7c0,0-2.9,4.2-1.3,7.2l0.2,0.4l-0.3,0.3
			c0,0.1-4.6,5.4-3.5,10.4c0.6,2.7,2.6,4.8,6,6.4l1.1,0.5l-1.1,0.6c-0.1,0-5.7,3.4-5.6,7.4c0.1,2.3,2.2,4.5,6.3,6.4l1.2,0.5
			l-1.1,0.6c-0.1,0-7.6,4.2-8.7,10.3c-0.5,3,0.5,6.1,3.2,9.1L265.4,241.8z"/>
	</g>
	<g>
		<path class="st4" d="M304.2,234.5c-0.3-0.2-6.9-4.4-7.4-10.2c-0.2-2.8,0.9-5.4,3.5-7.8c-1.6-1.7-6.6-7.5-6.3-13.6
			c0.2-2.9,1.5-5.5,4-7.6c-2-1-6.4-3.5-8.1-8.6c-1.6-4.6-0.3-10.1,3.6-16.2c-1.6-1.3-6.6-5.8-7.5-13c-0.8-5.9,1.5-12.1,6.7-18.2
			l1,0.8c-5,5.9-7.1,11.7-6.4,17.2c1,7.8,7.4,12.4,7.5,12.5l0.5,0.4l-0.3,0.5c-4,6-5.2,11.2-3.8,15.6c2,5.9,8.3,8.2,8.4,8.2l1.1,0.4
			l-1,0.7c-2.7,2.1-4.2,4.5-4.3,7.4c-0.4,6.6,6.3,13,6.4,13.1l0.5,0.5l-0.5,0.5c-2.6,2.3-3.8,4.7-3.6,7.2c0.4,5.2,6.8,9.2,6.8,9.2
			L304.2,234.5z"/>
	</g>
	<g>
		<path class="st4" d="M342.7,244.1c-6.3-11.3-5.9-20.5-4.4-26.3c1.2-4.7,3.3-7.9,4.3-9.2c-7-3.1-11.1-7.3-12-12.5
			c-1.5-8,4.8-15.8,7.2-18.4c-7.2-1.5-12.2-4.7-14.8-9.6c-4.3-7.8-1-17.3-0.2-19.1c-6.4-10.3,1.9-17.5,1.9-17.5l0.8,1
			c-0.3,0.3-7.6,6.6-1.5,16.1l0.2,0.3l-0.1,0.3c0,0.1-4.3,10.3,0.1,18.3c2.6,4.8,7.7,7.8,15.1,9.2l1.2,0.2l-0.9,0.9
			c-0.1,0.1-9.3,9.2-7.7,18.1c0.9,4.9,5,8.9,12,11.9l0.8,0.4l-0.6,0.7c-0.1,0.1-12,13.9-0.3,34.7L342.7,244.1z"/>
	</g>
	<g>
		<path class="st4" d="M395.7,303.7c-19.9-25.7-1.7-48.8,1.3-52.4c-11.2-11.4-16.5-22.5-15.8-33c0.6-9.7,6.2-15.7,8.3-17.7
			c-7.9-3.6-12.8-8.6-14.6-14.9c-3-10.4,3.3-21,4.8-23.4c-10.5-10.1-12.4-22.6-12.5-23.2l1.3-0.2c0,0.1,2.1,13,12.5,22.8l0.4,0.4
			l-0.3,0.5c-0.1,0.1-8.1,11.7-4.9,22.7c1.8,6.2,6.7,11.1,14.8,14.5l1,0.4l-0.9,0.7c-0.1,0.1-7.9,6.4-8.6,17.5
			c-0.6,10.2,4.7,21.1,15.9,32.4l0.4,0.4l-0.4,0.5c-0.2,0.2-22.5,24.3-1.6,51.2L395.7,303.7z"/>
	</g>
	<g>
		
			<rect x="371.8" y="212.7" transform="matrix(0.1421 -0.9898 0.9898 0.1421 73.354 581.9457)" class="st4" width="1.3" height="71.9"/>
	</g>
	<g>
		
			<rect x="353.2" y="239.7" transform="matrix(0.3906 -0.9206 0.9206 0.3906 -47.2151 499.7095)" class="st4" width="1.3" height="91.6"/>
	</g>
	<g>
		
			<rect x="346.6" y="254.8" transform="matrix(0.6162 -0.7876 0.7876 0.6162 -125.2284 399.4608)" class="st4" width="1.3" height="146.9"/>
	</g>
	<g>
		
			<rect x="295.7" y="288.7" transform="matrix(0.7972 -0.6037 0.6037 0.7972 -142.6805 247.0051)" class="st4" width="1.3" height="94.3"/>
	</g>
	<g>
		
			<rect x="264.8" y="313.1" transform="matrix(0.9126 -0.4089 0.4089 0.9126 -117.412 138.6136)" class="st4" width="1.3" height="61.6"/>
	</g>
	<g>
		<path class="st4" d="M352.2,373.7c-7.6-6.3-11.6-13.4-12-21.1c-0.5-11.4,7.2-20.4,9.3-22.6c-10.7-9.7-16.1-19.6-16.2-29.5
			c-0.1-10.8,6.2-18.1,8.1-20.1c-6.1-5.3-9.2-11.1-9.1-17.2c0.1-10.9,9.8-19,10.2-19.3l0.8,1c-0.1,0.1-9.7,8-9.7,18.3
			c0,5.9,3.1,11.5,9.2,16.7l0.6,0.5l-0.5,0.5c-0.1,0.1-8.3,7.8-8.2,19.7c0.1,9.7,5.5,19.5,16.2,29l0.5,0.5l-0.5,0.5
			c-0.1,0.1-9.9,9.9-9.4,22.1c0.3,7.3,4.2,14.1,11.5,20.1L352.2,373.7z"/>
	</g>
	<g>
		<path class="st4" d="M243.3,374.2l-1.2-0.4c2.4-7,6.3-11.7,11.7-14c7.6-3.3,15.9-0.8,19,0.3c-2.4-8.8-1.9-16.3,1.6-22.4
			c4.4-7.6,12-10.5,14.4-11.3c-5.2-9.9-6.3-18.1-3-24.3c4-7.6,13-9.8,16-10.3c-1.8-3.6-2.1-7.1-1.1-10.6
			c2.5-7.9,11.4-12.4,11.8-12.6l0.6,1.2c-0.1,0-8.9,4.5-11.1,11.8c-1,3.4-0.6,6.9,1.4,10.4l0.5,0.8l-1,0.1c-0.1,0-11.5,1.4-15.9,9.8
			c-3.1,5.9-1.9,13.9,3.4,23.8l0.4,0.7l-0.8,0.2c-0.1,0-9.6,2.4-14.4,10.9c-3.4,6-3.8,13.6-1.1,22.6l0.4,1.4l-1.3-0.6
			c-0.1,0-10.3-4.7-19.2-0.8C249.3,363.2,245.6,367.6,243.3,374.2z"/>
	</g>
	<g>
		<rect x="290.7" y="452" class="st4" width="70.3" height="1.3"/>
	</g>
	<g>
		<rect x="294.1" y="457.1" class="st4" width="62.8" height="1.3"/>
	</g>
	<g>
		<rect x="299.2" y="463.7" class="st4" width="51.9" height="1.3"/>
	</g>
	<g>
		<rect x="304.7" y="472.6" class="st4" width="42.7" height="1.3"/>
	</g>
	<g>
		<rect x="304" y="482.5" class="st4" width="44.2" height="1.3"/>
	</g>
	<g>
		<rect x="299.2" y="490.6" class="st4" width="53" height="1.3"/>
	</g>
	<g>
		<rect x="292" y="498" class="st4" width="68" height="1.3"/>
	</g>
	<g>
		<rect x="285.2" y="504.5" class="st4" width="82.5" height="1.3"/>
	</g>
	<g>
		<rect x="276" y="510.5" class="st4" width="100.1" height="1.3"/>
	</g>
	<g>
		<g>
			<path class="st10" d="M319.6,200.5c-3.5,1.3-9.8,3.5-18.1-2.5c-8.4-6-11.8-14.1-11.4-19c0,0-0.4-2.2,6.4-6.8
				c6.7-4.6,11.7-7.8,20.4-11.4c8.8-3.5,19.2-3.4,19.2-3.4s5.1-0.1,6,1.1c0.9,1.3,2.7,9.5-2.2,20.4
				C334.9,189.8,323.1,199.3,319.6,200.5z"/>
		</g>
		<g>
			<g>
				<path class="st4" d="M348.3,185.2c6.1-9.6,9.2-21.5,8.7-29.9c-0.5-8.4-4.5-16.4-5.5-17.7c-1.1-1.3-2.5,0.3-2.5,0.3
					c-1.5,2.8-5.8,6.6-10.2,8.5c-4.5,1.8-9.7,1.7-16.1,3.2c-6.4,1.5-13.9,5.1-18.3,7.1c-4,1.8-14.6,9.8-16.4,11.2
					c0,0-0.5,0.6-3.6,3.3c-5,4.5-4.5,8.7-1.6,14.6c2.9,6,9.1,13.5,15.8,19.3c6.7,5.8,18.8,7.7,27.8,3.2
					C335.2,203.7,342.2,194.9,348.3,185.2z M319.6,200.5c-3.5,1.3-9.8,3.5-18.1-2.5c-8.4-6-11.8-14.1-11.4-19c0,0-0.4-2.2,6.4-6.8
					c6.7-4.6,11.7-7.8,20.4-11.4c8.8-3.5,19.2-3.4,19.2-3.4s5.1-0.1,6,1.1c0.9,1.3,2.7,9.5-2.2,20.4
					C334.9,189.7,323,199.2,319.6,200.5z"/>
			</g>
			<g>
				<path class="st4" d="M287.8,167.8c0,0-0.3,0.2-0.3,0.2S287.7,167.9,287.8,167.8z"/>
			</g>
		</g>
		<g>
			<path class="st11" d="M293.6,166.3c0,0,13.3-8.5,22.2-11c8.9-2.5,11.4-2.7,16-3.1c5.3-0.4,13.1-3.1,15.3-5.7
				c2.1-2.6,2.8-5.5,2.9-6.8c0,0-3.8,4.8-7,6.9c-2.5,1.6-6.7,3.2-11.2,3.7c-4.4,0.5-14,2.4-20.3,5.4
				C305.2,158.8,298.8,162.5,293.6,166.3z"/>
		</g>
		<g class="st12">
			<path class="st11" d="M297.3,171.4c0,0,12.6-6.7,17.2-7.8c4.6-1.1,11.1-2.1,11.1-2.1s1.5,1.3,3.9,0.8s3.6-1.2,3.6-1.2
				s4.3,0.1,4.8,0.3c0.5,0.2,2.2,1.2,2.5,2.6s0.7,7.2-0.5,11.1c-1.2,3.8-5.4,12.2-8.5,15.6c0,0,6.3-6.7,9-12.8
				c2.7-6.1,3.2-12.9,2.8-15.7c-0.4-2.8-1.1-4.2-2.5-4.5s-10.7-0.5-15.1,0.7s-11.3,2.8-15.6,5S297.3,171.4,297.3,171.4z"/>
		</g>
		<g>
			<path class="st11" d="M308,206.1c0,0,2.6,1.3,5.9,1.4c3.3,0.1,6.6-0.8,6.6-0.8s-3.1,2-5.6,1.9C312.5,208.6,310.1,208.2,308,206.1
				z"/>
		</g>
		<g>
			<g>
				<g>
					<circle class="st13" cx="342.8" cy="167.5" r="0.5"/>
				</g>
				<g>
					<circle class="st13" cx="336.9" cy="158.4" r="0.5"/>
				</g>
				<g>
					<circle class="st13" cx="338.4" cy="160.7" r="0.5"/>
				</g>
				<g>
					<circle class="st13" cx="339.9" cy="162.9" r="0.5"/>
				</g>
				<g>
					<circle class="st13" cx="341.4" cy="165.2" r="0.5"/>
				</g>
			</g>
			<g>
				<g>
					<circle class="st13" cx="340.5" cy="169" r="0.5"/>
				</g>
				<g>
					<circle class="st13" cx="341.9" cy="171.3" r="0.5"/>
				</g>
				<g>
					<circle class="st13" cx="333.2" cy="158" r="0.5"/>
				</g>
				<g>
					<circle class="st13" cx="334.5" cy="160" r="0.5"/>
				</g>
				<g>
					<circle class="st13" cx="336" cy="162.3" r="0.5"/>
				</g>
				<g>
					<circle class="st13" cx="337.5" cy="164.5" r="0.5"/>
				</g>
				<g>
					<circle class="st13" cx="339" cy="166.8" r="0.5"/>
				</g>
			</g>
			<g>
				<g>
					<circle class="st13" cx="340.8" cy="159.1" r="0.5"/>
				</g>
				<g>
					<circle class="st13" cx="342.2" cy="161.4" r="0.5"/>
				</g>
			</g>
			<g>
				<g>
					<circle class="st13" cx="328.6" cy="176.9" r="0.5"/>
				</g>
				<g>
					<circle class="st13" cx="330" cy="179.1" r="0.5"/>
				</g>
				<g>
					<circle class="st13" cx="331.5" cy="181.4" r="0.5"/>
				</g>
				<g>
					<circle class="st13" cx="333" cy="183.6" r="0.5"/>
				</g>
				<g>
					<circle class="st13" cx="334.5" cy="185.9" r="0.5"/>
				</g>
				<g>
					<circle class="st13" cx="318.2" cy="161.1" r="0.5"/>
				</g>
				<g>
					<circle class="st13" cx="319.6" cy="163.3" r="0.5"/>
				</g>
				<g>
					<circle class="st13" cx="321.1" cy="165.6" r="0.5"/>
				</g>
				<g>
					<circle class="st13" cx="322.6" cy="167.8" r="0.5"/>
				</g>
				<g>
					<circle class="st13" cx="324.1" cy="170.1" r="0.5"/>
				</g>
				<g>
					<circle class="st13" cx="325.6" cy="172.4" r="0.5"/>
				</g>
				<g>
					<circle class="st13" cx="327.1" cy="174.6" r="0.5"/>
				</g>
			</g>
			<g>
				<g>
					<circle class="st13" cx="326.2" cy="178.4" r="0.5"/>
				</g>
				<g>
					<circle class="st13" cx="327.7" cy="180.7" r="0.5"/>
				</g>
				<g>
					<circle class="st13" cx="329.1" cy="182.9" r="0.5"/>
				</g>
				<g>
					<circle class="st13" cx="330.6" cy="185.2" r="0.5"/>
				</g>
				<g>
					<circle class="st13" cx="332.1" cy="187.5" r="0.5"/>
				</g>
				<g>
					<circle class="st13" cx="315.8" cy="162.6" r="0.5"/>
				</g>
				<g>
					<circle class="st13" cx="317.3" cy="164.9" r="0.5"/>
				</g>
				<g>
					<circle class="st13" cx="318.7" cy="167.1" r="0.5"/>
				</g>
				<g>
					<circle class="st13" cx="320.2" cy="169.4" r="0.5"/>
				</g>
				<g>
					<circle class="st13" cx="321.7" cy="171.7" r="0.5"/>
				</g>
				<g>
					<circle class="st13" cx="323.2" cy="173.9" r="0.5"/>
				</g>
				<g>
					<circle class="st13" cx="324.7" cy="176.2" r="0.5"/>
				</g>
			</g>
			<g>
				<g>
					<circle class="st13" cx="330.9" cy="175.3" r="0.5"/>
				</g>
				<g>
					<circle class="st13" cx="332.4" cy="177.6" r="0.5"/>
				</g>
				<g>
					<circle class="st13" cx="333.9" cy="179.8" r="0.5"/>
				</g>
				<g>
					<circle class="st13" cx="335.4" cy="182.1" r="0.5"/>
				</g>
				<g>
					<circle class="st13" cx="322" cy="161.8" r="0.5"/>
				</g>
				<g>
					<circle class="st13" cx="323.5" cy="164" r="0.5"/>
				</g>
				<g>
					<circle class="st13" cx="325" cy="166.3" r="0.5"/>
				</g>
				<g>
					<circle class="st13" cx="326.5" cy="168.5" r="0.5"/>
				</g>
				<g>
					<circle class="st13" cx="328" cy="170.8" r="0.5"/>
				</g>
				<g>
					<circle class="st13" cx="329.5" cy="173" r="0.5"/>
				</g>
			</g>
			<g>
				<g>
					<circle class="st13" cx="335.7" cy="172.2" r="0.5"/>
				</g>
				<g>
					<circle class="st13" cx="337.2" cy="174.4" r="0.5"/>
				</g>
				<g>
					<circle class="st13" cx="338.7" cy="176.7" r="0.5"/>
				</g>
				<g>
					<circle class="st13" cx="326.8" cy="158.7" r="0.5"/>
				</g>
				<g>
					<circle class="st13" cx="328.3" cy="160.9" r="0.5"/>
				</g>
				<g>
					<circle class="st13" cx="329.8" cy="163.1" r="0.5"/>
				</g>
				<g>
					<circle class="st13" cx="331.2" cy="165.4" r="0.5"/>
				</g>
				<g>
					<circle class="st13" cx="332.7" cy="167.6" r="0.5"/>
				</g>
				<g>
					<circle class="st13" cx="334.2" cy="169.9" r="0.5"/>
				</g>
			</g>
			<g>
				<g>
					<circle class="st13" cx="333.3" cy="173.7" r="0.5"/>
				</g>
				<g>
					<circle class="st13" cx="334.8" cy="176" r="0.5"/>
				</g>
				<g>
					<circle class="st13" cx="336.3" cy="178.2" r="0.5"/>
				</g>
				<g>
					<circle class="st13" cx="337.8" cy="180.5" r="0.5"/>
				</g>
				<g>
					<circle class="st13" cx="324.4" cy="160.2" r="0.5"/>
				</g>
				<g>
					<circle class="st13" cx="325.9" cy="162.4" r="0.5"/>
				</g>
				<g>
					<circle class="st13" cx="327.4" cy="164.7" r="0.5"/>
				</g>
				<g>
					<circle class="st13" cx="328.9" cy="167" r="0.5"/>
				</g>
				<g>
					<circle class="st13" cx="330.3" cy="169.2" r="0.5"/>
				</g>
				<g>
					<circle class="st13" cx="331.8" cy="171.5" r="0.5"/>
				</g>
			</g>
			<g>
				<g>
					<circle class="st13" cx="338.1" cy="170.6" r="0.5"/>
				</g>
				<g>
					<circle class="st13" cx="339.6" cy="172.9" r="0.5"/>
				</g>
				<g>
					<circle class="st13" cx="341.1" cy="175.1" r="0.5"/>
				</g>
				<g>
					<circle class="st13" cx="330.7" cy="159.3" r="0.5"/>
				</g>
				<g>
					<circle class="st13" cx="332.1" cy="161.6" r="0.5"/>
				</g>
				<g>
					<circle class="st13" cx="333.6" cy="163.8" r="0.5"/>
				</g>
				<g>
					<circle class="st13" cx="335.1" cy="166.1" r="0.5"/>
				</g>
				<g>
					<circle class="st13" cx="336.6" cy="168.3" r="0.5"/>
				</g>
			</g>
			<g>
				<g>
					<circle class="st13" cx="314.3" cy="186.3" r="0.5"/>
				</g>
				<g>
					<circle class="st13" cx="315.8" cy="188.5" r="0.5"/>
				</g>
				<g>
					<circle class="st13" cx="317.2" cy="190.8" r="0.5"/>
				</g>
				<g>
					<circle class="st13" cx="318.7" cy="193" r="0.5"/>
				</g>
				<g>
					<circle class="st13" cx="320.2" cy="195.3" r="0.5"/>
				</g>
				<g>
					<circle class="st13" cx="321.7" cy="197.5" r="0.5"/>
				</g>
				<g>
					<circle class="st13" cx="303.9" cy="170.5" r="0.5"/>
				</g>
				<g>
					<circle class="st13" cx="305.4" cy="172.7" r="0.5"/>
				</g>
				<g>
					<circle class="st13" cx="306.8" cy="175" r="0.5"/>
				</g>
				<g>
					<circle class="st13" cx="308.3" cy="177.2" r="0.5"/>
				</g>
				<g>
					<circle class="st13" cx="309.8" cy="179.5" r="0.5"/>
				</g>
				<g>
					<circle class="st13" cx="311.3" cy="181.8" r="0.5"/>
				</g>
				<g>
					<circle class="st13" cx="312.8" cy="184" r="0.5"/>
				</g>
			</g>
			<g>
				<g>
					<circle class="st13" cx="311.9" cy="187.8" r="0.5"/>
				</g>
				<g>
					<circle class="st13" cx="313.4" cy="190.1" r="0.5"/>
				</g>
				<g>
					<circle class="st13" cx="314.9" cy="192.3" r="0.5"/>
				</g>
				<g>
					<circle class="st13" cx="316.4" cy="194.6" r="0.5"/>
				</g>
				<g>
					<circle class="st13" cx="317.8" cy="196.9" r="0.5"/>
				</g>
				<g>
					<circle class="st13" cx="319.3" cy="199.1" r="0.5"/>
				</g>
				<g>
					<circle class="st13" cx="301.5" cy="172" r="0.5"/>
				</g>
				<g>
					<circle class="st13" cx="303" cy="174.3" r="0.5"/>
				</g>
				<g>
					<circle class="st13" cx="304.5" cy="176.6" r="0.5"/>
				</g>
				<g>
					<circle class="st13" cx="306" cy="178.8" r="0.5"/>
				</g>
				<g>
					<circle class="st13" cx="307.4" cy="181.1" r="0.5"/>
				</g>
				<g>
					<circle class="st13" cx="308.9" cy="183.3" r="0.5"/>
				</g>
				<g>
					<circle class="st13" cx="310.4" cy="185.6" r="0.5"/>
				</g>
			</g>
			<g>
				<g>
					<circle class="st13" cx="316.7" cy="184.7" r="0.5"/>
				</g>
				<g>
					<circle class="st13" cx="318.1" cy="187" r="0.5"/>
				</g>
				<g>
					<circle class="st13" cx="319.6" cy="189.2" r="0.5"/>
				</g>
				<g>
					<circle class="st13" cx="321.1" cy="191.5" r="0.5"/>
				</g>
				<g>
					<circle class="st13" cx="322.6" cy="193.7" r="0.5"/>
				</g>
				<g>
					<circle class="st13" cx="324.1" cy="196" r="0.5"/>
				</g>
				<g>
					<circle class="st13" cx="306.3" cy="168.9" r="0.5"/>
				</g>
				<g>
					<circle class="st13" cx="307.7" cy="171.2" r="0.5"/>
				</g>
				<g>
					<circle class="st13" cx="309.2" cy="173.4" r="0.5"/>
				</g>
				<g>
					<circle class="st13" cx="310.7" cy="175.7" r="0.5"/>
				</g>
				<g>
					<circle class="st13" cx="312.2" cy="177.9" r="0.5"/>
				</g>
				<g>
					<circle class="st13" cx="313.7" cy="180.2" r="0.5"/>
				</g>
				<g>
					<circle class="st13" cx="315.2" cy="182.4" r="0.5"/>
				</g>
			</g>
			<g>
				<g>
					<circle class="st13" cx="321.4" cy="181.6" r="0.5"/>
				</g>
				<g>
					<circle class="st13" cx="322.9" cy="183.8" r="0.5"/>
				</g>
				<g>
					<circle class="st13" cx="324.4" cy="186.1" r="0.5"/>
				</g>
				<g>
					<circle class="st13" cx="325.9" cy="188.3" r="0.5"/>
				</g>
				<g>
					<circle class="st13" cx="327.4" cy="190.6" r="0.5"/>
				</g>
				<g>
					<circle class="st13" cx="328.8" cy="192.8" r="0.5"/>
				</g>
				<g>
					<circle class="st13" cx="311" cy="165.8" r="0.5"/>
				</g>
				<g>
					<circle class="st13" cx="312.5" cy="168" r="0.5"/>
				</g>
				<g>
					<circle class="st13" cx="314" cy="170.3" r="0.5"/>
				</g>
				<g>
					<circle class="st13" cx="315.5" cy="172.5" r="0.5"/>
				</g>
				<g>
					<circle class="st13" cx="317" cy="174.8" r="0.5"/>
				</g>
				<g>
					<circle class="st13" cx="318.4" cy="177.1" r="0.5"/>
				</g>
				<g>
					<circle class="st13" cx="319.9" cy="179.3" r="0.5"/>
				</g>
			</g>
			<g>
				<g>
					<circle class="st13" cx="319" cy="183.1" r="0.5"/>
				</g>
				<g>
					<circle class="st13" cx="320.5" cy="185.4" r="0.5"/>
				</g>
				<g>
					<circle class="st13" cx="322" cy="187.6" r="0.5"/>
				</g>
				<g>
					<circle class="st13" cx="323.5" cy="189.9" r="0.5"/>
				</g>
				<g>
					<circle class="st13" cx="325" cy="192.2" r="0.5"/>
				</g>
				<g>
					<circle class="st13" cx="326.5" cy="194.4" r="0.5"/>
				</g>
				<g>
					<circle class="st13" cx="308.6" cy="167.3" r="0.5"/>
				</g>
				<g>
					<circle class="st13" cx="310.1" cy="169.6" r="0.5"/>
				</g>
				<g>
					<circle class="st13" cx="311.6" cy="171.9" r="0.5"/>
				</g>
				<g>
					<circle class="st13" cx="313.1" cy="174.1" r="0.5"/>
				</g>
				<g>
					<circle class="st13" cx="314.6" cy="176.4" r="0.5"/>
				</g>
				<g>
					<circle class="st13" cx="316.1" cy="178.6" r="0.5"/>
				</g>
				<g>
					<circle class="st13" cx="317.6" cy="180.9" r="0.5"/>
				</g>
			</g>
			<g>
				<g>
					<circle class="st13" cx="323.8" cy="180" r="0.5"/>
				</g>
				<g>
					<circle class="st13" cx="325.3" cy="182.3" r="0.5"/>
				</g>
				<g>
					<circle class="st13" cx="326.8" cy="184.5" r="0.5"/>
				</g>
				<g>
					<circle class="st13" cx="328.3" cy="186.8" r="0.5"/>
				</g>
				<g>
					<circle class="st13" cx="329.7" cy="189" r="0.5"/>
				</g>
				<g>
					<circle class="st13" cx="313.4" cy="164.2" r="0.5"/>
				</g>
				<g>
					<circle class="st13" cx="314.9" cy="166.5" r="0.5"/>
				</g>
				<g>
					<circle class="st13" cx="316.4" cy="168.7" r="0.5"/>
				</g>
				<g>
					<circle class="st13" cx="317.9" cy="171" r="0.5"/>
				</g>
				<g>
					<circle class="st13" cx="319.3" cy="173.2" r="0.5"/>
				</g>
				<g>
					<circle class="st13" cx="320.8" cy="175.5" r="0.5"/>
				</g>
				<g>
					<circle class="st13" cx="322.3" cy="177.7" r="0.5"/>
				</g>
			</g>
			<g>
				<g>
					<circle class="st13" cx="300" cy="195.7" r="0.5"/>
				</g>
				<g>
					<circle class="st13" cx="291.1" cy="182.1" r="0.5"/>
				</g>
				<g>
					<circle class="st13" cx="292.6" cy="184.4" r="0.5"/>
				</g>
				<g>
					<circle class="st13" cx="294.1" cy="186.6" r="0.5"/>
				</g>
				<g>
					<circle class="st13" cx="295.5" cy="188.9" r="0.5"/>
				</g>
				<g>
					<circle class="st13" cx="297" cy="191.2" r="0.5"/>
				</g>
				<g>
					<circle class="st13" cx="298.5" cy="193.4" r="0.5"/>
				</g>
			</g>
			<g>
				<g>
					<circle class="st13" cx="302.4" cy="194.1" r="0.5"/>
				</g>
				<g>
					<circle class="st13" cx="303.9" cy="196.4" r="0.5"/>
				</g>
				<g>
					<circle class="st13" cx="305.3" cy="198.6" r="0.5"/>
				</g>
				<g>
					<circle class="st13" cx="292" cy="178.3" r="0.5"/>
				</g>
				<g>
					<circle class="st13" cx="293.5" cy="180.6" r="0.5"/>
				</g>
				<g>
					<circle class="st13" cx="294.9" cy="182.8" r="0.5"/>
				</g>
				<g>
					<circle class="st13" cx="296.4" cy="185.1" r="0.5"/>
				</g>
				<g>
					<circle class="st13" cx="297.9" cy="187.3" r="0.5"/>
				</g>
				<g>
					<circle class="st13" cx="299.4" cy="189.6" r="0.5"/>
				</g>
				<g>
					<circle class="st13" cx="300.9" cy="191.8" r="0.5"/>
				</g>
			</g>
			<g>
				<g>
					<circle class="st13" cx="307.1" cy="191" r="0.5"/>
				</g>
				<g>
					<circle class="st13" cx="308.6" cy="193.2" r="0.5"/>
				</g>
				<g>
					<circle class="st13" cx="310.1" cy="195.5" r="0.5"/>
				</g>
				<g>
					<circle class="st13" cx="311.6" cy="197.7" r="0.5"/>
				</g>
				<g>
					<circle class="st13" cx="313.1" cy="200" r="0.5"/>
				</g>
				<g>
					<circle class="st13" cx="296.7" cy="175.2" r="0.5"/>
				</g>
				<g>
					<circle class="st13" cx="298.2" cy="177.4" r="0.5"/>
				</g>
				<g>
					<circle class="st13" cx="299.7" cy="179.7" r="0.5"/>
				</g>
				<g>
					<circle class="st13" cx="301.2" cy="181.9" r="0.5"/>
				</g>
				<g>
					<circle class="st13" cx="302.7" cy="184.2" r="0.5"/>
				</g>
				<g>
					<circle class="st13" cx="304.2" cy="186.5" r="0.5"/>
				</g>
				<g>
					<circle class="st13" cx="305.7" cy="188.7" r="0.5"/>
				</g>
			</g>
			<g>
				<g>
					<circle class="st13" cx="304.8" cy="192.5" r="0.5"/>
				</g>
				<g>
					<circle class="st13" cx="306.2" cy="194.8" r="0.5"/>
				</g>
				<g>
					<circle class="st13" cx="307.7" cy="197.1" r="0.5"/>
				</g>
				<g>
					<circle class="st13" cx="309.2" cy="199.3" r="0.5"/>
				</g>
				<g>
					<circle class="st13" cx="310.7" cy="201.6" r="0.5"/>
				</g>
				<g>
					<circle class="st13" cx="294.4" cy="176.7" r="0.5"/>
				</g>
				<g>
					<circle class="st13" cx="295.8" cy="179" r="0.5"/>
				</g>
				<g>
					<circle class="st13" cx="297.3" cy="181.3" r="0.5"/>
				</g>
				<g>
					<circle class="st13" cx="298.8" cy="183.5" r="0.5"/>
				</g>
				<g>
					<circle class="st13" cx="300.3" cy="185.8" r="0.5"/>
				</g>
				<g>
					<circle class="st13" cx="301.8" cy="188" r="0.5"/>
				</g>
				<g>
					<circle class="st13" cx="303.3" cy="190.3" r="0.5"/>
				</g>
			</g>
			<g>
				<g>
					<circle class="st13" cx="309.5" cy="189.4" r="0.5"/>
				</g>
				<g>
					<circle class="st13" cx="311" cy="191.7" r="0.5"/>
				</g>
				<g>
					<circle class="st13" cx="312.5" cy="193.9" r="0.5"/>
				</g>
				<g>
					<circle class="st13" cx="314" cy="196.2" r="0.5"/>
				</g>
				<g>
					<circle class="st13" cx="315.5" cy="198.4" r="0.5"/>
				</g>
				<g>
					<circle class="st13" cx="316.9" cy="200.7" r="0.5"/>
				</g>
				<g>
					<circle class="st13" cx="299.1" cy="173.6" r="0.5"/>
				</g>
				<g>
					<circle class="st13" cx="300.6" cy="175.9" r="0.5"/>
				</g>
				<g>
					<circle class="st13" cx="302.1" cy="178.1" r="0.5"/>
				</g>
				<g>
					<circle class="st13" cx="303.6" cy="180.4" r="0.5"/>
				</g>
				<g>
					<circle class="st13" cx="305.1" cy="182.6" r="0.5"/>
				</g>
				<g>
					<circle class="st13" cx="306.5" cy="184.9" r="0.5"/>
				</g>
				<g>
					<circle class="st13" cx="308" cy="187.1" r="0.5"/>
				</g>
			</g>
		</g>
	</g>
	<g>
		<ellipse transform="matrix(0.866 -0.5 0.5 0.866 -44.6498 223.9267)" class="st14" cx="395.5" cy="195.3" rx="6.9" ry="12.6"/>
	</g>
	<g>
		<path class="st14" d="M273.8,155.8c0,0,9-11.5,21.8-16.3c12.8-4.9,20.3-6.6,29.4-6.8c0,0,0.7,1.4-6.1,4.1s-14.1,1.9-18.9,7.7
			c-4.9,5.9-8.1,11.7-13.3,13.3c-5.2,1.6-8,14.1-8,14.1L273.8,155.8z"/>
	</g>
	<g>
		<path class="st15" d="M221.9,221.9c0,0,3.2,2.9,1.2,7.2s-6.6,3.7-6.6,3.7s4.1-1.3,5.5-3.3C223.2,227.6,223.2,225.8,221.9,221.9z"
			/>
	</g>
	<g>
		<path class="st5" d="M220.7,222.9c0,0-4.3,2.7-4.3,8c0,0,2.8-0.2,4.1-2.9C221.9,225.3,220.7,222.9,220.7,222.9z"/>
	</g>
	<g>
		<ellipse transform="matrix(0.866 -0.5 0.5 0.866 -33.5604 218.4101)" class="st14" cx="390.8" cy="171.8" rx="2.9" ry="5.3"/>
	</g>
	<g>
		
			<ellipse transform="matrix(0.7349 -0.6781 0.6781 0.7349 -144.7687 266.0119)" class="st7" cx="267.9" cy="318.2" rx="10.2" ry="6.9"/>
	</g>
	<g>
		<ellipse transform="matrix(0.866 -0.5 0.5 0.866 -114.0085 180.2507)" class="st7" cx="279.3" cy="302.9" rx="4.1" ry="2.8"/>
	</g>
	<g id="XMLID_9_">
		<g id="XMLID_10_">
			<path class="st8" d="M191.7,156.3c-30.7-0.3-49.4,10.9-56,33.4c-1.5,22.8-3.2,45.4-5,67.9c-2.3,27.4-13.6,44.4-33.8,51v8.4
				c19.4,6.7,30.7,23.4,33.8,50.3c1.8,22.5,3.6,45,5.4,67.5c5.6,22.8,21.7,34.2,48.4,34.2h6.9v-7.3c-12-0.8-21.4-4.9-28-12.5
				c-6.7-7.5-10-17-10-28.2c0-4.6,0.3-11.6,0.8-21.1c0.5-9.5,0.8-16.6,0.8-21.5c0-31.5-10.2-53.3-30.7-65.6
				c20.7-12.3,31.1-34.2,31.1-65.6c0-4.6-0.3-11.6-1-21.1c-0.6-9.5-1-16.6-1-21.5c0-11.3,3.4-20.7,10.2-28.2
				c6.8-7.5,16.2-11.7,28.2-12.5V156.3z"/>
			<path class="st4" d="M191.3,471h-6.9c-27.5,0-44.4-12-50.2-35.6c0-0.1,0-0.2-0.1-0.3c-1.8-22.5-3.6-45-5.4-67.5
				c-3-25.9-13.9-42.2-32.5-48.6c-0.8-0.3-1.3-1-1.3-1.8v-8.4c0-0.8,0.5-1.6,1.3-1.8c19.6-6.4,30.2-22.6,32.4-49.4
				c1.8-22.7,3.5-45.6,5-67.9c0-0.1,0-0.3,0.1-0.4c6.9-23.3,26.4-35,57.9-34.8c1.1,0,1.9,0.9,1.9,1.9v7.7c0,1-0.8,1.9-1.8,1.9
				c-11.4,0.7-20.5,4.7-26.9,11.8c-6.4,7.1-9.7,16.2-9.7,26.9c0,4.8,0.3,12,1,21.4c0.6,9.7,1,16.6,1,21.2c0,30.7-9.9,52.8-29.4,65.6
				c19.2,12.9,29,34.9,29,65.6c0,4.8-0.3,12.1-0.8,21.6c-0.5,9.3-0.8,16.4-0.8,21c0,10.7,3.2,19.8,9.5,26.9
				c6.3,7.1,15.2,11.1,26.7,11.8c1,0.1,1.8,0.9,1.8,1.9v7.3C193.3,470.2,192.4,471,191.3,471z M138,434.6
				c5.5,21.9,20.7,32.5,46.4,32.5h5v-3.6c-11.6-1.1-20.9-5.5-27.5-13c-6.9-7.9-10.5-17.8-10.5-29.5c0-4.7,0.3-11.8,0.8-21.2
				c0.5-9.4,0.8-16.6,0.8-21.4c0-30.6-10-52.1-29.8-64c-0.6-0.4-0.9-1-0.9-1.7c0-0.7,0.4-1.3,1-1.7c20-11.8,30.1-33.4,30.1-64
				c0-4.5-0.3-11.4-1-21c-0.6-9.4-1-16.7-1-21.6c0-11.7,3.6-21.6,10.7-29.5c6.8-7.5,16.1-11.9,27.7-13v-3.9
				c-28.7,0.2-45.8,10.6-52.2,31.8c-1.5,22.3-3.2,45.1-5,67.7c-2.3,27.5-13.7,45.1-33.8,52.3v5.7c19.3,7.2,30.7,24.5,33.8,51.4
				C134.4,389.7,136.2,412.2,138,434.6z"/>
		</g>
	</g>
	<g id="XMLID_12_">
		<path class="st3" d="M189.1,467.2c-12.4-0.8-31.2-5.7-38.1-13.5c-6.9-7.8-10.3-17.5-10.3-29.1c0-4.8,0.3-12,0.8-21.8
			c0.5-9.8,0.8-17.2,0.8-22.2c0-32.5-10.6-55-31.7-67.7c21.4-12.7,32.1-35.2,32.1-67.7c0-4.8-0.3-12-1-21.8c-0.7-9.8-1-17.2-1-22.2
			c0-11.6,3.5-21.3,10.5-29.1c7-7.8,25.8-12.9,38.2-13.7c0,0-15.3-0.8-29.2,5.3s-20.4,17.5-22.8,26.2l-5,70.5c0,0-1.4,16.8-9.4,29.6
			c-8,12.8-17.2,18.4-24.2,20l-0.2,5.8c0,0,14.2,5,20.6,15c6.4,10,10.8,16.7,12.8,33.2s5.3,64.1,5.6,70.3
			c0.3,6.2,9.5,21.7,16.4,25.3S170.3,467.9,189.1,467.2z"/>
	</g>
	<g>
		<path class="st4" d="M97.3,319.7l-0.8-5.1l10.7-1.7l-10.7-1.7l0.8-5.1l27.2,4.2c1.3,0.2,2.2,1.3,2.2,2.6c0,1.3-0.9,2.4-2.2,2.6
			L97.3,319.7z"/>
	</g>
	<g>
		<rect x="135.7" y="187.1" class="st4" width="19.5" height="5.2"/>
	</g>
	<g>
		<rect x="136.1" y="432.3" class="st4" width="18.4" height="5.2"/>
	</g>
	<g>
		
			<ellipse transform="matrix(0.8839 -0.4676 0.4676 0.8839 -147.394 106.0327)" class="st14" cx="139.9" cy="349.9" rx="6.8" ry="8.7"/>
	</g>
	<g>
		
			<ellipse transform="matrix(0.8839 -0.4676 0.4676 0.8839 -153.9837 109.3886)" class="st14" cx="143.4" cy="364.9" rx="3.4" ry="4.3"/>
	</g>
	<g id="XMLID_3_">
		<g id="XMLID_4_">
			<path class="st8" d="M455.4,469c30.7,0.3,49.4-10.9,56-33.4c1.5-22.8,3.2-45.4,5-67.9c2.3-27.4,13.6-44.4,33.8-51v-8.4
				c-19.4-6.7-30.7-23.4-33.8-50.3c-1.8-22.5-3.6-45-5.4-67.5c-5.6-22.8-21.7-34.2-48.4-34.2h-6.9v7.3c12,0.8,21.4,4.9,28,12.5
				c6.7,7.5,10,17,10,28.2c0,4.6-0.3,11.6-0.8,21.1c-0.5,9.5-0.8,16.6-0.8,21.5c0,31.5,10.2,53.3,30.7,65.6
				c-20.7,12.3-31.1,34.2-31.1,65.6c0,4.6,0.3,11.6,1,21.1c0.6,9.5,1,16.6,1,21.5c0,11.3-3.4,20.7-10.2,28.2
				c-6.8,7.5-16.2,11.7-28.2,12.5V469z"/>
			<path class="st4" d="M456.4,470.9c-0.3,0-0.7,0-1,0c-1.1,0-1.9-0.9-1.9-1.9v-7.7c0-1,0.8-1.9,1.8-1.9
				c11.4-0.7,20.5-4.7,26.9-11.8c6.4-7.1,9.7-16.2,9.7-26.9c0-4.8-0.3-12-1-21.4c-0.6-9.7-1-16.6-1-21.2c0-30.7,9.9-52.8,29.4-65.6
				c-19.2-12.9-29-34.9-29-65.6c0-4.9,0.3-12,0.8-21.6c0.5-9.3,0.8-16.4,0.8-21c0-10.7-3.2-19.8-9.5-26.9
				c-6.3-7.1-15.2-11.1-26.7-11.8c-1-0.1-1.8-0.9-1.8-1.9v-7.3c0-1.1,0.9-1.9,1.9-1.9h6.9c27.5,0,44.4,12,50.2,35.6
				c0,0.1,0,0.2,0.1,0.3l0.5,6.2c1.6,20.4,3.3,40.9,4.9,61.3c3,25.9,13.9,42.2,32.5,48.6c0.8,0.3,1.3,1,1.3,1.8v8.4
				c0,0.8-0.5,1.6-1.3,1.8c-19.6,6.4-30.2,22.6-32.4,49.4c-1.8,22.7-3.5,45.6-5,67.9c0,0.1,0,0.3-0.1,0.4
				C506.5,459.2,487.3,470.9,456.4,470.9z M457.3,463.1v3.9c28.7-0.2,45.8-10.6,52.2-31.8c1.5-22.3,3.2-45,5-67.7
				c2.3-27.5,13.7-45.1,33.8-52.3v-5.7c-19.3-7.2-30.7-24.5-33.8-51.4c-1.6-20.5-3.3-41-4.9-61.4l-0.5-6
				c-5.5-21.9-20.7-32.5-46.4-32.5h-5v3.6c11.6,1.1,20.9,5.5,27.5,13c6.9,7.9,10.5,17.8,10.5,29.5c0,4.7-0.3,11.8-0.8,21.2
				c-0.5,9.4-0.8,16.6-0.8,21.4c0,30.6,10,52.1,29.8,64c0.6,0.4,0.9,1,0.9,1.7c0,0.7-0.4,1.3-1,1.7c-20,11.8-30.1,33.4-30.1,64
				c0,4.5,0.3,11.4,1,21c0.6,9.4,1,16.7,1,21.6c0,11.7-3.6,21.6-10.7,29.5C478.3,457.6,469,462,457.3,463.1z"/>
		</g>
	</g>
	<g id="XMLID_2_">
		<path class="st3" d="M458,158.1c12.4,0.8,31.2,5.7,38.1,13.5c6.9,7.8,10.3,17.5,10.3,29.1c0,4.8-0.3,12-0.8,21.8
			c-0.5,9.8-0.8,17.2-0.8,22.2c0,32.5,10.6,55,31.7,67.7c-21.4,12.7-32.1,35.2-32.1,67.7c0,4.8,0.3,12,1,21.8c0.7,9.8,1,17.2,1,22.2
			c0,11.6-3.5,21.3-10.5,29.1c-7,7.8-25.8,12.9-38.2,13.7c0,0,15.3,0.8,29.2-5.3s20.4-17.5,22.8-26.2l5-70.5c0,0,1.4-16.8,9.4-29.6
			c8-12.8,17.2-18.4,24.2-20l0.2-5.8c0,0-14.2-5-20.6-15c-6.4-10-10.8-16.7-12.8-33.2s-5.3-64.1-5.6-70.3s-9.5-21.7-16.4-25.3
			C486,162.2,476.8,157.3,458,158.1z"/>
	</g>
	<g>
		<path class="st4" d="M549.8,319.6l-27.2-4.2c-1.3-0.2-2.2-1.3-2.2-2.6c0-1.3,0.9-2.4,2.2-2.6l27.2-4.2l0.8,5.1l-10.7,1.7l10.7,1.7
			L549.8,319.6z"/>
	</g>
	<g>
		<rect x="492" y="187" class="st4" width="19.5" height="5.2"/>
	</g>
	<g>
		<rect x="492.7" y="432.2" class="st4" width="18.4" height="5.2"/>
	</g>
	<g>
		
			<ellipse transform="matrix(0.8839 -0.4676 0.4676 0.8839 -69.8885 269.1168)" class="st14" cx="507.2" cy="275.3" rx="6.8" ry="8.7"/>
	</g>
	<g>
		
			<ellipse transform="matrix(0.8839 -0.4676 0.4676 0.8839 -63.2987 265.7609)" class="st14" cx="503.7" cy="260.4" rx="3.4" ry="4.3"/>
	</g>
	<g>
		
			<ellipse transform="matrix(0.961 -0.2765 0.2765 0.961 -128.5748 102.5194)" class="st14" cx="299.3" cy="507.2" rx="7.6" ry="3.8"/>
	</g>
	<g>
		
			<ellipse transform="matrix(0.961 -0.2765 0.2765 0.961 -125.7659 104.3045)" class="st14" cx="307" cy="498.1" rx="4.2" ry="2.1"/>
	</g>
	<g>
		<ellipse class="st16" cx="324.5" cy="551" rx="80" ry="7"/>
	</g>
	<g>
		<circle class="st6" cx="202.1" cy="293" r="10.7"/>
	</g>
	<g>
		<circle class="st6" cx="459.6" cy="322" r="5.7"/>
	</g>
	<g>
		<circle class="st6" cx="455.5" cy="304.5" r="2.4"/>
	</g>
</g>
<g>
	<g>
		<circle class="st17" cx="916.4" cy="314.8" r="285.8"/>
	</g>
	<g>
		<circle class="st18" cx="913.4" cy="242.3" r="156.3"/>
	</g>
	<g id="XMLID_23_">
		<path class="st19" d="M843.6,256.1l21.2,5.5c0,0,10.1-36.5,35.8-27.1s45.9-7.2,45.9-7.2c7.6,29.5-33.3,44.4-75.9,76.6
			c-20.7,15.6-20.5,74.5-20.5,74.5l140.1-0.1c0,0,4.7-2.2,8.9-5c5.3-3.5,10.2-7.9,10.2-7.9s-6.1-22.1-6.4-36.7
			c-0.5-26.1,21.3-65.8,18.8-123.4c-2.5-57.6-69.5-73.8-69.5-73.8c14.1-13.8-20.2-38.9-20.2-38.9v41.1c-36.9,2.4-52,24.8-52,24.8
			l4.9,16.2c0,0-46.3,41.3-58,50.5c-11.7,9.2,5.2,34.2,5.2,34.2L843.6,256.1z"/>
	</g>
	<g id="XMLID_21_">
		<g id="XMLID_22_">
			<path class="st20" d="M784.4,156.7c-30.9-0.3-49.7,11-56.4,33.6c-1.5,22.9-3.2,45.8-5,68.4c-2.3,27.6-13.7,44.7-34,51.4v8.5
				c19.6,6.7,30.9,23.6,34,50.6c1.8,22.7,3.6,45.4,5.4,68c5.7,22.9,21.9,34.4,48.7,34.4h7v-7.3c-12.1-0.8-21.5-5-28.2-12.6
				c-6.7-7.6-10.1-17.1-10.1-28.4c0-4.6,0.3-11.7,0.8-21.3c0.5-9.5,0.8-16.8,0.8-21.7c0-31.7-10.3-53.7-30.9-66.1
				c20.9-12.4,31.3-34.4,31.3-66.1c0-4.6-0.3-11.7-1-21.3c-0.6-9.5-1-16.8-1-21.7c0-11.3,3.4-20.8,10.2-28.4
				c6.8-7.6,16.3-11.8,28.4-12.6V156.7z"/>
			<path class="st21" d="M784,473.8h-7c-27.7,0-44.7-12.1-50.6-35.9c0-0.1,0-0.2-0.1-0.3c-1.8-22.7-3.6-45.4-5.4-68
				c-3-26-14-42.5-32.7-49c-0.8-0.3-1.3-1-1.3-1.9v-8.5c0-0.8,0.5-1.6,1.3-1.9c19.7-6.5,30.4-22.8,32.7-49.7
				c1.8-22.9,3.5-45.9,5-68.4c0-0.1,0-0.3,0.1-0.4c6.9-23.3,26.2-35,57.3-35c0.3,0,0.7,0,1,0c1.1,0,1.9,0.9,1.9,2v7.7
				c0,1-0.8,1.9-1.8,2c-11.5,0.7-20.6,4.7-27.1,11.9s-9.7,16.3-9.7,27.1c0,4.9,0.3,12.1,1,21.5c0.7,9.7,1,16.7,1,21.4
				c0,30.9-10,53.1-29.6,66.1c19.4,13,29.2,35.2,29.2,66.1c0,4.9-0.3,12.2-0.8,21.8c-0.5,9.4-0.8,16.5-0.8,21.2
				c0,10.8,3.2,19.9,9.6,27.1c6.3,7.2,15.4,11.2,26.9,11.9c1,0.1,1.8,0.9,1.8,2v7.3C785.9,472.9,785.1,473.8,784,473.8z
				 M730.2,437.1c5.5,22,20.8,32.8,46.8,32.8h5v-3.6c-11.7-1.1-21.1-5.5-27.7-13.1c-7-7.9-10.5-17.9-10.5-29.7
				c0-4.7,0.3-11.9,0.8-21.4s0.8-16.7,0.8-21.5c0-30.8-10.1-52.5-30-64.4c-0.6-0.4-1-1-1-1.7s0.4-1.3,1-1.7
				c20.1-11.9,30.4-33.6,30.4-64.4c0-4.6-0.3-11.5-1-21.1c-0.6-9.5-1-16.8-1-21.8c0-11.8,3.6-21.8,10.7-29.7
				c6.8-7.6,16.2-12,27.9-13.1v-4c-29,0.2-46.2,10.7-52.5,32c-1.5,22.4-3.2,45.4-5,68.2c-2.3,27.7-13.8,45.4-34,52.7v5.7
				c19.5,7.2,30.9,24.7,34,51.8C726.6,391.8,728.4,414.4,730.2,437.1z"/>
		</g>
	</g>
	<g id="XMLID_20_">
		<path class="st22" d="M826.2,253.1l21.2,5.5c0,0,10.1-36.5,35.8-27.1s45.9-7.2,45.9-7.2c7.6,29.5-33.3,44.4-75.9,76.6
			c-20.7,15.6-20.5,74.5-20.5,74.5l164.4-0.1c-0.7-0.9-11-22.5-11.6-49.5c-0.5-26.1,21.3-65.8,18.8-123.4
			c-2.5-57.7-69.5-73.8-69.5-73.8c14.1-13.8-20.3-38.9-20.3-38.9v41.1c-36.9,2.4-52,24.8-52,24.8l4.9,16.2c0,0-46.3,41.3-58,50.5
			c-11.7,9.2,5.2,34.2,5.2,34.2L826.2,253.1z"/>
		<path class="st21" d="M832.7,377.3c-1.1,0-2-0.9-2-2c0-2.4,0-60,21.2-76.1c11-8.3,22.1-15.6,31.9-22.1
			c26.9-17.7,46.6-30.7,43.8-49.6c-6.4,4.2-23.9,13.5-45.3,5.7c-5.7-2.1-10.9-1.9-15.7,0.6c-12.2,6.3-17.5,25-17.6,25.2
			c-0.3,1-1.3,1.6-2.4,1.4L826,255l-11,3.2c-0.8,0.2-1.7-0.1-2.2-0.8c-0.7-1.1-17.8-26.6-4.8-36.8c10.6-8.4,50.3-43.7,57-49.6
			l-4.6-15c-0.2-0.6-0.1-1.2,0.3-1.7c0.6-0.9,15.6-22.4,51.6-25.5V89.6c0-0.7,0.4-1.4,1.1-1.7c0.7-0.3,1.4-0.3,2,0.2
			c1,0.7,23.4,17.2,24.4,31.6c0.2,2.9-0.4,5.5-1.9,7.8c13.1,4,65.8,23.4,68,74.8c1.5,35.3-5.9,63.8-12,86.7
			c-3.8,14.4-7,26.8-6.8,36.8c0.5,25.2,9.9,46.2,11.3,48.5c0.4,0.6,0.4,1.4,0,2c-0.3,0.6-1,1-1.7,1H832.7L832.7,377.3z M929.1,222.3
			c0.2,0,0.4,0,0.6,0.1c0.6,0.2,1.1,0.7,1.3,1.4c6,23.2-16.5,38-44.9,56.7c-9.7,6.4-20.8,13.7-31.7,21.9
			c-17.6,13.3-19.5,60.7-19.7,71l159.3-0.1c-3.2-7.2-10-25.8-10.4-47.5c-0.2-10.5,3.1-23.2,6.9-37.8c5.9-22.6,13.3-50.8,11.8-85.5
			c-2.4-55.5-67.3-71.8-68-72s-1.2-0.7-1.4-1.4c-0.2-0.7,0-1.4,0.5-1.9c2.1-2,3-4.4,2.8-7.2c-0.7-9.6-13.6-21.3-19.7-26.2v37.1
			c0,1-0.8,1.9-1.8,2c-31.8,2.1-47,19.4-49.9,23.2l4.6,15.3c0.2,0.7,0,1.5-0.6,2c-1.9,1.7-46.4,41.4-58.1,50.6
			c-5.1,4-3.5,12.2-1.2,18.3c2,5.2,4.7,9.9,6,12l10.1-3c0.3-0.1,0.7-0.1,1,0l19.3,5c1.7-5.2,7.5-19.9,19-25.8
			c5.8-3,12.1-3.2,18.9-0.8c24.3,8.8,43.8-6.7,44-6.9C928.2,222.5,928.6,222.3,929.1,222.3z"/>
	</g>
	<g id="XMLID_19_">
		<path class="st23" d="M1004.3,389.5L1004.3,389.5c0-2.5-2-4.5-4.5-4.5H832.1c-2.5,0-4.5,2-4.5,4.5l0,0c0,2.5,2,4.5,4.5,4.5h167.7
			C1002.3,394,1004.3,392,1004.3,389.5z"/>
		<path class="st21" d="M999.8,396H832.1c-3.6,0-6.5-2.9-6.5-6.5s2.9-6.5,6.5-6.5h167.7c3.6,0,6.5,2.9,6.5,6.5S1003.4,396,999.8,396
			z M832.1,387c-1.4,0-2.5,1.1-2.5,2.5s1.1,2.5,2.5,2.5h167.7c1.4,0,2.5-1.1,2.5-2.5s-1.1-2.5-2.5-2.5H832.1z"/>
	</g>
	<g id="XMLID_18_">
		<path class="st23" d="M1015,436.1l-9.5-28.9c0-1.6-1.3-2.8-2.8-2.8h-171c-1.6,0-2.8,1.3-2.8,2.8l-9.5,28.9c0,1.6,1.3,2.8,2.8,2.8
			h190C1013.7,438.9,1015,437.6,1015,436.1z"/>
		<path class="st21" d="M1012.2,440.9h-190c-2.7,0-4.8-2.2-4.8-4.8c0-0.2,0-0.4,0.1-0.6l9.4-28.6c0.2-2.5,2.3-4.5,4.8-4.5h171
			c2.5,0,4.6,2,4.8,4.5l9.4,28.6c0.1,0.2,0.1,0.4,0.1,0.6C1017,438.7,1014.8,440.9,1012.2,440.9z M821.3,436.3
			c0.1,0.4,0.5,0.7,0.9,0.7h190c0.4,0,0.8-0.3,0.9-0.7l-9.4-28.5c-0.1-0.2-0.1-0.4-0.1-0.6c0-0.5-0.4-0.9-0.9-0.9h-171
			c-0.5,0-0.9,0.4-0.9,0.9c0,0.2,0,0.4-0.1,0.6L821.3,436.3z"/>
	</g>
	<g id="XMLID_17_">
		<path class="st24" d="M969.9,511.8c0,0-31.1-19.4-31.1-32.6s14.6-25.7,14.6-25.7c0-1.6-2.3-5.8-2.7-5.8h-33.5h-33.5
			c-0.4,0-2.7,4.2-2.7,5.8c0,0,14.6,12.6,14.6,25.7s-31.1,32.6-31.1,32.6c-2.1,3.5,1.1,5.8,1.5,5.8h51.2h51.2
			C968.8,517.6,972,515.3,969.9,511.8z"/>
		<path class="st21" d="M968.4,519.5H866c-1.3,0-2.7-1.3-3.5-2.6c-1.1-1.9-1-4,0.2-6.1c0.2-0.3,0.4-0.5,0.6-0.7
			c8.4-5.2,30.2-21,30.2-30.9c0-12.1-13.7-24.1-13.9-24.2c-0.4-0.4-0.7-0.9-0.7-1.5c0-1.4,2.2-7.7,4.6-7.7h67c2.4,0,4.6,6.3,4.6,7.7
			c0,0.6-0.2,1.1-0.7,1.5c-0.1,0.1-13.9,12.2-13.9,24.2c0,9.9,21.8,25.7,30.2,30.9c0.3,0.2,0.5,0.4,0.6,0.7c1.2,2.1,1.3,4.2,0.2,6.1
			C971.1,518.2,969.6,519.5,968.4,519.5z M866.6,515.8L866.6,515.8L866.6,515.8z M967.7,515.8L967.7,515.8L967.7,515.8z
			 M866.4,515.6h101.5c0.2-0.2,0.6-0.6,0.7-1.1c0.1-0.4,0.1-0.9-0.2-1.4c-4.9-3.1-31.6-20.6-31.6-33.9c0-12.1,11.1-23.4,14.4-26.4
			c-0.3-0.9-1-2.3-1.5-3.1h-65.2c-0.5,0.8-1.1,2.2-1.5,3.1c3.2,3,14.4,14.3,14.4,26.4c0,13.3-26.7,30.9-31.6,33.9
			c-0.2,0.5-0.3,0.9-0.2,1.4C865.9,515,866.2,515.4,866.4,515.6z"/>
	</g>
	<g>
		
			<ellipse transform="matrix(0.357 -0.9341 0.9341 0.357 467.8156 979.9972)" class="st25" cx="945.7" cy="150.2" rx="9.9" ry="15.2"/>
	</g>
	<g>
		
			<ellipse transform="matrix(0.357 -0.9341 0.9341 0.357 467.6659 1014.2456)" class="st25" cx="970.5" cy="167.4" rx="4.8" ry="7.5"/>
	</g>
	<g>
		
			<ellipse transform="matrix(0.9129 -0.4081 0.4081 0.9129 13.6707 373.5531)" class="st25" cx="882.3" cy="154.7" rx="7.5" ry="4.8"/>
	</g>
	<g>
		<ellipse class="st26" cx="915.1" cy="548.8" rx="80.6" ry="7.1"/>
	</g>
	<g>
		<circle class="st27" cx="868.2" cy="65.9" r="8.7"/>
	</g>
	<g>
		<circle class="st27" cx="846.2" cy="76.9" r="3.3"/>
	</g>
	<g>
		<circle class="st27" cx="791.8" cy="289" r="10.8"/>
	</g>
	<g>
		<circle class="st27" cx="1051.3" cy="318.1" r="5.7"/>
	</g>
	<g>
		<circle class="st27" cx="1047.1" cy="300.5" r="2.4"/>
	</g>
	<g>
		<path class="st23" d="M917.4,449.8v65.8h50.5c0,0,1.2-0.7,0.7-2.4c0,0-11.8-7.8-17.1-12.5c0,0-8.2-7.2-12.4-14c0,0-2.6-4-2.1-9.1
			s3.1-11.9,8.4-18.3c0,0,3.2-4.1,5.9-6.3c0,0-0.8-2.1-1.6-3.3L917.4,449.8z"/>
	</g>
	<g>
		<g>
			<polygon class="st28" points="934,502.7 917.3,510.7 900.6,502.7 900.6,494.2 917.3,502 934,494.2 			"/>
			<path class="st21" d="M917.3,512.8l-18.6-9V491l18.6,8.7L936,491v12.9L917.3,512.8z M902.5,501.4l14.7,7.1l14.7-7.1v-4.1
				l-14.7,6.9l-14.7-6.9V501.4z"/>
		</g>
		<g>
			<polygon class="st20" points="932,501.7 932,499.7 917.3,506.5 902.5,499.7 902.5,501.8 917.2,508.8 			"/>
		</g>
	</g>
	<g>
		<g>
			<polygon class="st28" points="934,485.1 917.3,493.1 900.6,485.1 900.6,476.7 917.3,484.4 934,476.7 			"/>
			<path class="st21" d="M917.3,495.3l-18.7-9v-12.8l18.7,8.7l18.6-8.7v12.8L917.3,495.3z M902.6,483.9l14.7,7.1l14.7-7.1v-4.1
				l-14.7,6.9l-14.7-6.9V483.9z"/>
		</g>
		<g>
			<polygon class="st20" points="932,484.2 932,482.2 917.4,489 902.6,482.1 902.5,484.2 917.3,491.2 			"/>
		</g>
	</g>
	<g>
		<path class="st29" d="M884.7,449.7h64.9l1.6,3.2c0,0-17.6,4.2-34.1,4.2s-34.1-4.4-34.1-4.4L884.7,449.7z"/>
	</g>
	<g>
		
			<ellipse transform="matrix(0.961 -0.2765 0.2765 0.961 -106.2385 264.0436)" class="st30" cx="883.2" cy="508.8" rx="7.6" ry="3.8"/>
	</g>
	<g>
		
			<ellipse transform="matrix(0.961 -0.2765 0.2765 0.961 -103.4168 265.8477)" class="st30" cx="891" cy="499.6" rx="4.2" ry="2.1"/>
	</g>
	<g>
		<path class="st30" d="M916.5,93.7c0,0,8.1,5.9,14.5,14.5c6.4,8.6,5.6,13.4,4.6,15.9c0,0-1.1,2.3-2.6,3.6l-16.3-23.5
			C916.6,104.3,916.5,94.7,916.5,93.7z"/>
	</g>
	<g>
		<polygon class="st24" points="831.1,406.2 1012.7,436.8 1003.2,406.2 		"/>
	</g>
	<g>
		
			<ellipse transform="matrix(0.4178 -0.9085 0.9085 0.4178 104.1247 1008.2332)" class="st24" cx="838.8" cy="422.9" rx="7.6" ry="3.8"/>
	</g>
	<g>
		
			<ellipse transform="matrix(0.4178 -0.9085 0.9085 0.4178 109.6266 1021.1311)" class="st24" cx="851.6" cy="425" rx="4.2" ry="2.1"/>
	</g>
	<g>
		<g>
			<path class="st31" d="M865.4,166.7l52.3-14.9c0,0,3.4-1.2,9.2,1c5.8,2.2,29.9,10.7,29.9,10.7l-2.5,29.7L943,204.8
				c0,0-1.4,1.6-9,2.6c-7.6,1-24.1,1.7-24.1,1.7s-3.6-0.4-7.2-2.6c-3.6-2.2-26.1-15.1-27.5-16.5c-1.4-1.4-2.2-1.4-2.2-4.8
				s-1.4-11.9-1.4-11.9l-8.2,0.4l-0.4-6.6L865.4,166.7z"/>
			<path class="st21" d="M909.8,210.9L909.8,210.9c-0.3,0-4.2-0.5-8.1-2.8c-1-0.6-3.6-2.1-6.7-3.9c-13.5-7.9-20.2-11.8-21.2-12.8
				c-0.2-0.2-0.4-0.4-0.6-0.5c-1.4-1.2-2.2-2.2-2.2-5.6c0-2.3-0.7-7.3-1.1-9.9l-8.3,0.4l-0.6-10.3l4-0.7l52.2-14.8
				c0.3-0.1,4.1-1.3,10.4,1c5.7,2.1,29.6,10.6,29.9,10.7l1.4,0.5l-2.7,31.9l-11.8,12.1c-0.5,0.6-2.6,2.2-10.1,3.2
				c-7.6,1-23.6,1.6-24.3,1.7L909.8,210.9z M873.2,171.2l0.3,1.7c0.1,0.4,1.4,8.8,1.5,12.3c0,1.9,0.2,2.1,0.9,2.7
				c0.2,0.2,0.5,0.4,0.8,0.7c1.2,1,13.7,8.3,20.4,12.2c3.2,1.9,5.7,3.3,6.8,4c2.8,1.7,5.6,2.2,6.2,2.3c1.8-0.1,16.8-0.7,23.7-1.6
				c6.2-0.8,7.8-2,7.9-2.1l10.8-11l2.3-27.5c-5.3-1.9-23.6-8.3-28.5-10.2c-4.9-1.8-7.8-1-7.8-1l-52.6,14.9l-0.6,0.1l0.2,2.9
				L873.2,171.2z M941.5,203.3c-0.1,0.1-0.1,0.1-0.1,0.1L941.5,203.3z"/>
		</g>
		<g>
			<path class="st32" d="M878.7,175.1c0,0-0.4-4.5,3.8-5.4s32.7-9.6,32.7-9.6s2.5-1.3,6.5-0.3s22.2,7.9,22.2,7.9s3.6,1,3.4,4.2
				s-1.2,14-1.2,14s-0.5,2.8-2.2,4.5s-7.5,8.1-9.4,8.9c-1.9,0.8-23.4,1.6-24,1.6c-0.7,0-26.2-14.1-28.5-15.7
				C879.9,183.7,879,176.7,878.7,175.1z"/>
			<path class="st21" d="M910.6,202.9c-1.8,0-29.4-15.8-29.6-16c-2.4-1.7-3.5-6.5-4.2-11l-0.1-0.6c-0.2-2.1,0.7-6.5,5.3-7.5
				c4-0.9,30.3-8.9,32.5-9.5c0.8-0.4,3.6-1.4,7.7-0.3c3.9,1,21,7.4,22.3,7.9c1.8,0.5,4.9,2.5,4.8,6.2c-0.1,3.2-1.1,13.7-1.2,14.1
				v0.2c-0.1,0.3-0.7,3.4-2.8,5.5c-0.3,0.3-0.8,0.9-1.4,1.5c-4.3,4.6-7,7.1-8.5,7.8C933,202.1,910.8,202.9,910.6,202.9L910.6,202.9z
				 M880.7,174.9l0.1,0.4c1.1,6.9,2.2,8.2,2.6,8.4c2,1.4,24.6,13.9,27.7,15.3c3.3-0.1,21-0.9,23-1.5c1.1-0.5,5.5-5.2,7.2-6.9
				c0.6-0.6,1.1-1.2,1.5-1.5c1-1,1.5-2.7,1.7-3.4c0.1-1.1,1-10.9,1.1-13.8c0.1-1.6-2-2.2-2.1-2.3c-0.3-0.1-18.3-6.8-22.2-7.9
				c-3.1-0.8-5,0.1-5.1,0.1l-0.3,0.1c-1.2,0.4-28.6,8.7-32.9,9.6C880.6,172.1,880.6,174.4,880.7,174.9z"/>
		</g>
		<g>
			<path class="st33" d="M893.3,186.7l15.9-23.1c0,0-26.3,7.4-27.7,8.4c-1.4,1-1.3,1.7-1.3,2.6s0.7,4.2,0.9,5.2L893.3,186.7z"/>
		</g>
		<g>
			<polygon class="st33" points="905.9,194.2 910.7,196.6 914.2,196.5 934.8,165.8 926.5,162.9 			"/>
		</g>
		<g>
			<path class="st33" d="M924.7,196c0,0,7.9-0.1,8.7-0.5c0.7-0.4,11.6-11.5,11.6-11.5s1.1-12.2,1.1-12.8c-0.1-0.5-1.5-2-3.2-2.6
				L924.7,196z"/>
		</g>
		<g class="st34">
			<path class="st35" d="M914.8,164.8c0,0,3.1-1.3,6.6-0.1s24.4,9,24.4,9s0.5-2.4-0.3-3.3c-0.9-0.9-3.6-2-5-2.4
				c-1.4-0.4-17.7-6.4-19.3-6.8s-3.8-0.4-4.9,0.1c-1.1,0.4-33,9.7-35.6,11.2c0,0-1,1.5-0.7,2.9L914.8,164.8z"/>
		</g>
		<g>
			<path class="st36" d="M865.2,168l53.2-14.9c0,0,3.6-0.8,6.3,0.4c2.7,1.2,29.8,10.9,29.8,10.9l-0.1,2.2l-29.9-11
				c0,0-3.5-1.2-7.1-0.1c-3.6,1.1-52.3,14.8-52.3,14.8L865.2,168z"/>
		</g>
	</g>
	<g>
		<path class="st37" d="M993.5,168.2c0,0-1.5,4.8-10.8,9.9c-14,7.7-27.9,9.3-27.9,9.3l1.7-17.2c0,0,18.1-2.1,27.6-13.6
			C984,156.5,988,160.6,993.5,168.2z"/>
		<path class="st21" d="M952.5,189.5l2.1-21.2l1.6-0.2c0.2,0,17.4-2.1,26.3-12.9l1.4-1.7l1.5,1.5c0.2,0.2,4.3,4.3,9.7,11.9l0.6,0.8
			l-0.3,0.9c-0.2,0.6-2,5.7-11.8,11c-14.2,7.7-28,9.4-28.6,9.5L952.5,189.5z M958.2,171.8l-1.3,13.2c4.5-0.8,14.7-3.1,24.8-8.7
			c6.2-3.4,8.6-6.5,9.5-8c-3.1-4.2-5.7-7.3-7.2-9C975.6,168.2,962.7,171,958.2,171.8z"/>
	</g>
	<g>
		<path class="st27" d="M964.5,179.8l-6.8,1.5c-1,0.2-2-0.4-2.2-1.4l-0.4-1.8c-0.2-1,0.4-2,1.4-2.2l6.8-1.5c1-0.2,2,0.4,2.2,1.4
			l0.4,1.8C966.1,178.6,965.5,179.6,964.5,179.8z"/>
	</g>
	<g class="st38">
		<path class="st22" d="M979.4,163.4l7.9,9.2c0,0-2.3,1.9-4.4,3.1l-6.8-10.1L979.4,163.4z"/>
	</g>
	<g class="st38">
		<path class="st22" d="M980.2,162.8l3.8-3.3c0,0,3.3,3.5,7.1,9l-1.3,1.8c0,0-4.2-7.6-7.5-5.9L980.2,162.8z"/>
	</g>
	<g>
		<path class="st31" d="M956.9,161.9L967,128c0,0-4.7-2.2-7.6-0.4l-10.7,32L956.9,161.9z"/>
		<path class="st21" d="M958.3,164.3l-12.1-3.4l11.6-34.7l0.6-0.4c3.8-2.2,8.9,0.1,9.5,0.3l1.5,0.7L958.3,164.3z M951.2,158.2
			l4.4,1.2l9.1-30.3c-1.1-0.3-2.6-0.5-3.7-0.2L951.2,158.2z"/>
	</g>
	<g>
		<path class="st28" d="M962.7,128.8l-9.3,27c0,0-1.5,2.2,2.2,3.5l0.1,0.3c0,0-2.4,0.6-4-0.4c-0.7-0.4-1.4-1.2-0.7-3.3
			c0.7-2.1,9.2-26.8,9.2-26.8S961.2,128.6,962.7,128.8z"/>
	</g>
	<g>
		<polygon class="st21" points="891.2,235.5 844.1,214.2 844.8,190.9 848.7,191 848.1,211.7 892.8,231.9 		"/>
	</g>
	<g>
		<path class="st23" d="M844.5,194.6l-32.9,28.5c0,0-3.8,2.1-4.3,6.9c-0.5,4.8,2.9,17.2,8.2,24.1l10.7-3.1l19.7,5.2
			c0,0,5.8-14.7,11.7-20.2c6-5.6,10-7.4,16.7-8.1l-30.4-13.8L844.5,194.6z"/>
	</g>
	<g>
		
			<ellipse transform="matrix(0.9978 -6.655732e-02 6.655732e-02 0.9978 -14.6264 56.479)" class="st20" cx="840.3" cy="247.8" rx="5.4" ry="3.5"/>
	</g>
	<g>
		<ellipse transform="matrix(0.357 -0.9341 0.9341 0.357 320.5291 943.6879)" class="st20" cx="845.7" cy="239" rx="2.4" ry="1.5"/>
	</g>
	<g>
		<g>
			<polygon class="st28" points="837.6,198.5 840.3,221.3 832.1,219.2 829.9,205.2 			"/>
			<path class="st21" d="M842.6,223.9l-12.2-3l-2.5-16.4l11.2-9.8L842.6,223.9z M833.8,217.6l4.2,1l-2-16.2l-4,3.5L833.8,217.6z"/>
		</g>
		<g>
			<polygon class="st20" points="832.1,206 833.5,217.5 835.4,218 833.8,204.5 			"/>
		</g>
	</g>
	<g>
		<g>
			<polygon class="st28" points="824.1,210.2 826.3,227.9 819.9,226.3 818.2,215.4 			"/>
			<path class="st21" d="M828.5,230.5l-10.4-2.6l-2.1-13.3l9.6-8.3L828.5,230.5z M821.6,224.7l2.4,0.6l-1.4-11.2l-2.4,2L821.6,224.7
				z"/>
		</g>
		<g>
			<polygon class="st20" points="819.9,216.4 820.9,224.5 822.4,224.9 821.2,215.2 			"/>
		</g>
	</g>
	<g>
		<path class="st20" d="M931,223.1c0,0,4.1,13.6-5.3,25.4c-9.3,11.8-23,20.5-66.6,50.4c0,0-10.2,5.9-13.8,15.2
			c-3.7,9.3-11.2,34.1-10.4,59.1h158.7l-58.8-70.9L931,223.1z"/>
	</g>
	<g>
		<polygon class="st21" points="992.3,375.3 932.5,303.3 932.5,302.6 927.2,224.9 931.1,224.6 936.3,301.8 995.3,372.8 		"/>
	</g>
	<g>
		<polygon class="st24" points="932.3,303.2 834.9,373.3 990.4,373.3 		"/>
	</g>
	<g>
		
			<ellipse transform="matrix(0.8839 -0.4676 0.4676 0.8839 16.113 486.2238)" class="st20" cx="987.5" cy="210.7" rx="7.8" ry="12"/>
	</g>
	<g>
		<ellipse transform="matrix(0.8839 -0.4676 0.4676 0.8839 5.7208 489.5495)" class="st20" cx="989" cy="233.3" rx="4.7" ry="7.2"/>
	</g>
	<g>
		
			<ellipse transform="matrix(0.8839 -0.4676 0.4676 0.8839 4.176 477.5287)" class="st25" cx="964" cy="230.4" rx="12.3" ry="15.7"/>
	</g>
	<g>
		<ellipse transform="matrix(0.8914 -0.4532 0.4532 0.8914 -61.0484 465.149)" class="st20" cx="940.1" cy="360" rx="12" ry="7.8"/>
	</g>
	<g>
		
			<ellipse transform="matrix(0.8914 -0.4532 0.4532 0.8914 -54.455 461.2256)" class="st20" cx="935.2" cy="344.2" rx="6.4" ry="4.2"/>
	</g>
	<g>
		
			<ellipse transform="matrix(0.6527 -0.7576 0.7576 0.6527 58.8871 767.0355)" class="st39" cx="866.1" cy="319.3" rx="17.5" ry="12.8"/>
	</g>
	<g>
		
			<ellipse transform="matrix(0.6527 -0.7576 0.7576 0.6527 34.1038 761.1084)" class="st39" cx="847.2" cy="343.4" rx="5.4" ry="4.7"/>
	</g>
	<g>
		<polygon class="st29" points="934.1,305.2 990.6,373.3 977.8,373.3 925.4,311.4 		"/>
	</g>
	<g>
		<path class="st40" d="M928.4,244.4l4,58.6l-8.8,6.1l-3.7-54.6C919.9,254.5,928,246.3,928.4,244.4z"/>
	</g>
	<g>
		
			<rect x="821" y="336.9" transform="matrix(0.8133 -0.5818 0.5818 0.8133 -32.1922 577.439)" class="st21" width="125.5" height="3.9"/>
	</g>
	<g>
		
			<ellipse transform="matrix(0.2011 -0.9796 0.9796 0.2011 497.5187 1061.6541)" class="st20" cx="899.6" cy="225.8" rx="4.5" ry="6.9"/>
	</g>
	<g>
		
			<ellipse transform="matrix(0.2011 -0.9796 0.9796 0.2011 511.8093 1069.3351)" class="st20" cx="911.5" cy="220.9" rx="2.6" ry="4"/>
	</g>
	<g id="XMLID_16_">
		<path class="st22" d="M781.8,469.9c-12.5-0.8-31.5-5.7-38.4-13.6c-6.9-7.8-10.4-17.6-10.4-29.3c0-4.8,0.3-12.1,0.8-21.9
			s0.8-17.3,0.8-22.3c0-32.7-10.6-55.4-31.9-68.2c21.5-12.8,32.3-35.5,32.3-68.2c0-4.8-0.3-12.1-1-21.9c-0.7-9.8-1-17.3-1-22.3
			c0-11.7,3.5-21.5,10.6-29.3c7-7.8,26-13,38.5-13.8c0,0-15.4-0.8-29.4,5.3s-20.6,17.6-22.9,26.4l-5,71c0,0-1.4,17-9.4,29.8
			S698.1,310,691,311.5l-0.2,5.8c0,0,14.3,5,20.7,15.1c6.4,10.1,10.8,16.8,12.9,33.5c2,16.6,5.3,64.6,5.7,70.8
			c0.3,6.3,9.6,21.8,16.5,25.4C753.5,465.8,762.8,470.6,781.8,469.9z"/>
	</g>
	<g>
		<path class="st21" d="M689.3,321.3l-0.8-5.2l10.8-1.7l-10.8-1.7l0.8-5.2l27.5,4.3c1.3,0.2,2.2,1.3,2.2,2.6s-0.9,2.4-2.2,2.6
			L689.3,321.3z"/>
	</g>
	<g>
		<rect x="727.9" y="187.7" class="st21" width="19.6" height="5.2"/>
	</g>
	<g>
		<rect x="728.3" y="434.8" class="st21" width="18.5" height="5.2"/>
	</g>
	<g>
		
			<ellipse transform="matrix(0.8839 -0.4676 0.4676 0.8839 -79.5274 383.2378)" class="st25" cx="732.2" cy="351.8" rx="6.8" ry="8.7"/>
	</g>
	<g>
		
			<ellipse transform="matrix(0.8839 -0.4676 0.4676 0.8839 -86.1403 386.6012)" class="st25" cx="735.7" cy="366.8" rx="3.4" ry="4.3"/>
	</g>
	<g id="XMLID_14_">
		<g id="XMLID_15_">
			<path class="st20" d="M1044.5,472c30.9,0.3,49.7-11,56.4-33.6c1.5-22.9,3.2-45.8,5-68.4c2.3-27.6,13.7-44.7,34-51.4v-8.5
				c-19.6-6.7-30.9-23.6-34-50.6c-1.8-22.7-3.6-45.4-5.4-68c-5.7-22.9-21.9-34.4-48.7-34.4h-7v7.3c12.1,0.8,21.5,5,28.2,12.6
				c6.7,7.6,10.1,17.1,10.1,28.4c0,4.6-0.3,11.7-0.8,21.3c-0.5,9.5-0.8,16.8-0.8,21.7c0,31.7,10.3,53.7,30.9,66.1
				c-20.9,12.4-31.3,34.4-31.3,66.1c0,4.6,0.3,11.7,1,21.3c0.6,9.5,1,16.8,1,21.7c0,11.3-3.4,20.8-10.2,28.4
				c-6.8,7.6-16.3,11.8-28.4,12.6V472L1044.5,472z"/>
			<path class="st21" d="M1045.5,474c-0.3,0-0.7,0-1,0c-1.1,0-1.9-0.9-1.9-2v-7.7c0-1,0.8-1.9,1.8-2c11.5-0.7,20.6-4.7,27.1-11.9
				c6.5-7.2,9.7-16.3,9.7-27.1c0-4.9-0.3-12.1-1-21.5c-0.7-9.7-1-16.7-1-21.4c0-30.9,10-53.1,29.6-66.1
				c-19.4-13-29.2-35.2-29.2-66.1c0-4.9,0.3-12.1,0.8-21.8c0.5-9.4,0.8-16.5,0.8-21.2c0-10.8-3.2-19.9-9.6-27.1
				c-6.3-7.2-15.4-11.2-26.9-11.9c-1-0.1-1.8-0.9-1.8-2v-7.3c0-1.1,0.9-2,2-2h7c27.7,0,44.7,12.1,50.6,35.9c0,0.1,0,0.2,0.1,0.3
				c1.8,22.7,3.6,45.4,5.4,68c3,26,14,42.5,32.7,49c0.8,0.3,1.3,1,1.3,1.9v8.5c0,0.8-0.5,1.6-1.3,1.9c-19.7,6.5-30.4,22.8-32.7,49.7
				c-1.8,22.9-3.5,45.9-5,68.4c0,0.1,0,0.3-0.1,0.4C1095.9,462.2,1076.7,474,1045.5,474z M1046.5,466.1v4c29-0.2,46.2-10.7,52.5-32
				c1.5-22.4,3.2-45.4,5-68.2c2.3-27.7,13.8-45.4,34-52.7v-5.7c-19.5-7.2-30.9-24.7-34-51.8c-1.8-22.7-3.6-45.3-5.4-68
				c-5.5-22-20.8-32.8-46.8-32.8h-5v3.6c11.7,1.1,21.1,5.5,27.7,13.1c7,7.9,10.5,17.9,10.5,29.7c0,4.7-0.3,11.9-0.8,21.4
				s-0.8,16.7-0.8,21.5c0,30.8,10.1,52.5,30,64.4c0.6,0.4,1,1,1,1.7s-0.4,1.3-1,1.7c-20.1,11.9-30.4,33.6-30.4,64.4
				c0,4.6,0.3,11.5,1,21.1c0.6,9.5,1,16.8,1,21.8c0,11.8-3.6,21.8-10.7,29.7C1067.6,460.6,1058.2,465,1046.5,466.1z"/>
		</g>
	</g>
	<g id="XMLID_8_">
		<path class="st22" d="M1047.1,158.9c12.5,0.8,31.5,5.7,38.4,13.6c6.9,7.8,10.4,17.6,10.4,29.3c0,4.8-0.3,12.1-0.8,21.9
			c-0.5,9.8-0.8,17.3-0.8,22.3c0,32.7,10.6,55.4,31.9,68.2c-21.5,12.8-32.3,35.5-32.3,68.2c0,4.8,0.3,12.1,1,21.9
			c0.7,9.8,1,17.3,1,22.3c0,11.7-3.5,21.5-10.6,29.3c-7,7.8-26,13-38.5,13.8c0,0,15.4,0.8,29.4-5.3c14-6.1,20.6-17.6,22.9-26.4l5-71
			c0,0,1.4-17,9.4-29.8c8-12.9,17.3-18.5,24.3-20.1l0.2-5.8c0,0-14.3-5-20.7-15.1s-10.8-16.8-12.9-33.5s-5.3-64.6-5.7-70.8
			c-0.3-6.3-9.6-21.8-16.5-25.4C1075.3,162.9,1066.1,158.1,1047.1,158.9z"/>
	</g>
	<g>
		<path class="st21" d="M1139.6,321.1l-27.5-4.3c-1.3-0.2-2.2-1.3-2.2-2.6s0.9-2.4,2.2-2.6l27.5-4.3l0.8,5.2l-10.8,1.7l10.8,1.7
			L1139.6,321.1z"/>
	</g>
	<g>
		<rect x="1081.3" y="435.8" class="st21" width="19.6" height="5.2"/>
	</g>
	<g>
		<rect x="1082.1" y="188.7" class="st21" width="18.5" height="5.2"/>
	</g>
	<g>
		
			<ellipse transform="matrix(0.8839 -0.4676 0.4676 0.8839 -2.2446 544.9938)" class="st25" cx="1096.7" cy="277" rx="6.8" ry="8.7"/>
	</g>
	<g>
		
			<ellipse transform="matrix(0.8839 -0.4676 0.4676 0.8839 4.4042 541.5983)" class="st25" cx="1093.2" cy="261.9" rx="3.4" ry="4.3"/>
	</g>
</g>
<g>
	<g>
		<circle class="st41" cx="1509.2" cy="313.5" r="284.5"/>
	</g>
	<g>
		<circle class="st42" cx="1508.2" cy="228.4" r="155.6"/>
	</g>
	<g id="XMLID_41_">
		<path class="st43" d="M1436.6,257.6l21.2,5.5c0,0,10.1-36.5,35.9-27.2c25.8,9.4,46-7.2,46-7.2c7.6,29.6-33.4,44.5-76.1,76.7
			c-14.5,11-18.7,43.1-20,61.4c-0.5,7.9,18.2,9.1,18.2,9.1l81.4-1.9c0,0,23.2-1.5,31-5.3c11.3-5.5,25.2-16.1,25.2-16.1
			s-3-14.4-3.2-22.4c-0.5-26.1,21.3-65.9,18.8-123.7s-69.6-74-69.6-74c14.1-13.8-20.3-38.9-20.3-38.9v41.2
			c-36.9,2.4-52.1,24.8-52.1,24.8l4.9,16.3c0,0-46.3,41.4-58.1,50.6c-11.8,9.2,5.2,34.2,5.2,34.2L1436.6,257.6z"/>
	</g>
	<g id="XMLID_40_">
		<path class="st37" d="M1420.6,253.5l21.2,5.5c0,0,10.1-36.5,35.9-27.2c25.8,9.4,46-7.2,46-7.2c7.6,29.6-33.4,44.5-76.1,76.7
			c-20.7,15.7-20.5,74.6-20.5,74.6l164.7-0.1c-0.7-0.9-11.1-22.6-11.6-49.6c-0.5-26.1,21.3-65.9,18.8-123.7s-69.6-74-69.6-74
			c14.1-13.8-20.3-38.9-20.3-38.9v41.2c-36.9,2.4-52.1,24.8-52.1,24.8l4.9,16.3c0,0-46.3,41.4-58.1,50.6
			c-11.7,9.2,5.2,34.2,5.2,34.2L1420.6,253.5z M1599,390.2L1599,390.2c0-2.5-2-4.5-4.5-4.5h-168c-2.5,0-4.5,2-4.5,4.5l0,0
			c0,2.5,2,4.5,4.5,4.5h168C1597,394.7,1599,392.7,1599,390.2z M1609.8,436.8l-9.5-28.9c0-1.6-1.3-2.9-2.9-2.9h-171.3
			c-1.6,0-2.9,1.3-2.9,2.9l-9.5,28.9c0,1.6,1.3,2.9,2.9,2.9H1607C1608.5,439.7,1609.8,438.4,1609.8,436.8z"/>
		<path class="st21" d="M1606.9,441.6h-190.4c-2.6,0-4.8-2.2-4.8-4.8v-0.3l9.5-29c0.2-2.5,2.3-4.5,4.8-4.5h171.4
			c2.5,0,4.6,2,4.8,4.5l9.5,29v0.3C1611.7,439.5,1609.6,441.6,1606.9,441.6z M1415.7,437c0.1,0.4,0.5,0.7,0.9,0.7H1607
			c0.4,0,0.8-0.3,0.9-0.7l-9.5-28.8v-0.3c0-0.5-0.4-0.9-0.9-0.9h-171.4c-0.5,0-0.9,0.4-0.9,0.9v0.3L1415.7,437z M1594.5,396.7h-168
			c-3.6,0-6.5-2.9-6.5-6.5s2.9-6.5,6.5-6.5h168c3.6,0,6.5,2.9,6.5,6.5S1598.1,396.7,1594.5,396.7z M1426.5,387.6
			c-1.4,0-2.6,1.1-2.6,2.6c0,1.4,1.1,2.6,2.6,2.6h168c1.4,0,2.6-1.1,2.6-2.6c0-1.4-1.1-2.6-2.6-2.6H1426.5z M1425.2,377.9V376
			c0-2.4,0-60.1,21.3-76.2c11.1-8.4,22.2-15.7,32-22.1c26.9-17.7,46.7-30.7,43.9-49.7c-6.4,4.2-23.9,13.5-45.4,5.7
			c-5.7-2.1-11-1.9-15.8,0.6c-12.2,6.3-17.5,25.1-17.6,25.3l-0.5,1.8l-22.5-5.9l-12.3,3.6l-0.8-1.2c-0.7-1.1-17.8-26.6-4.8-36.9
			c10.6-8.4,50.5-43.8,57.1-49.7l-4.8-16l0.5-0.8c0.2-0.2,4.1-6,12.7-12c7.6-5.3,20.5-11.9,39.1-13.5V85.9l3.1,2.3
			c1,0.7,23.4,17.3,24.5,31.6c0.2,2.9-0.4,5.5-1.9,7.8c13.1,4,65.9,23.4,68.2,74.9c1.5,35.4-6,63.9-12,86.9
			c-3.8,14.4-7,26.8-6.8,36.8c0.5,25.2,9.9,46.3,11.3,48.6l1.8,3l-3.4,0.1H1425.2z M1524.8,221.2l0.8,3c6,23.3-16.5,38.1-45,56.8
			c-9.8,6.4-20.8,13.7-31.8,22c-17.7,13.3-19.5,60.9-19.7,71.1l159.6-0.1c-3.2-7.2-10-25.8-10.5-47.7c-0.2-10.5,3.1-23.2,7-37.9
			c6-22.7,13.4-50.9,11.8-85.7c-2.4-55.7-67.4-72-68.1-72.1l-3.4-0.8l2.5-2.5c2.1-2,3-4.4,2.8-7.2c-0.7-9.6-13.7-21.3-19.8-26.3v39
			l-1.8,0.1c-31.7,2.1-47.1,19.5-50,23.2l5,16.5l-0.9,0.8c-1.9,1.7-46.5,41.5-58.2,50.7c-8,6.3,0.2,23.1,4.8,30.4l10.6-3.1l19.9,5.2
			c1.7-5.2,7.5-20,19-25.8c5.8-3,12.1-3.3,18.9-0.8c24.4,8.9,43.9-6.7,44.1-6.9L1524.8,221.2z"/>
	</g>
	<g>
		<path class="st44" d="M1559.4,143.2c0,0-6.4,15.8-3.6,24.7c6.2,19.7-3.5,41-13.2,52.2c-9.6,11.1-22.8,39.5-18.2,73.9
			s-34.4,67.9-55.7,73.9c-21.3,6.1-38.3-13-38.3-13l-1.4,18.6l159.5,0.2c0,0-12.4-32.5-10-52.3s12.9-55.1,15-67.8s5.5-42.7,3.1-56.3
			c-2.4-13.6-6.2-28.2-21.7-42C1559.2,141.5,1559.4,143.2,1559.4,143.2z"/>
	</g>
	<g>
		<circle class="st27" cx="1456.5" cy="102.3" r="8.7"/>
	</g>
	<g>
		<circle class="st27" cx="1434.5" cy="113.2" r="3.3"/>
	</g>
	<g>
		<polygon class="st45" points="1426,407.2 1606.7,437.6 1597.3,407.2 		"/>
	</g>
	<g>
		
			<ellipse transform="matrix(0.4178 -0.9085 0.9085 0.4178 449.6611 1549.0875)" class="st45" cx="1433.5" cy="423.7" rx="7.6" ry="3.8"/>
	</g>
	<g>
		
			<ellipse transform="matrix(0.4178 -0.9085 0.9085 0.4178 455.1104 1562.0507)" class="st45" cx="1446.4" cy="425.9" rx="4.2" ry="2.1"/>
	</g>
	<g>
		<path class="st46" d="M1597.2,190.2"/>
	</g>
	<g>
		<ellipse transform="matrix(0.866 -0.5 0.5 0.866 113.9789 816.8765)" class="st47" cx="1581.3" cy="195.8" rx="6.9" ry="12.6"/>
	</g>
	<g>
		<ellipse transform="matrix(0.866 -0.5 0.5 0.866 125.0796 811.3372)" class="st47" cx="1576.5" cy="172.3" rx="2.9" ry="5.3"/>
	</g>
	<g>
		
			<ellipse transform="matrix(0.7349 -0.6781 0.6781 0.7349 168.8427 1070.085)" class="st45" cx="1453.3" cy="319.1" rx="10.3" ry="6.9"/>
	</g>
	<g>
		<ellipse transform="matrix(0.866 -0.5 0.5 0.866 44.4242 773.0825)" class="st45" cx="1464.8" cy="303.6" rx="4.1" ry="2.8"/>
	</g>
	<g id="XMLID_38_">
		<g id="XMLID_39_">
			<path class="st48" d="M1376.9,156.7c-30.8-0.3-49.5,10.9-56.2,33.5c-1.5,22.8-3.2,45.5-5,68.1c-2.3,27.5-13.6,44.5-33.9,51.2v8.5
				c19.5,6.7,30.8,23.5,33.9,50.4c1.8,22.6,3.6,45.2,5.4,67.7c5.6,22.8,21.8,34.3,48.5,34.3h6.9v-7.3c-12.1-0.8-21.4-4.9-28.1-12.5
				c-6.7-7.6-10-17-10-28.3c0-4.6,0.3-11.7,0.8-21.2s0.8-16.7,0.8-21.6c0-31.6-10.3-53.5-30.8-65.8c20.8-12.3,31.2-34.3,31.2-65.8
				c0-4.6-0.3-11.7-1-21.2c-0.6-9.5-1-16.7-1-21.6c0-11.3,3.4-20.7,10.2-28.3c6.8-7.6,16.2-11.7,28.3-12.5V156.7L1376.9,156.7z"/>
			<path class="st21" d="M1376.5,472.3h-6.9c-27.6,0-44.5-12-50.4-35.7c0-0.1,0-0.2-0.1-0.3c-1.8-22.6-3.6-45.2-5.4-67.7
				c-3-25.9-13.9-42.3-32.6-48.7c-0.8-0.3-1.3-1-1.3-1.8v-8.5c0-0.8,0.5-1.6,1.3-1.9c19.6-6.5,30.3-22.7,32.5-49.5
				c1.8-22.8,3.5-45.7,5-68.1c0-0.1,0-0.3,0.1-0.4c6.9-23.4,26.5-35.1,58.1-34.9c1.1,0,1.9,0.9,1.9,1.9v7.7c0,1-0.8,1.9-1.8,1.9
				c-11.5,0.7-20.5,4.7-27,11.9c-6.4,7.2-9.7,16.2-9.7,27c0,4.8,0.3,12.1,1,21.4c0.7,9.7,1,16.7,1,21.3c0,30.8-9.9,52.9-29.5,65.8
				c19.3,12.9,29.1,35,29.1,65.8c0,4.9-0.3,12-0.8,21.7c-0.5,9.3-0.8,16.4-0.8,21.1c0,10.8,3.2,19.8,9.5,27
				c6.3,7.1,15.3,11.1,26.8,11.9c1,0.1,1.8,0.9,1.8,1.9v7.3C1378.5,471.4,1377.6,472.3,1376.5,472.3z M1323,435.8
				c5.5,21.9,20.7,32.6,46.6,32.6h5v-3.6c-11.7-1.1-21-5.5-27.6-13c-7-7.9-10.5-17.9-10.5-29.6c0-4.7,0.3-11.9,0.8-21.3
				c0.5-9.5,0.8-16.7,0.8-21.4c0-30.7-10-52.3-29.8-64.1c-0.6-0.4-0.9-1-0.9-1.7s0.4-1.3,1-1.7c20.1-11.9,30.2-33.5,30.2-64.1
				c0-4.6-0.3-11.4-1-21c-0.6-9.5-1-16.8-1-21.7c0-11.7,3.6-21.7,10.7-29.6c6.8-7.5,16.1-11.9,27.8-13v-3.9
				c-28.8,0.2-45.9,10.7-52.3,31.9c-1.5,22.4-3.2,45.2-5,67.9c-2.3,27.6-13.7,45.2-33.9,52.4v5.7c19.4,7.2,30.8,24.6,33.9,51.6
				C1319.4,390.7,1321.2,413.2,1323,435.8z"/>
		</g>
	</g>
	<g id="XMLID_37_">
		<path class="st37" d="M1374.3,468.4c-12.4-0.8-31.3-5.7-38.2-13.5c-6.9-7.8-10.3-17.5-10.3-29.2c0-4.8,0.3-12,0.8-21.8
			s0.8-17.2,0.8-22.2c0-32.6-10.6-55.2-31.8-67.9c21.4-12.7,32.2-35.3,32.2-67.9c0-4.8-0.3-12-1-21.8s-1-17.2-1-22.2
			c0-11.6,3.5-21.4,10.5-29.2s25.9-13,38.3-13.8c0,0-15.3-0.8-29.2,5.3s-20.5,17.5-22.8,26.3l-5,70.7c0,0-1.4,16.9-9.4,29.7
			s-17.2,18.5-24.2,20l-0.2,5.8c0,0,14.2,5,20.6,15s10.8,16.7,12.8,33.3c2,16.6,5.3,64.3,5.6,70.5s9.5,21.7,16.4,25.3
			C1346.2,464.3,1355.4,469.2,1374.3,468.4z"/>
	</g>
	<g>
		<path class="st21" d="M1282.2,320.5l-0.8-5.1l10.7-1.7l-10.7-1.7l0.8-5.1l27.3,4.2c1.3,0.2,2.2,1.3,2.2,2.6s-0.9,2.4-2.2,2.6
			L1282.2,320.5z"/>
	</g>
	<g>
		<rect x="1320.7" y="187.6" class="st21" width="19.5" height="5.2"/>
	</g>
	<g>
		<rect x="1321.1" y="433.5" class="st21" width="18.4" height="5.2"/>
	</g>
	<g>
		
			<ellipse transform="matrix(0.8839 -0.4676 0.4676 0.8839 -10.2631 660.294)" class="st47" cx="1325" cy="350.8" rx="6.8" ry="8.7"/>
	</g>
	<g>
		
			<ellipse transform="matrix(0.8839 -0.4676 0.4676 0.8839 -16.8974 663.6339)" class="st47" cx="1328.4" cy="365.9" rx="3.4" ry="4.3"/>
	</g>
	<g id="XMLID_35_">
		<g id="XMLID_36_">
			<path class="st48" d="M1641.4,470.2c30.8,0.3,49.5-10.9,56.2-33.5c1.5-22.8,3.2-45.5,5-68.1c2.3-27.5,13.6-44.5,33.9-51.2v-8.5
				c-19.5-6.7-30.8-23.5-33.9-50.4c-1.8-22.6-3.6-45.2-5.4-67.7c-5.6-22.8-21.8-34.3-48.5-34.3h-6.9v7.3
				c12.1,0.8,21.4,4.9,28.1,12.5c6.7,7.6,10,17,10,28.3c0,4.6-0.3,11.7-0.8,21.2s-0.8,16.7-0.8,21.6c0,31.6,10.3,53.5,30.8,65.8
				c-20.8,12.3-31.2,34.3-31.2,65.8c0,4.6,0.3,11.7,1,21.2c0.6,9.5,1,16.7,1,21.6c0,11.3-3.4,20.7-10.2,28.3
				c-6.8,7.6-16.2,11.7-28.3,12.5L1641.4,470.2L1641.4,470.2z"/>
			<path class="st21" d="M1642.4,472.2c-0.3,0-0.7,0-1,0c-1.1,0-1.9-0.9-1.9-1.9v-7.7c0-1,0.8-1.9,1.8-1.9
				c11.5-0.7,20.5-4.7,27-11.9c6.4-7.2,9.7-16.2,9.7-27c0-4.8-0.3-12.1-1-21.4c-0.7-9.7-1-16.7-1-21.3c0-30.8,9.9-52.9,29.5-65.8
				c-19.3-12.9-29.1-35-29.1-65.8c0-4.9,0.3-12.1,0.8-21.7c0.5-9.3,0.8-16.4,0.8-21.1c0-10.8-3.2-19.8-9.5-27
				c-6.3-7.1-15.3-11.1-26.8-11.9c-1-0.1-1.8-0.9-1.8-1.9v-7.3c0-1.1,0.9-1.9,1.9-1.9h6.9c27.6,0,44.5,12,50.4,35.7
				c0,0.1,0,0.2,0.1,0.3l0.6,8.1c1.6,19.9,3.2,39.8,4.7,59.7c3,25.9,13.9,42.3,32.6,48.7c0.8,0.3,1.3,1,1.3,1.8v8.5
				c0,0.8-0.5,1.6-1.3,1.9c-19.6,6.5-30.3,22.7-32.5,49.5c-1.8,22.8-3.5,45.7-5,68.1c0,0.1,0,0.3-0.1,0.4
				C1692.6,460.4,1673.4,472.2,1642.4,472.2z M1643.3,464.3v3.9c28.8-0.2,45.9-10.7,52.3-31.9c1.5-22.4,3.2-45.2,5-67.9
				c2.3-27.6,13.7-45.2,33.9-52.4v-5.7c-19.4-7.2-30.8-24.6-33.9-51.6c-1.6-20-3.2-39.8-4.8-59.7l-0.6-7.9
				c-5.5-21.9-20.7-32.6-46.6-32.6h-5v3.6c11.7,1.1,21,5.5,27.6,13c7,7.9,10.5,17.8,10.5,29.6c0,4.7-0.3,11.9-0.8,21.3
				c-0.5,9.4-0.8,16.7-0.8,21.4c0,30.7,10,52.3,29.8,64.1c0.6,0.4,0.9,1,0.9,1.7s-0.4,1.3-1,1.7c-20.1,11.9-30.2,33.5-30.2,64.1
				c0,4.6,0.3,11.4,1,21c0.6,9.5,1,16.8,1,21.7c0,11.7-3.6,21.7-10.7,29.6C1664.3,458.9,1655,463.2,1643.3,464.3z"/>
		</g>
	</g>
	<g id="XMLID_34_">
		<path class="st37" d="M1643.9,158.5c12.4,0.8,31.3,5.7,38.2,13.5c6.9,7.8,10.3,17.5,10.3,29.2c0,4.8-0.3,12-0.8,21.8
			s-0.8,17.2-0.8,22.2c0,32.6,10.6,55.2,31.8,67.9c-21.4,12.7-32.2,35.3-32.2,67.9c0,4.8,0.3,12,1,21.8c0.7,9.8,1,17.2,1,22.2
			c0,11.6-3.5,21.4-10.5,29.2c-7,7.8-25.9,13-38.3,13.8c0,0,15.3,0.8,29.2-5.3c13.9-6.1,20.5-17.5,22.8-26.3l5-70.7
			c0,0,1.4-16.9,9.4-29.7s17.2-18.5,24.2-20l0.2-5.8c0,0-14.2-5-20.6-15s-10.8-16.7-12.8-33.3s-5.3-64.3-5.6-70.5
			s-9.5-21.7-16.4-25.3C1672.1,162.5,1662.8,157.7,1643.9,158.5z"/>
	</g>
	<g>
		<path class="st21" d="M1736,320.4l-27.3-4.2c-1.3-0.2-2.2-1.3-2.2-2.6s0.9-2.4,2.2-2.6l27.3-4.2l0.8,5.1l-10.7,1.7l10.7,1.7
			L1736,320.4z"/>
	</g>
	<g>
		<rect x="1678" y="187.4" class="st21" width="19.5" height="5.2"/>
	</g>
	<g>
		<rect x="1678.7" y="433.4" class="st21" width="18.4" height="5.2"/>
	</g>
	<g>
		
			<ellipse transform="matrix(0.8839 -0.4676 0.4676 0.8839 67.4536 823.8329)" class="st47" cx="1693.3" cy="276" rx="6.8" ry="8.7"/>
	</g>
	<g>
		
			<ellipse transform="matrix(0.8839 -0.4676 0.4676 0.8839 74.0558 820.4572)" class="st47" cx="1689.8" cy="261.1" rx="3.4" ry="4.3"/>
	</g>
	<g>
		<circle class="st27" cx="1387.3" cy="293.8" r="10.7"/>
	</g>
	<g>
		<circle class="st27" cx="1645.6" cy="322.8" r="5.7"/>
	</g>
	<g>
		<circle class="st27" cx="1641.4" cy="305.3" r="2.4"/>
	</g>
	<g>
		<polygon class="st49" points="1563.8,439.4 1552.7,418 1467.6,418 1456.5,439.4 1453.1,437.6 1465.2,414.2 1555.1,414.2 
			1567.3,437.6 		"/>
	</g>
	<g>
		<polygon class="st49" points="1547.3,439.4 1539.8,425 1481.7,425 1474.3,439.4 1470.8,437.6 1479.3,421.1 1542.2,421.1 
			1550.7,437.6 		"/>
	</g>
	<g>
		<polygon class="st49" points="1528.6,440.5 1524.6,433 1499.5,433 1495.7,440.2 1492.3,438.4 1497.1,429.1 1526.9,429.1 
			1532.1,438.6 		"/>
	</g>
	<g>
		<polygon class="st47" points="1464.8,414.4 1453,437.8 1416.3,437.7 1449.5,433.4 		"/>
	</g>
	<g>
		<polygon class="st47" points="1555.2,414.3 1567.2,437.8 1606.7,437.6 1571.7,433.8 		"/>
	</g>
	<g id="XMLID_33_">
		<path class="st50" d="M1561.8,512.4c0,0-31.2-19.5-31.2-32.6c0-13.2,14.6-25.8,14.6-25.8c0-1.6-2.3-5.8-2.7-5.8h-33.6h-33.5
			c-0.4,0-2.7,4.2-2.7,5.8c0,0,14.6,12.6,14.6,25.8c0,13.2-31.2,32.6-31.2,32.6c-2.1,3.5,1.1,5.8,1.5,5.8h51.3h51.3
			C1560.7,518.2,1563.9,515.9,1561.8,512.4z"/>
		<path class="st21" d="M1560.3,520.1h-102.6c-1.3,0-2.7-1.3-3.4-2.6c-1.1-1.9-1-4,0.2-6.1l0.2-0.4l0.4-0.3
			c8.4-5.3,30.3-21.1,30.3-31c0-12.1-13.8-24.2-13.9-24.3l-0.7-0.6v-0.9c0-1.4,2.2-7.7,4.6-7.7h67.1c2.4,0,4.6,6.3,4.6,7.7v0.9
			l-0.7,0.6c-0.1,0.1-13.9,12.2-13.9,24.3c0,9.9,21.8,25.7,30.3,31l0.4,0.3l0.2,0.4c1.2,2.1,1.3,4.2,0.2,6.1
			C1563,518.8,1561.5,520.1,1560.3,520.1z M1458.3,516.4L1458.3,516.4L1458.3,516.4z M1559.6,516.4L1559.6,516.4L1559.6,516.4z
			 M1458.1,516.2h101.7c0.2-0.2,0.6-0.6,0.7-1.1c0.1-0.4,0.1-0.9-0.2-1.4c-4.9-3.1-31.7-20.6-31.7-34c0-12.2,11.2-23.5,14.4-26.5
			c-0.3-0.9-1-2.3-1.5-3.1h-65.3c-0.5,0.8-1.2,2.2-1.5,3.1c3.2,3,14.4,14.3,14.4,26.5c0,13.4-26.8,30.9-31.7,34
			c-0.2,0.5-0.3,1-0.2,1.4C1457.5,515.6,1457.9,516,1458.1,516.2z"/>
	</g>
	<g>
		<path class="st51" d="M1509.1,450.2v65.5h50.3c0,0,1.2-0.7,0.7-2.4c0,0-11.7-7.8-17-12.5c0,0-8.2-7.2-12.3-13.9
			c0,0-2.5-3.9-2.1-9.1s3.1-11.8,8.4-18.2c0,0,3.2-4.1,5.9-6.3c0,0-0.8-2.1-1.6-3.3L1509.1,450.2z"/>
	</g>
	<g>
		<path class="st52" d="M1476.5,450.1h64.7l1.6,3.2c0,0-17.5,4.1-33.9,4.1s-33.9-4.3-33.9-4.3L1476.5,450.1z"/>
	</g>
	<g>
		<rect x="1473.4" y="451.5" class="st21" width="70.5" height="1.3"/>
	</g>
	<g>
		<rect x="1476.8" y="458" class="st21" width="62.9" height="1.3"/>
	</g>
	<g>
		<rect x="1481.9" y="464.6" class="st21" width="52" height="1.3"/>
	</g>
	<g>
		<rect x="1487.5" y="473.5" class="st21" width="42.8" height="1.3"/>
	</g>
	<g>
		<rect x="1486.7" y="483.5" class="st21" width="44.3" height="1.3"/>
	</g>
	<g>
		<rect x="1481.9" y="491.6" class="st21" width="53.1" height="1.3"/>
	</g>
	<g>
		<rect x="1474.7" y="499" class="st21" width="68.2" height="1.3"/>
	</g>
	<g>
		<rect x="1467.9" y="505.6" class="st21" width="82.7" height="1.3"/>
	</g>
	<g>
		<rect x="1458.7" y="511.5" class="st21" width="100.4" height="1.3"/>
	</g>
	<g>
		
			<ellipse transform="matrix(0.961 -0.2765 0.2765 0.961 -82.7527 429.5865)" class="st52" cx="1482" cy="508.2" rx="7.6" ry="3.8"/>
	</g>
	<g>
		
			<ellipse transform="matrix(0.961 -0.2765 0.2765 0.961 -79.9663 431.373)" class="st52" cx="1489.7" cy="499.3" rx="4.2" ry="2.1"/>
	</g>
	<g>
		<ellipse class="st43" cx="1507.3" cy="552.1" rx="80.2" ry="7"/>
	</g>
	<g>
		<circle class="st48" cx="1562.8" cy="356.5" r="4.6"/>
		<path class="st49" d="M1562.8,362.4c-3.3,0-5.9-2.6-5.9-5.9s2.6-5.9,5.9-5.9c3.3,0,5.9,2.6,5.9,5.9S1566,362.4,1562.8,362.4z
			 M1562.8,353.2c-1.8,0-3.3,1.5-3.3,3.3s1.5,3.3,3.3,3.3c1.8,0,3.3-1.5,3.3-3.3C1566.1,354.7,1564.6,353.2,1562.8,353.2z"/>
	</g>
	<g>
		<circle class="st48" cx="1554.2" cy="323.5" r="4.6"/>
		<path class="st49" d="M1554.2,329.4c-3.3,0-5.9-2.6-5.9-5.9s2.6-5.9,5.9-5.9c3.3,0,5.9,2.6,5.9,5.9
			C1560.1,326.8,1557.5,329.4,1554.2,329.4z M1554.2,320.2c-1.8,0-3.3,1.5-3.3,3.3s1.5,3.3,3.3,3.3c1.8,0,3.3-1.5,3.3-3.3
			S1556.1,320.2,1554.2,320.2z"/>
	</g>
	<g>
		<circle class="st48" cx="1560.4" cy="291.7" r="4.6"/>
		<path class="st49" d="M1560.4,297.6c-3.3,0-5.9-2.6-5.9-5.9s2.6-5.9,5.9-5.9c3.3,0,5.9,2.6,5.9,5.9S1563.6,297.6,1560.4,297.6z
			 M1560.4,288.4c-1.8,0-3.3,1.5-3.3,3.3s1.5,3.3,3.3,3.3c1.8,0,3.3-1.5,3.3-3.3S1562.2,288.4,1560.4,288.4z"/>
	</g>
	<g>
		<circle class="st48" cx="1443.5" cy="361.5" r="4.6"/>
		<path class="st49" d="M1443.5,367.4c-3.3,0-5.9-2.6-5.9-5.9s2.6-5.9,5.9-5.9c3.3,0,5.9,2.6,5.9,5.9S1446.8,367.4,1443.5,367.4z
			 M1443.5,358.2c-1.8,0-3.3,1.5-3.3,3.3s1.5,3.3,3.3,3.3c1.8,0,3.3-1.5,3.3-3.3S1445.3,358.2,1443.5,358.2z"/>
	</g>
	<g>
		<path class="st50" d="M1524.3,221.5l31.9-21.5l3.9-55.9c0,0-11.2-6.6-16.1-8.7c-3.6-1.6-14.5-4.8-14.5-4.8s-13.7,1.6-18.5,2
			c-7.3,0.7-18.5,1.4-28.4,6.1c-17.9,8.5-23.5,17.7-23.5,17.7l5,15.7l-37.4,33.6l2.6,19.1l17.3,19.4c0,0,1.9-3.7,2.7-4.6
			c4.5-4.7,7.3-8.5,14.3-10.5s14.7,0.6,16.4,1.5c1.7,0.9,11.1,3.1,20.2,1.7C1509.2,230.8,1520.2,225.6,1524.3,221.5z"/>
	</g>
	<g>
		<path class="st53" d="M1467.3,172.6l53.4-5.1c0,0,3.4,0.6,4.7,3.4c1.2,2.8,3.3,9.3,3.3,9.3l-13.9,10l-40.2-3.4L1467.3,172.6z"/>
	</g>
	<g>
		<polygon class="st49" points="1524.8,226.2 1522.5,223.1 1554.3,198.9 1558.3,143.1 1562.2,143.3 1558,201 		"/>
	</g>
	<g>
		<polygon class="st49" points="1439.2,258.1 1415,229.2 1414.4,213.2 1418.3,213.1 1418.9,227.7 1442.2,255.6 		"/>
	</g>
	<g>
		<polygon class="st49" points="1445,248.3 1425.7,226.1 1424.5,204.5 1428.4,204.2 1429.6,224.6 1447.9,245.7 		"/>
	</g>
	<g>
		<polygon class="st51" points="1418.4,212.9 1424.7,207.5 1425.7,226.3 1444.3,247.5 1441.3,254.4 1418.9,227.7 		"/>
	</g>
	<g>
		<path class="st51" d="M1555.8,141.4l-47.4,88.9c0,0,6.8-1.4,14.1-7c7.3-5.5,31.7-24.3,31.7-24.3l4.5-55.7L1555.8,141.4z"/>
	</g>
	<g>
		
			<rect x="1525" y="172.1" transform="matrix(0.9529 -0.3034 0.3034 0.9529 19.8939 476.0578)" class="st49" width="34.2" height="3.9"/>
	</g>
	<g>
		
			<rect x="1464.3" y="168.7" transform="matrix(0.2583 -0.9661 0.9661 0.2583 920.2371 1544.8738)" class="st49" width="3.9" height="8.8"/>
	</g>
	<g>
		<path class="st51" d="M1527.5,176.7l-1.6-4.5c-1.6-4.2-5.3-4.6-5.3-4.6l-50.2,4.9l-6.9-1.9l-4.4-13.4l14.3,4.4l45.5-5.1l24.4,9.2
			l-3.4,6.9L1527.5,176.7z"/>
	</g>
	<g>
		<polygon class="st51" points="1474.5,186.8 1429.2,224.8 1428.6,203.4 1461.8,173.9 1468.7,175.8 		"/>
	</g>
	<g>
		
			<ellipse transform="matrix(0.941 -0.3385 0.3385 0.941 37.5808 510.7679)" class="st54" cx="1483.2" cy="147.6" rx="7.5" ry="4.8"/>
	</g>
	<g>
		
			<ellipse transform="matrix(0.941 -0.3385 0.3385 0.941 38.8064 515.6101)" class="st54" cx="1497.7" cy="146.5" rx="3.8" ry="2.5"/>
	</g>
	<g>
		
			<ellipse transform="matrix(0.941 -0.3385 0.3385 0.941 13.6887 519.1901)" class="st51" cx="1495.4" cy="220.3" rx="9.1" ry="5.9"/>
	</g>
	<g>
		<ellipse transform="matrix(0.941 -0.3385 0.3385 0.941 18.3164 522.5276)" class="st51" cx="1507.3" cy="208.7" rx="4.7" ry="3"/>
	</g>
	<g>
		
			<rect x="1509" y="127.8" transform="matrix(0.9937 -0.112 0.112 0.9937 -4.9787 170.9673)" class="st49" width="20.4" height="3.9"/>
	</g>
</g>
</svg>
