<?xml version="1.0" encoding="utf-8"?>
<!-- Generator: Adobe Illustrator 25.4.1, SVG Export Plug-In . SVG Version: 6.00 Build 0)  -->
<svg version="1.1" id="Layer_1" xmlns="http://www.w3.org/2000/svg" xmlns:xlink="http://www.w3.org/1999/xlink" x="0px" y="0px"
	 viewBox="0 0 577.73 284.43" style="enable-background:new 0 0 577.73 284.43;" xml:space="preserve">
<style type="text/css">
	.st0{fill:#63555D;stroke:#000000;stroke-linecap:round;stroke-linejoin:round;stroke-miterlimit:10;}
	.st1{fill:#A19C8A;stroke:#000000;stroke-linecap:round;stroke-linejoin:round;stroke-miterlimit:10;}
	.st2{fill:none;stroke:#000000;stroke-miterlimit:10;}
	.st3{fill:#7AC9A8;stroke:#000000;stroke-linejoin:round;stroke-miterlimit:10;}
	.st4{fill:#523F3D;}
	.st5{fill:#FFFFFF;}
	.st6{fill:#7AC9A8;}
	.st7{fill:#2E7188;}
	.st8{fill:#DF8E36;stroke:#000000;stroke-linecap:round;stroke-linejoin:round;stroke-miterlimit:10;}
	.st9{fill:#973440;}
	.st10{fill:#FAE56F;}
	.st11{fill:#A19C8A;stroke:#000000;stroke-miterlimit:10;}
	.st12{fill:#DF8E36;stroke:#000000;stroke-miterlimit:10;}
	.st13{fill:#7AC9A8;stroke:#000000;stroke-linecap:round;stroke-linejoin:round;stroke-miterlimit:10;}
	.st14{fill:#F8EA77;}
	.st15{fill:#DF8E36;}
	.st16{fill:#A19C8A;}
	.st17{fill:#7AC9A8;stroke:#000000;stroke-miterlimit:10;}
	.st18{fill:none;stroke:#FFFFFF;stroke-width:0.75;stroke-miterlimit:10;}
	.st19{fill:#2E7188;stroke:#000000;stroke-linecap:round;stroke-linejoin:round;stroke-miterlimit:10;}
	.st20{fill:#523F3D;stroke:#000000;stroke-linecap:round;stroke-linejoin:round;stroke-miterlimit:10;}
	.st21{fill:#973440;stroke:#000000;stroke-miterlimit:10;}
	.st22{fill:none;stroke:#DF8E36;stroke-miterlimit:10;}
	.st23{fill:none;stroke:#7AC9A8;stroke-miterlimit:10;}
	.st24{fill:#2E7188;stroke:#000000;stroke-miterlimit:10;}
	.st25{fill:#FFFFFF;stroke:#000000;stroke-miterlimit:10;}
</style>
<circle cx="144.95" cy="144.06" r="133.46"/>
<g>
	<g>
		<g>
			<ellipse class="st0" cx="146.53" cy="190.42" rx="13.6" ry="3.76"/>
			<path class="st1" d="M167.39,215.97c-2.49-1.64-11.94-8.15-11.94-12.65c0-5.18,5.85-10.36,5.85-10.36c0-0.62-0.86-2.1-1.12-2.31
				c-0.05,2.06-6.12,3.73-13.6,3.73c-7.45,0-13.5-1.66-13.6-3.71c-0.28,0.27-1.1,1.69-1.1,2.29c0,0,5.85,5.01,5.85,10.36
				s-12.54,13.04-12.54,13.04c-0.01,0.01-0.01,0.02-0.02,0.04c-0.3,0.26-0.46,0.62-0.46,1.11c0,4.06,9.79,7.35,21.86,7.35
				c12.07,0,21.86-3.29,21.86-7.35C168.44,216.66,168.07,216.19,167.39,215.97z"/>
			<polyline class="st2" points="137.25,205.35 149.32,206.59 155.28,204 			"/>
			<polyline class="st2" points="150.25,203.67 149.32,206.59 159.75,222.86 			"/>
			<path class="st3" d="M124.79,216.88v5.87c0,0,1.85,0.79,6.06,1.47c5.48,0.88,11.18,1.41,18.42,1.26
				c6.92-0.15,14.21-1.08,19.3-3.77l-0.19-4.96c0,0-4.26,1.87-12.46,3.09c-8.21,1.22-16.81,0.28-20.38-0.22
				C131.63,219.08,125.91,218.03,124.79,216.88z"/>
			<path class="st4" d="M133.59,210.6c0,0-5.38,4.22-8.1,6.17c0,0,0.66,0.79,6.2,1.72c2.26,0.38,8.71,1.49,14.47,1.48
				c2.4,0,8.09-0.17,10.64-0.79l-1.5-2.27c0,0-0.78,0.37-4.08,0.59c-3.33,0.22-14.77-0.14-16.48-2.4
				C133.03,212.83,133.59,210.6,133.59,210.6z"/>
			<polygon class="st5" points="137.54,205.92 140.44,207.02 139.29,210.34 144.92,211.08 145.79,207.26 148.95,207.1 			"/>
			<polyline class="st2" points="137.62,202.93 150.37,203.92 155.57,201.5 			"/>
			<path class="st6" d="M137.92,204.91c0,0,0.35-0.99,0.31-1.44l11.24,0.87l-0.52,1.68L137.92,204.91z"/>
			<path class="st7" d="M150.48,204.4l-0.38,1.29l4.88-2.1c0,0-0.07-0.78,0.05-1.29L150.48,204.4z"/>
			<path class="st7" d="M160.75,192.72"/>
			<path class="st4" d="M158.73,192.91l-6.48,3.33l-1.42,6.91l-0.54,0.26l-12.12-0.94l11.01-1.23l1.41-6.54c0,0,2.08-0.16,4.17-0.57
				C156.69,193.76,158.73,192.91,158.73,192.91z"/>
			<path class="st4" d="M150.72,193.45l-1.27-2.11c0,0,0.84-0.16,1.24-0.59l-0.36-3.46c0,0,4.72,0.13,8.38,2.01
				c0,0,1.18,0.65,0.82,1.42C158.96,191.93,154.48,193.34,150.72,193.45z"/>
			<path d="M160.31,191.64c0,0-0.86,0.89-2.61,1.79c-1.75,0.89-5.45,2.81-5.45,2.81l-1.42,6.91l4.49-2.02c0,0,1.75-4.69,5.52-8.37
				L160.31,191.64z"/>
			<circle cx="160.78" cy="215.86" r="0.99"/>
			<circle cx="157.28" cy="212.18" r="0.99"/>
			<circle cx="140.06" cy="197.38" r="1.54"/>
			<circle cx="145.06" cy="198.02" r="0.99"/>
			<path class="st7" d="M125.28,220.65v1.75c0,0,5.63,1.75,12.17,2.2c6.53,0.45,11.77,0.56,17.35,0.06s8-1.07,13.35-3.27l-0.17-1.69
				c0,0-3.77,2.25-13.41,3.38c-6.89,0.81-11.04,0.34-17.07-0.23C132.12,222.34,125.28,220.65,125.28,220.65z"/>
			<ellipse class="st1" cx="146.38" cy="190.57" rx="8.89" ry="1.9"/>
			<g>
				<g>
					<path class="st8" d="M142.99,187.24l0.34,2.97c0,0,2.67,2.02,6.87-0.03l-0.39-3.29C149.81,186.89,147.14,189.61,142.99,187.24z
						"/>
					<path class="st9" d="M147.41,188.6c0,0,1.02-0.17,2.02-0.8l0.24,2.07c0,0-2.54,1.37-5.32,0.33c0,0,2.97,0.31,3.03-0.43
						C147.44,189.03,147.41,188.6,147.41,188.6z"/>
					<path class="st10" d="M144.49,188.43l0.2,1.49c0,0,1.04,0.01,1.19-1.22C145.88,188.71,144.92,188.58,144.49,188.43z"/>
				</g>
				<g>
					<path class="st8" d="M142.86,183.94l0.12,2.98c0,0,2.52,2.21,6.85,0.48l-0.16-2.92C149.67,184.48,146.82,186.6,142.86,183.94z"
						/>
					<path class="st9" d="M147.36,185.75c0,0,0.95-0.05,1.88-0.53l0.08,1.84c0,0-0.97,0.29-1.29,0.36
						c-0.28,0.06-0.59,0.09-0.59,0.09s0.07-0.15,0.06-0.89C147.49,186.09,147.36,185.75,147.36,185.75z"/>
					<path class="st10" d="M144.24,185.25l0.14,1.9c0,0,0.55,0.19,0.73,0.24c0.2,0.05,0.78,0.14,0.78,0.14s-0.25-1.08-0.17-1.85
						C145.73,185.67,144.69,185.45,144.24,185.25z"/>
				</g>
			</g>
		</g>
		<path class="st1" d="M246.96,129.53C246.96,129.53,246.96,129.53,246.96,129.53c-7.75-2.72-12.21-9.55-13.54-20.33
			c-0.67-9.19-1.5-18.22-2.17-27.41c-2.34-9.19-8.86-13.87-19.56-13.87h-2.84v3.01c4.85,0.33,8.69,2.01,11.37,5.01
			s4.01,6.85,4.01,11.37c0,1.84-0.17,4.68-0.33,8.52c-0.17,3.84-0.33,6.85-0.33,8.69c0,12.7,4.18,21.56,12.37,26.58
			c-8.36,5.01-12.54,13.87-12.54,26.58c0,1.84,0.17,4.68,0.33,8.52c0.17,3.84,0.33,6.85,0.33,8.69c0,4.51-1.34,8.36-4.18,11.37
			s-6.52,4.68-11.37,5.01v3.01c12.37,0.17,19.89-4.35,22.73-13.54c0.67-9.19,1.34-18.39,2.01-27.58c1-11.03,5.52-18.05,13.71-20.73
			C246.96,132.43,247.02,129.55,246.96,129.53z"/>
		<path class="st11" d="M80.78,67.83c-12.37-0.17-19.89,4.35-22.56,13.54c-0.67,9.19-1.34,18.39-2.01,27.58
			c-1,11.03-5.52,18.05-13.71,20.73v3.34c7.86,2.67,12.37,9.53,13.71,20.39c0.61,8.34,1.35,16.54,1.98,24.86
			c0.2,2.69,0.88,5.35,2.2,7.71c3.23,5.78,9.08,8.72,17.55,8.72h2.84v-3.01c-4.85-0.33-8.69-2.01-11.37-5.01
			c-2.67-3.01-4.01-6.85-4.01-11.37c0-1.84,0.17-4.68,0.33-8.52c0.17-3.84,0.33-6.69,0.33-8.69c0-12.7-4.18-21.56-12.37-26.58
			c8.36-5.01,12.54-13.87,12.54-26.58c0-1.84-0.17-4.68-0.33-8.52c-0.33-3.84-0.33-6.69-0.33-8.69c0-4.51,1.34-8.36,4.18-11.37
			s6.52-4.68,11.37-5.01L80.78,67.83L80.78,67.83z"/>
		<g>
			<path class="st12" d="M172.85,160.94c-2.97-5.95-12.63-8-12.72-8.01l0.29-1.98c0.41,0.06,10.78,2.21,14.22,9.1L172.85,160.94z"/>
		</g>
		<g>
			<ellipse class="st13" cx="144.55" cy="163.97" rx="34.13" ry="7.35"/>
			<path class="st13" d="M179.15,163.97c-4.03,3.15-17.87,5.46-34.33,5.46c-16.46,0-30.3-2.32-34.33-5.46
				c-0.69,0.27-1.19,0.93-1.19,1.71c0,0.05,0.01,0.1,0.02,0.15c0,0.04-0.02,0.08-0.02,0.12c0,4.06,15.9,7.35,35.52,7.35
				c19.62,0,35.52-3.29,35.52-7.35c0-0.04-0.01-0.08-0.02-0.12c0-0.05,0.02-0.1,0.02-0.15C180.34,164.9,179.84,164.24,179.15,163.97
				z"/>
			<ellipse class="st8" cx="145.68" cy="162.86" rx="21.81" ry="3.6"/>
		</g>
		<g>
			<g>
				<path class="st8" d="M141.54,160.22l0.34,2.97c0,0,2.67,2.02,6.87-0.03l-0.39-3.29C148.37,159.86,145.69,162.59,141.54,160.22z"
					/>
				<path class="st9" d="M145.96,161.58c0,0,1.02-0.17,2.02-0.8l0.24,2.07c0,0-2.54,1.37-5.32,0.33c0,0,2.97,0.31,3.03-0.43
					C146,162,145.96,161.58,145.96,161.58z"/>
				<path class="st10" d="M143.04,161.41l0.2,1.49c0,0,1.04,0.01,1.19-1.22C144.43,161.68,143.47,161.56,143.04,161.41z"/>
			</g>
			<g>
				<path class="st8" d="M141.41,156.91l0.12,2.98c0,0,2.52,2.21,6.85,0.48l-0.16-2.92C148.23,157.46,145.38,159.58,141.41,156.91z"
					/>
				<path class="st9" d="M145.92,158.73c0,0,0.95-0.05,1.88-0.53l0.08,1.84c0,0-0.97,0.29-1.29,0.36c-0.28,0.06-0.59,0.09-0.59,0.09
					s0.07-0.15,0.06-0.89C146.05,159.07,145.92,158.73,145.92,158.73z"/>
				<path class="st10" d="M142.8,158.23l0.14,1.9c0,0,0.55,0.19,0.73,0.24c0.2,0.05,0.78,0.14,0.78,0.14s-0.25-1.08-0.17-1.85
					C144.29,158.65,143.24,158.43,142.8,158.23z"/>
			</g>
			<g>
				<path class="st8" d="M141.28,153.89l0.12,2.98c0,0,2.52,2.21,6.85,0.48l-0.16-2.92C148.1,154.44,145.25,156.56,141.28,153.89z"
					/>
				<path class="st9" d="M145.79,155.71c0,0,0.95-0.05,1.88-0.53l0.08,1.84c0,0-0.97,0.29-1.29,0.36c-0.28,0.06-0.59,0.09-0.59,0.09
					s0.07-0.15,0.06-0.89C145.92,156.05,145.79,155.71,145.79,155.71z"/>
				<path class="st10" d="M142.67,155.21l0.14,1.9c0,0,0.55,0.19,0.73,0.24c0.2,0.05,0.78,0.14,0.78,0.14s-0.25-1.08-0.17-1.85
					C144.15,155.63,143.11,155.41,142.67,155.21z"/>
			</g>
			<g>
				<path class="st8" d="M141.32,151.12l0.12,2.98c0,0,2.52,2.21,6.85,0.48l-0.16-2.92C148.13,151.66,145.28,153.78,141.32,151.12z"
					/>
				<path class="st9" d="M145.82,152.93c0,0,0.95-0.05,1.88-0.53l0.08,1.84c0,0-0.97,0.29-1.29,0.36c-0.28,0.06-0.59,0.09-0.59,0.09
					s0.07-0.15,0.06-0.89C145.95,153.27,145.82,152.93,145.82,152.93z"/>
				<path class="st10" d="M142.7,152.43l0.14,1.9c0,0,0.55,0.19,0.73,0.24c0.2,0.05,0.78,0.14,0.78,0.14s-0.25-1.08-0.17-1.85
					C144.19,152.85,143.15,152.63,142.7,152.43z"/>
			</g>
		</g>
		<path class="st14" d="M153.62,165.28c-11.94,0-21.62-1.36-21.62-3.05c0-0.91,2.82-1.72,7.28-2.28c-8.6,0.4-14.81,1.54-14.81,2.89
			c0,1.68,9.68,3.05,21.62,3.05c5.51,0,10.53-0.29,14.35-0.77C158.29,165.23,156,165.28,153.62,165.28z"/>
		<path class="st9" d="M154.2,94.32c0,0,0.81-3.92,0.72-4.88l-2.33-0.09c0,0-0.28,4.13-1.13,6.7s-1.45,4.53-3,6.79
			c-1.69,2.46-3.52,3.76-4.5,4.44l5.75-2.66c0,0,1.58-2.16,2.45-4.16C153.17,98.14,154.04,95.36,154.2,94.32z"/>
		<g>
			<path class="st1" d="M184.43,178.11l-0.02-0.06c-0.02-0.22-0.09-0.43-0.22-0.65l-3.61-10.82c0-0.18-0.04-0.35-0.11-0.51
				c-0.32,4-16.1,7.23-35.54,7.23c-18.53,0-33.74-2.93-35.4-6.68l-3.59,10.78c-0.12,0.21-0.19,0.43-0.22,0.65l-0.02,0.06
				c0,0.02,0,0.04,0.01,0.05c0,0.01-0.01,0.02-0.01,0.04c0,4.06,17.62,7.35,39.36,7.35c21.74,0,39.36-3.29,39.36-7.35
				c0-0.01,0-0.02-0.01-0.04C184.43,178.15,184.43,178.13,184.43,178.11z"/>
			<path class="st12" d="M157.43,177.14c0,0-9.47,0.38-12.63,0.38c-3.08,0-12.3-0.38-12.3-0.38v-3.97c0,0,9.31,0.38,12.42,0.38
				c3.13,0,12.52-0.38,12.52-0.38V177.14z"/>
			<path class="st12" d="M109.85,167.39l-1.59,4.67c0,0,6.56,3.18,12.62,4.27v-4.57C120.87,171.76,113.42,170.27,109.85,167.39z"/>
			<path class="st12" d="M180.59,166.58l1.88,5.28c0,0-7.15,4.27-15.89,4.67v-4.57C166.57,171.96,174.83,171.44,180.59,166.58z"/>
			<circle cx="126.19" cy="175.42" r="1.94"/>
			<circle cx="162" cy="175.7" r="1.94"/>
			<path class="st14" d="M110.11,168.15l-0.7,2.14l10.94,3.76l0.03-1.92C120.38,172.13,112.84,170.15,110.11,168.15z"/>
			<path class="st14" d="M132.98,173.66c0,0,9.41,0.77,23.88,0.04l0.07,1.47c0,0-15.93,0.62-23.99-0.04L132.98,173.66z"/>
			<path class="st14" d="M167.05,172.41v1.69c0,0,7.24-0.73,13.98-4.83l-0.72-1.93C180.32,167.33,177.34,170.72,167.05,172.41z"/>
		</g>
		<path class="st5" d="M112.27,166.42c0,0,8.7,2.98,16.55,3.67c8.68,0.77,22.78,0.65,27.02,0.28l0.14,1.21
			c0,0-17.81,0.51-27.43-0.33c-9.62-0.84-16.37-3.86-16.37-3.86L112.27,166.42z"/>
		<path class="st5" d="M163.68,169.65l0.15,1.13c0,0,7.78-0.83,13.14-3.1l-0.38-1.06C176.59,166.63,172.36,168.59,163.68,169.65z"/>
		<path class="st2" d="M173.23,63.7c0,0,3.46,2.91,5.66,8.21"/>
		<path class="st9" d="M129.75,95.21c0,0,2.82,3.76,4.84,5.15c2.02,1.39,4.6,2.61,6.37,2.93c1.78,0.31,4.46,0.17,5.78-0.21
			c0,0-1.11,1.46-1.99,2.02c0,0-6.2-0.77-8.88-2.75C133.19,100.36,131.07,97.96,129.75,95.21z"/>
		<path class="st5" d="M161.69,52.11l2.2,1.57l3.66-2.67c0,0-1.28-0.93-2.73-1.39L161.69,52.11z"/>
		<g>
			<g>
				<path class="st12" d="M161.08,176.08c-0.26-0.65-0.47-1.34-0.69-2.08c-1.37-4.54-3.24-10.75-21.39-12.59
					c-22.19-2.25-23.79-12.23-23.85-12.65l1.98-0.28c0,0.02,0.37,2.2,3.2,4.61c2.67,2.28,8.12,5.23,18.87,6.33
					c19.47,1.98,21.65,9.22,23.1,14.01c0.21,0.69,0.4,1.34,0.63,1.9L161.08,176.08z"/>
			</g>
			
				<ellipse transform="matrix(0.9228 -0.3852 0.3852 0.9228 -55.0124 75.8546)" class="st15" cx="161.83" cy="175.24" rx="0.5" ry="0.26"/>
		</g>
		<g>
			<path class="st16" d="M178.32,152.01c-1.03-2.13-13.83-12.3-14.12-21.7c-0.17-10.53,18.04-23.78,17.39-47.02
				c-0.72-25.43-27.91-29.75-27.91-29.75c13.48-6.2-9.83-20.92-9.83-20.92l1.64,21.59c-14.88,1-20.89,10.03-20.89,10.03l3.38,8.33
				c0,0-19.93,14.73-24.77,18.58c-4.68,3.84,2.01,13.71,2.01,13.71l4.85-1.17l8.52,2.17c0,0,4.18-14.71,14.37-10.86
				c10.36,3.84,18.55-2.84,18.55-2.84c3.01,11.87-13.37,17.88-30.59,30.75c-8.36,6.35,10.17,20.85,10.17,20.85l-4.8,5.14
				c0,4.06,0.35-1.37,18.51-1.37s24.68,3.89,24.68-0.17c0-0.17,8.98,5.13,8.93,4.97C178.4,152.22,178.37,152.11,178.32,152.01z"/>
			<polygon class="st11" points="131.93,74.52 120.79,81.88 115.61,78.65 122.1,73.02 124.81,62.77 148.49,48.35 150.06,53.38 
				139.76,64.62 			"/>
			<path class="st4" d="M147.53,55.47l-7.96,8.64c0,0-2.64,0.15-4.31,1.26c-1.5,0.99-2.41,2.29-3.26,3.73
				c-1.08,1.84-0.7,5.23-0.7,5.23l-10.49,6.94l7.97-8.28c0,0,0.09-4.27,1.97-6.61c1.12-1.39,2.46-2.81,3.52-3.27
				c1.33-0.58,2.76-1.17,5.15-1.27L147.53,55.47z"/>
			<polygon class="st5" points="119.7,80.59 116.25,78.72 122.55,73.29 125.22,63.1 148.24,49.07 147.49,52.12 127.06,64.79 
				124.42,74.5 119.89,78.14 			"/>
			<path class="st13" d="M131.89,74.56l-6.68,4.39l13.75,8.88l37.42-26.61l0.21-6.84l-22.04,12.14c0,0-2.75-5.9-9.37-7.61
				l-5.42,5.72L131.89,74.56z"/>
			<polygon class="st7" points="138.99,87.19 176.12,55.26 175.85,61.06 			"/>
			<polygon class="st12" points="147.88,72.49 160.56,66.22 160.22,68.86 146.22,77.99 			"/>
			<g>
				<circle class="st12" cx="139.76" cy="72.74" r="8.12"/>
				
					<rect x="135.31" y="71.16" transform="matrix(0.7808 -0.6248 0.6248 0.7808 -14.751 103.2833)" class="st17" width="8.99" height="3"/>
				<path class="st5" d="M140.05,68.31c-0.02-0.04-0.04-0.08-0.06-0.11c-0.87-1.2-2.56-1.47-3.76-0.6c-1.2,0.87-1.47,2.56-0.6,3.76
					c0.03,0.04,0.06,0.06,0.09,0.1L140.05,68.31z"/>
				<path class="st9" d="M143.02,65.91c1.48,1.39,2.41,3.36,2.41,5.55c0,4.22-3.42,7.64-7.64,7.64c-1.12,0-2.17-0.25-3.13-0.68
					c1.37,1.29,3.2,2.08,5.23,2.08c4.22,0,7.64-3.42,7.64-7.64C147.52,69.77,145.67,67.1,143.02,65.91z"/>
			</g>
			<path class="st7" d="M145.32,59.44l-4.45,4.73c0,0,1.42,0.21,2.69,0.82c1.27,0.6,2.16,1.49,2.69,2.05s1.23,1.79,1.42,2.24
				c0.19,0.45,0.53,1.47,0.65,2.4l2.55-1.25c0,0-0.35-1.97-1.12-3.55c-0.77-1.57-3.92-3.82-3.92-3.82l2.63-2.29
				C148.46,60.77,146.74,59.79,145.32,59.44z"/>
			<circle class="st18" cx="139.74" cy="72.69" r="11.2"/>
			<path class="st12" d="M145.56,58.74l8.09-8.4c0,0,7.62,0.39,13.35,9.09l-12.34,6.89C154.66,66.32,151.18,60.36,145.56,58.74z"/>
			<path class="st9" d="M153.8,50.86c0,0,1.67,0.18,2.78,0.67l-3.92,4.06c0,0,3.26,2.25,5.22,4.8l6.41-3.65c0,0,1.42,1.64,2,2.54
				l-11.46,6.4c0,0-1.66-2.52-3.46-4.06c-1.8-1.54-3.35-2.54-4.91-3.11L153.8,50.86z"/>
			<polygon class="st1" points="157.42,51.15 159.68,43.24 142.95,31.1 144.71,50.46 148.51,48.07 150.05,52.98 153.32,50.05 			"/>
			<polygon class="st4" points="159.1,43.44 149.3,48.93 150.44,52.57 153.44,49.67 157.06,50.56 			"/>
			<path class="st11" d="M174.38,55.57l-7.33,4c0,0-2.79-6.59-11.15-8.87l2.32-3.41C158.21,47.28,167.88,45.86,174.38,55.57z"/>
			<path class="st4" d="M167.25,58.86l6.4-3.47c0,0-1.6-2.22-2.72-3.11l-5.3,4.12C165.62,56.4,166.95,58.21,167.25,58.86z"/>
			<path class="st5" d="M144.47,33.83l1.21,10.01c0,0,1.11-2.12,2.51-2.89c1.25-0.68,3.4-1.09,3.4-1.09L144.47,33.83z"/>
			<polygon class="st19" points="133.61,84.46 102.26,100.62 97.54,94.38 102.8,89.59 108.21,90.45 125.22,78.95 			"/>
			<polygon class="st6" points="119.95,83.13 122.85,83.32 108.22,92.97 100.32,92.55 102.97,90.12 108.32,90.99 			"/>
			<polygon class="st12" points="120.49,81.97 108.21,90.45 103.5,89.72 117.84,80.48 			"/>
			<polygon class="st20" points="151.71,79.4 151.4,93.01 138.81,98.17 129.42,94.15 124.63,96.11 117.65,107.66 110.06,103.68 
				105.21,104.85 102.26,100.62 133.61,84.46 138.97,87.83 			"/>
			<path class="st16" d="M104.72,101.42l28.89-14.55l5.68,3.19l10.73-6.85c0,0,1.79,10.01-10.89,12.96l-9.77-3.61l-6,2.55
				l-6.21,10.41l-7.17-3.61l-3.98,1.27L104.72,101.42z"/>
			<polygon class="st8" points="118.04,92.58 122.33,99.17 124.57,96.71 121.16,91.01 			"/>
			<polygon class="st8" points="127.32,95.38 124.28,89.3 127.38,87.66 130.56,94.36 			"/>
			<polygon class="st9" points="119.51,93.91 121.65,92.82 120.95,91.66 118.76,92.77 			"/>
			<polygon class="st9" points="124.93,89.5 127.14,88.34 127.82,89.77 125.63,90.86 			"/>
			<polygon class="st9" points="126.99,93.6 129.29,92.86 129.86,94.06 127.57,94.78 			"/>
			<polygon class="st9" points="123.96,96.65 123.13,95.27 121.93,97.63 122.4,98.35 			"/>
			<polygon class="st4" points="172.09,64.95 172.46,68.3 155.55,79.43 155.42,82.4 152.01,84 152.09,79.1 			"/>
			<polygon class="st1" points="151.58,88.87 183.54,77.98 184.08,97.69 151.33,94.51 			"/>
			<g>
				<g>
					<path class="st12" d="M151.68,84.63l30.67-14.03l-16.63,16.63c0,0-7.03-3.49-14.04-0.61V84.63z"/>
					<path class="st9" d="M155.29,85.09l0.06-0.84l21.6-8.91l3.03-3.12l-27.95,12.82l-0.03,0.7C152,85.75,153.19,85.24,155.29,85.09
						z"/>
				</g>
				<path class="st19" d="M180.94,71.66l10.11-5.64l-24.47,27.99c0,0-5.69-6-15.08-5.14l0.06-2.53c0,0,6.54-2.44,14.16,0.89
					L180.94,71.66z"/>
				<path class="st6" d="M155.25,86.1l-0.02,1.16c0,0,7.16-0.14,10.86,3.08l16.53-17.42l-4.05,1.92l-12.76,13.03
					C165.82,87.87,161.17,85.39,155.25,86.1z"/>
			</g>
			<path class="st1" d="M151.33,94.51c0,0-0.87,4.96-1.54,6.22c-0.82,1.54-4.42,4.99-4.42,4.99l31.61,21.11l2.07-29.33L151.33,94.51
				z"/>
			<polygon class="st1" points="145.37,105.72 118.16,123.66 175.94,140.61 174.36,128.1 			"/>
			<polygon class="st1" points="118.16,123.66 114.03,147.64 123.68,153.6 179.4,152.77 172.68,139.69 			"/>
			<path class="st13" d="M116.22,129.25l1.44-5.72l54.92,16.31l6.45,12.7l-5.81,0.01c0,0-1.66-7.55-15.98-11.91
				C150.28,138.52,116.22,129.25,116.22,129.25z"/>
			<path class="st13" d="M138.3,110.38l8-4.99l27.7,19.56l1.49,12.48l-5.01-1.68c0,0,1.75-6.71-8.89-13.8
				C156.16,118.34,138.3,110.38,138.3,110.38z"/>
			<path class="st4" d="M177.34,114.54l-0.29,4.22l-7.32-2.22c0,0,0.79-6.1-1.84-9.19s-5.2-4.43-10.25-4.97
				c-5.05-0.54-10.1,0.2-10.1,0.2l1.89-3.44c0,0,6.15-0.66,12.33,0.6c0,0,2.84,0.38,4.34,1.15c1.51,0.77,3.96,2.71,4.76,3.91
				c0.8,1.2,2.59,5.65,2.45,8.55L177.34,114.54z"/>
			<path class="st17" d="M150.16,98.86l1.54-4.33L182,97.7l-1.83,17.17l-6.35-1.87c0,0-0.49-10.33-9.4-12.96
				C156.6,97.73,150.16,98.86,150.16,98.86z"/>
			<path class="st4" d="M117.55,130.11c0,0,19.84,5.49,24.7,6.68c5.52,1.36,18.66,5.1,22.74,7.61c4.08,2.5,6.49,4.31,7.76,7.98
				l-5.7,0.11c0,0-1.88-4.32-7.09-6.09c-5.21-1.77-43.46-10.27-43.46-10.27L117.55,130.11z"/>
			<path class="st4" d="M175.37,139.94l-0.27-2.15l-5.11-1.74c0,0,0.4-1.82-0.37-4.39c-0.69-2.27-3.9-6.49-7.97-9.15
				c-4.07-2.66-16.69-8.51-23.38-11.61l-3,2.14c0,0,21.34,9.31,25.68,12.52c4.33,3.21,6.67,6.06,5.82,11.84L175.37,139.94z"/>
			<path class="st5" d="M125.95,141.97l-2.14,11.13l21.69-0.41C145.5,152.69,146.32,144.56,125.95,141.97z"/>
			<polygon class="st5" points="131.43,131.69 133.77,128.83 146.84,132.71 145.75,136.08 150.38,138.13 125.28,131.19 			"/>
			<path class="st5" d="M134.4,127.9l10.12-9.98c0,0,6.8,5.19,2.65,13.72L134.4,127.9z"/>
			<polygon class="st5" points="147.12,113.85 151.27,109.58 156.91,113.5 155.78,118.27 			"/>
			<path class="st5" d="M152.06,108.9l4.89-6.02c0,0,3.03,2.27,0.21,9.66L152.06,108.9z"/>
			<polygon class="st7" points="181.45,98.14 179.51,97.94 174.27,112.6 179.73,114.22 			"/>
			<path class="st7" d="M171.04,135.42l4.01,1.33l-1.54-11.52l-2.85-1.96C170.67,123.26,171.6,134.16,171.04,135.42z"/>
			<polygon class="st7" points="173.58,152.07 178.22,152.03 172.2,140.25 169.1,139.36 			"/>
			<g>
				<path class="st12" d="M142.4,105.76c-9.85,0-14.26-10.31-14.31-10.43l1.99-0.67c0.21,0.46,6.9,11.32,17.98,7.54
					c0,0-2.3,3.26-3.34,3.42C143.94,105.73,143.13,105.76,142.4,105.76z"/>
			</g>
			<g>
				<path class="st12" d="M139.89,110.96c-8.89,0-16.61-11.78-17.03-12.35l1.37-1.39c0.11,0.14,11.07,14.44,19.15,9.81
					c8.5-4.88,8.77-18.06,8.78-18.19l3.3,0.12c-0.01,0.6-0.61,14.95-10.59,20.67C143.22,110.56,141.55,110.96,139.89,110.96z"/>
			</g>
			<circle cx="180.06" cy="85.21" r="1.62"/>
			<circle cx="220.89" cy="72.64" r="1.51"/>
			<circle cx="174.53" cy="70.07" r="0.99"/>
			<circle cx="69.09" cy="72.81" r="1.56"/>
			<circle cx="179.43" cy="92.35" r="0.99"/>
			<circle cx="228.58" cy="104.31" r="1.49"/>
			<circle cx="228.17" cy="89.29" r="1.54"/>
			<circle cx="118.36" cy="145.95" r="1.67"/>
			<circle cx="122" cy="148.67" r="0.99"/>
			<circle cx="125.87" cy="122.61" r="0.99"/>
			<circle cx="130.53" cy="124.16" r="0.99"/>
			<circle cx="168.16" cy="150" r="0.99"/>
		</g>
		<g>
			<path class="st17" d="M191.2,88.35c-6.4,0-11.01-2.01-11.3-2.14l0.81-1.83c0.09,0.04,8.33,3.61,16.5,1.13
				c3.54-1.08,5.28-3.55,7.12-6.17c2.82-4.01,6.01-8.56,16.11-7.73l-0.16,1.99c-8.94-0.74-11.55,2.97-14.31,6.89
				c-1.95,2.78-3.98,5.66-8.18,6.94C195.57,88.1,193.33,88.35,191.2,88.35z"/>
		</g>
		<g>
			<path class="st17" d="M82.4,85.82c-4.52,0-8.07-1.23-10.57-3.66c-3.99-3.89-3.76-8.86-3.75-9.1l2,0.1c0,0.05-0.18,4.33,3.16,7.57
				c2.45,2.38,6.21,3.39,11.16,3c2.85-0.22,5.79-0.89,8.63-1.53c7-1.58,14.22-2.89,18.18,2.45l-1.75,1.09
				c-3.18-4.29-9.37-3.08-15.98-1.59c-2.91,0.66-5.92,1.34-8.91,1.57C83.82,85.79,83.1,85.82,82.4,85.82z"/>
		</g>
		<circle class="st6" cx="219.82" cy="72.56" r="0.5"/>
		<circle class="st6" cx="180.73" cy="85.47" r="0.5"/>
		<circle class="st6" cx="69.09" cy="73.6" r="0.5"/>
		<path class="st7" d="M180.23,85.47c0,0-0.06,0.39,0.5,0.54l1.69,0.57c0,0,1.81,0.48,2.35,0.59s2.21,0.43,3.29,0.52
			s3.02,0.21,4.32,0.13c1.29-0.08,2.34-0.17,3.91-0.52c1.57-0.35,3.38-0.94,5-2.22s2.43-2.35,3.74-4.12
			c1.3-1.76,2.05-3.15,3.66-4.65s3.08-2.22,4.84-2.76c1.76-0.54,4.33-0.61,6.11-0.51c0,0,0.15,0.05,0.35-0.01s0.32-0.26,0.33-0.45
			c0,0-2.93-0.07-3.88,0c-0.94,0.07-2.37,0.22-3.64,0.67c-1.27,0.45-1.93,0.77-2.58,1.2c-0.65,0.43-1.57,1.21-2.11,1.75
			c-0.54,0.54-1.56,1.86-1.93,2.34c-0.37,0.48-1.77,2.49-1.77,2.49s-1.14,1.45-1.55,1.88c-0.41,0.42-0.99,1.18-1.91,1.84
			s-1.66,1.11-2.48,1.39s-2.02,0.69-2.9,0.84s-2.34,0.36-3.4,0.35s-1.98,0.07-3.1-0.04c-1.12-0.11-2.48-0.28-3.43-0.48
			c-0.94-0.21-2.5-0.51-3.32-0.78c-0.82-0.26-2.08-0.77-2.08-0.77L180.23,85.47z"/>
		<path class="st7" d="M69.09,73.1c0,0-0.34-0.03-0.5,0.38c-0.16,0.42,0.34,2.7,0.34,2.7s0.7,2.9,2.52,4.83
			c1.82,1.93,2.55,2.41,4.56,3.24c2.01,0.82,4.75,1.15,7.01,1.07c2.27-0.08,4.91-0.42,8.66-1.27c3.75-0.85,6.24-1.35,7.55-1.53
			c1.31-0.18,4.29-0.4,6,0.03c0,0,2.57,0.38,4.31,2.53l0.42-0.25c0,0-1.19-1.49-2.8-2.2c-1.62-0.71-3.18-0.77-4.18-0.77
			s-2.86,0-5.22,0.42s-6.35,1.3-6.35,1.3s-3.89,0.9-5.8,1.03c-1.91,0.13-2.49,0.33-4.5,0.16c-2.01-0.17-3.5-0.42-4.9-1
			c-1.4-0.58-2.05-0.94-3.05-1.84s-1.79-1.72-2.72-3.27c-0.93-1.55-1.03-2.8-1.16-3.37C69.17,74.74,69.13,73.76,69.09,73.1z"/>
		<g>
			<path class="st12" d="M126.36,176.41l-0.35-1.97c5.6-0.99,21.16-5.35,23.38-10.94l1.9,0.64
				C148.21,171.91,127.23,176.26,126.36,176.41z"/>
		</g>
		<circle class="st15" cx="126.61" cy="175.34" r="0.5"/>
		<path class="st9" d="M143.82,170.09l0.73-1.45c0,0,3.97-2.18,5.11-4.54l0.96,0.34c0,0-1.14,2.05-3.06,3.37
			S143.82,170.09,143.82,170.09z"/>
		<g>
			<path class="st21" d="M152.35,161.86l-1.92-0.55c0.09-0.33,0.13-0.89,0.17-1.49c0.1-1.61,0.22-3.61,1.61-4.81
				c0.81-0.7,2.2-1.26,3.57-1.16c1.17,0.08,3.9,1.12,3.9,3.14h-2c0,0.07,0.02,0.13,0.03,0.14c-0.21-0.35-0.9-1.33-2.23-1.4
				c-0.82-0.04-1.58,0.46-1.97,0.79c-0.75,0.65-0.85,2.18-0.92,3.42C152.55,160.65,152.5,161.32,152.35,161.86z"/>
		</g>
		<g>
			<path class="st17" d="M87.93,213.46c-4.19,0-7.97-1.19-11.27-3.57c-9.61-6.91-11.78-21.29-11.87-21.9l1.98-0.29
				c0.02,0.14,2.15,14.16,11.06,20.57c3.96,2.85,8.73,3.79,14.16,2.81c9.52-1.73,16.09-5.33,21.88-8.5
				c7.89-4.32,14.7-8.05,26.14-6.21l-0.32,1.97c-10.75-1.73-17.29,1.85-24.86,5.99c-5.93,3.25-12.64,6.93-22.48,8.71
				C90.83,213.32,89.35,213.46,87.93,213.46z"/>
		</g>
		<path d="M67.28,187.5c0,0.22-0.04,0.42-0.12,0.61c-0.12,0.29-0.79-0.28-1.46-0.26c-0.6,0.02-1.21,0.64-1.33,0.42
			c-0.13-0.23-0.2-0.49-0.2-0.77c0-0.86,0.7-1.56,1.56-1.56C66.58,185.94,67.28,186.64,67.28,187.5z"/>
		<circle class="st6" cx="65.85" cy="188.3" r="0.5"/>
		<circle class="st6" cx="139.39" cy="197.29" r="0.5"/>
		<circle cx="224.19" cy="185.96" r="1.54"/>
		<g>
			<path class="st17" d="M196.03,205.88c-0.77,0-1.55-0.03-2.35-0.08c-6.61-0.45-10.86-2.72-14.97-4.91
				c-5.17-2.76-10.78-5.46-20.88-3.8l1.18-2.06c10-1.59,15.41,1.3,20.64,4.09c3.92,2.09,7.98,4.26,14.16,4.68
				c21.05,1.44,29.05-17.25,29.38-18.05l1.85,0.77C224.96,186.72,216.78,205.88,196.03,205.88z"/>
		</g>
		<circle class="st6" cx="223.88" cy="186.65" r="0.5"/>
		<path class="st7" d="M65.74,187.81c0,0-0.33,0.03-0.39,0.47c0,0,0.25,1.42,0.38,1.95c0.13,0.52,0.62,2.45,0.95,3.48
			s1.2,3.65,2.21,5.62c1.03,2.03,2.13,4.44,4.54,6.99c1.74,1.84,2.99,3.19,6.41,4.88c3.42,1.7,8.2,2.41,14.16,1.02
			c5.99-1.39,9.72-2.79,13.81-4.79c4.26-2.08,9.84-5.26,12.84-6.7c3-1.44,7.79-3.19,11.91-3.28s5.37,0.13,6.55,0.29
			c0,0,0.27,0.09,0.47,0c0.29-0.12,0.3-0.37,0.31-0.42c0,0-1.88-0.2-2.49-0.25s-1.72-0.17-2.84-0.18s-2.65-0.03-4.52,0.27
			c-1.86,0.29-2.72,0.58-4.14,1.01c-1.42,0.43-3.22,1.17-3.87,1.43s-2.97,1.4-3.64,1.77c-0.66,0.38-3.12,1.64-3.39,1.8
			c-0.27,0.16-2.78,1.49-3.49,1.88c-0.71,0.39-4.42,2.17-5.3,2.6c-0.88,0.43-4.59,1.97-6.23,2.37c0,0-4.39,1.31-5.8,1.63
			c-1.4,0.32-4.27,0.81-6.6,0.73s-5.11-0.47-7.95-1.94c-2.4-1.24-3.74-2.42-3.74-2.42s-2.3-1.96-4.67-5.51
			c-1.07-1.6-2.28-4.28-2.88-5.78C67.5,194.59,66.38,191.4,65.74,187.81z"/>
		<path class="st7" d="M159.12,195.82l-0.35,0.61c0,0,4.45-0.52,6.48-0.31c2.02,0.2,5.02,0.5,8.17,1.73
			c3.15,1.23,6.97,3.39,6.97,3.39s4.22,2.18,6.61,2.84c2.39,0.66,4.62,1.25,7.82,1.28c3.2,0.04,5.19-0.13,7.32-0.56
			c2.13-0.42,5.7-1.58,7.79-2.76c2.58-1.45,5.69-3.56,8.92-7.1c3.08-3.37,5.11-7.23,5.5-8.08c0,0,0.13-0.47-0.26-0.66
			c0,0-1.96,3.99-4.05,6.61c-2.02,2.54-4.46,4.68-6.39,6.2c-1.93,1.51-4.77,3.36-9.88,4.82c-4.74,1.36-10.6,1.26-14.36,0.3
			s-8.11-2.84-10-3.96c-1.89-1.12-5.71-3.1-8.76-3.82c-3.05-0.72-6.74-0.89-8.79-0.7C159.83,195.85,159.12,195.82,159.12,195.82z"/>
		<circle class="st12" cx="75.07" cy="207.08" r="2.25"/>
		<circle class="st12" cx="108.52" cy="206.65" r="2.25"/>
		<circle class="st12" cx="178.14" cy="199.42" r="2.25"/>
		<circle class="st12" cx="201.76" cy="83.84" r="2.25"/>
		<circle class="st12" cx="85.76" cy="84.69" r="2.25"/>
		<circle class="st12" cx="109.94" cy="127.99" r="2.25"/>
		<circle class="st12" cx="108.54" cy="142.31" r="2.25"/>
		<circle class="st12" cx="118.81" cy="115.63" r="2.25"/>
		<circle class="st12" cx="207.71" cy="202.65" r="2.25"/>
		<path class="st4" d="M246.44,129.85v2.22c0,0-4.99,1.78-6.75,4.06s-3.87,2.96-6.23,12.15c0,0-1.25,8.33-1.9,25.08
			c-0.07,1.81-0.78,7.2-0.78,7.2s-1.23,5.35-6.19,9.08l-1.08,0.76l2.11-3.84c0,0,0.41-0.99-0.39-1.78c0,0,2.38-3.6,2.48-7.17
			s0.07-16.23,0.07-16.23s-0.46-12.04,2.97-19.06C234.18,135.32,238.83,131.31,246.44,129.85z"/>
		<path class="st4" d="M42.92,130.6v2.22c0,0,4.99,1.78,6.75,4.06s3.87,2.96,6.23,12.15c0,0,1.25,8.33,1.9,25.08
			c0.07,1.81,0.78,7.2,0.78,7.2s1.23,5.35,6.19,9.08l-0.48-2.19l-0.14-0.72c0,0,0.09-1.08,0.93-1.4c0,0-3.34-4.14-3.44-7.71
			s-0.07-16.23-0.07-16.23s0.46-12.04-2.97-19.06C55.18,136.08,50.52,132.06,42.92,130.6z"/>
		<polygon class="st17" points="223.9,108.13 250.27,132.01 250.46,134.85 228.36,128.17 		"/>
		<polygon class="st7" points="249.46,134.07 228.83,117.51 231.58,128.6 		"/>
		<polygon class="st17" points="224.24,152.5 250.6,128.61 250.8,125.77 228.69,132.45 		"/>
		<polygon class="st7" points="249.85,126.58 229.22,143.04 231.96,131.99 		"/>
		<circle cx="61.22" cy="104.91" r="0.99"/>
		<circle cx="61.78" cy="90.51" r="0.99"/>
		<polygon class="st17" points="65.99,109.12 39.63,133.01 39.43,135.84 61.54,129.16 		"/>
		<polygon class="st7" points="40.44,135.06 61.07,118.51 58.32,129.6 		"/>
		<polygon class="st17" points="65.66,153.49 39.29,129.61 39.1,126.77 61.2,133.45 		"/>
		<polygon class="st7" points="40.04,127.62 60.68,144.03 57.93,133.02 		"/>
		<g>
			<g>
				<path class="st17" d="M227.44,103.99c-1.93-6.8-0.37-14.36-0.31-14.68l1.96,0.41c-0.02,0.07-1.52,7.41,0.27,13.73L227.44,103.99
					z"/>
			</g>
			<circle class="st6" cx="228.01" cy="90.04" r="0.5"/>
			<circle class="st6" cx="228.28" cy="103.26" r="0.5"/>
		</g>
		<circle class="st22" cx="87.66" cy="123.19" r="3.37"/>
		<circle class="st23" cx="87.66" cy="154.06" r="3.37"/>
		<g>
			<circle cx="60.88" cy="105.3" r="1.49"/>
			<circle cx="61.29" cy="90.27" r="1.54"/>
			<g>
				<g>
					<path class="st17" d="M62.02,104.98c1.93-6.8,0.37-14.36,0.31-14.68l-1.96,0.41c0.02,0.07,1.52,7.41-0.27,13.73L62.02,104.98z"
						/>
				</g>
				<circle class="st6" cx="61.45" cy="91.02" r="0.5"/>
				<circle class="st6" cx="61.18" cy="104.25" r="0.5"/>
			</g>
		</g>
		<polygon class="st24" points="205.45,128.75 201.45,128.75 199.45,132.11 201.45,135.46 205.45,135.46 207.45,132.11 		"/>
		<polygon class="st17" points="205.47,141.65 201.43,141.65 199.41,145.01 201.43,148.36 205.47,148.36 207.5,145.01 		"/>
		<circle cx="203.53" cy="132.21" r="1.53"/>
		<circle cx="203.5" cy="145.04" r="1.53"/>
		<g>
			<path class="st5" d="M119.13,236.44h3.17c0.5,0,0.89,0.1,1.17,0.32c0.28,0.21,0.46,0.51,0.56,0.89s0.14,0.87,0.14,1.46
				c0,0.54-0.08,0.96-0.23,1.26c-0.15,0.3-0.42,0.51-0.79,0.63c0.31,0.06,0.54,0.2,0.68,0.43c0.14,0.23,0.21,0.54,0.21,0.93
				l-0.02,3.61H122v-3.73c0-0.27-0.06-0.44-0.17-0.51c-0.11-0.07-0.32-0.11-0.61-0.11v4.35h-2.09V236.44z M121.73,239.97
				c0.29,0,0.43-0.29,0.43-0.86c0-0.25-0.01-0.44-0.04-0.57s-0.07-0.21-0.13-0.26c-0.06-0.05-0.16-0.07-0.28-0.07h-0.48v1.76H121.73
				z"/>
			<path class="st5" d="M125.96,245.97v-9.53h1.99v9.53H125.96z"/>
			<path class="st5" d="M129.98,245.97v-9.53h3.14l0.86,5.81l0.86-5.81h3.17v9.53h-1.88v-6.87l-1.19,6.87h-1.85l-1.26-6.87v6.87
				H129.98z"/>
			<path class="st5" d="M140.67,245.72c-0.26-0.23-0.43-0.53-0.52-0.9c-0.08-0.37-0.13-0.85-0.13-1.44l0.02-3.66
				c0-0.58,0.16-1.05,0.47-1.41c0.32-0.37,0.76-0.55,1.34-0.55c0.57,0,0.99,0.17,1.27,0.52v-1.9h2.1v9.59h-2.1v-0.86
				c-0.12,0.32-0.28,0.56-0.49,0.72c-0.2,0.16-0.48,0.24-0.82,0.24C141.31,246.06,140.93,245.94,140.67,245.72z M143.04,244.25
				c0.06-0.19,0.1-0.44,0.1-0.76v-0.34v-3.05c0-0.24-0.04-0.44-0.11-0.6c-0.07-0.16-0.2-0.24-0.38-0.24c-0.21,0-0.35,0.08-0.41,0.23
				s-0.1,0.36-0.1,0.62v3.42c0,0.68,0.17,1.02,0.5,1.02C142.84,244.54,142.97,244.44,143.04,244.25z"/>
			<path class="st5" d="M147.79,245.37c-0.39-0.46-0.59-1.14-0.59-2.05v-3.26c0-0.75,0.23-1.32,0.7-1.71s1.11-0.59,1.94-0.59
				c1.69,0,2.53,0.77,2.53,2.3v0.59c0,0.59-0.01,1.07-0.02,1.44h-3.05v1.58c0,0.28,0.03,0.5,0.1,0.66c0.06,0.16,0.2,0.24,0.41,0.24
				c0.16,0,0.27-0.04,0.34-0.13s0.11-0.19,0.12-0.31c0.01-0.11,0.02-0.28,0.02-0.5v-0.79h2.09v0.47c0,0.95-0.2,1.64-0.59,2.09
				c-0.4,0.45-1.08,0.67-2.05,0.67C148.83,246.06,148.18,245.83,147.79,245.37z M150.29,241.12v-1.04c0-0.58-0.16-0.88-0.47-0.88
				c-0.35,0-0.53,0.29-0.53,0.88v1.04H150.29z"/>
			<path class="st5" d="M155.45,245.97l-1.4-8.12h2.1l0.43,4.11l0.07,1.32l0.08-1.33l0.48-4.09h2.1l-1.43,8.12H155.45z"/>
			<path class="st5" d="M160.97,245.97v-1.62h2.1v1.62H160.97z"/>
			<path class="st5" d="M165,237.3v-1.35h2.1v1.35H165z M165,245.97v-8.12h2.1v8.12H165z"/>
			<path class="st5" d="M169.05,243.54v-3.26c0-0.77,0.23-1.38,0.7-1.84c0.47-0.46,1.11-0.68,1.93-0.68s1.46,0.23,1.93,0.68
				c0.47,0.45,0.7,1.07,0.7,1.84v3.26c0,1.68-0.88,2.52-2.63,2.52S169.05,245.22,169.05,243.54z M172.05,244.39
				c0.08-0.11,0.12-0.26,0.12-0.46v-3.97c0-0.47-0.16-0.71-0.49-0.71c-0.33,0-0.49,0.24-0.49,0.71v3.97c0,0.19,0.04,0.34,0.12,0.46
				c0.08,0.11,0.2,0.17,0.37,0.17S171.97,244.5,172.05,244.39z"/>
		</g>
		<g>
			<path class="st17" d="M83.19,122.72c-11.17-3.66-16.75-13.73-16.85-14.11l0.16-4.02c0.02,0.08,4.53,11.39,17.39,16.26
				L83.19,122.72z"/>
		</g>
		<g>
			<path class="st17" d="M115.75,147.23c-7.62,0-15.53-5.12-18.69-13.49c-3.42-9.08-10.83-10.17-10.9-10.18l0.43-1.95
				c0.35,0.08,8.5,1.61,12.32,11.38c3.3,8.43,10.99,13.38,18.49,12.06l0.35,1.97C116.89,147.17,116.63,147.23,115.75,147.23z"/>
		</g>
		<circle class="st6" cx="117.14" cy="146.11" r="0.53"/>
		<ellipse class="st6" cx="86.74" cy="122.65" rx="0.48" ry="0.52"/>
		<path class="st4" d="M183.85,177.79c0,0,0.24,0.48-0.15,1.02s-1.96,2.44-10.28,4.01c-8.32,1.57-19.24,2.23-30.15,2.23
			s-24.25-1.24-32.29-3.67c0,0-4.25-1.36-4.77-2.96c0,0-0.13-0.12,0.57-2c0,0,1.52,1.7,4.68,2.69s14.24,4.09,32.31,3.76
			s20.7-0.66,27.3-1.71c6.59-1.05,12.4-4.35,12.4-4.35L183.85,177.79z"/>
		<circle cx="226.87" cy="165.49" r="1.58"/>
		<g>
			<path class="st13" d="M217.79,168.4c-2.28,0-4.69-0.31-7.05-0.93c-6.25-1.66-11.19-5.21-13.9-10.01
				c-5.63-9.96-21.66-13.41-21.82-13.44l-1.14-2.41c0.68,0.14,18.2,3.42,24.7,14.87c2.45,4.32,6.95,7.54,12.67,9.06
				c5.3,1.4,11.1,1.34,15.1-0.99l0.43,1.84C224.57,167.71,221.18,168.4,217.79,168.4z"/>
		</g>
		<circle class="st6" cx="226.13" cy="165.71" r="0.41"/>
		<polygon class="st7" points="230.96,128.43 242.09,125.27 244.3,127.26 235.61,129.84 		"/>
		<polygon class="st6" points="228.66,134.85 250.06,127.46 250.3,126.32 229.13,132.88 		"/>
		<polygon class="st7" points="58.95,129.41 47.82,126.24 45.61,128.24 54.3,130.82 		"/>
		<polygon class="st6" points="61.22,135.78 39.85,128.44 39.61,127.3 60.77,133.83 		"/>
		<path class="st4" d="M65.39,153.91l0.2,3.12l-9.68-7.5c0,0-0.95-4.3-1.59-5.64L65.39,153.91z"/>
		<polygon class="st5" points="39.75,129.37 39.61,127.3 60.77,133.83 61.36,136.57 60.06,136.18 59.73,134.38 40.42,128.01 
			40.53,130.01 		"/>
		<polygon class="st5" points="250.12,128.42 250.3,126.32 229.1,132.86 228.51,135.63 229.81,135.24 230.14,133.44 249.46,127.06 
			249.35,129.06 		"/>
		<path class="st4" d="M224.03,104.88l0.11,2.85l10.58,9.53c0,0-1.08-3.44-1.14-3.99L224.03,104.88z"/>
		<path class="st4" d="M65.77,105.9l-0.11,2.85l-11.14,10.18c0,0,1.29-4.02,1.35-4.57L65.77,105.9z"/>
	</g>
	<g>
		<path class="st17" d="M210.54,124.73c-2.33,0-4.05-1.97-4.78-2.98c-0.23-0.32,0.11-0.48,0.08-0.52l1.26-1.06
			c0.02,0.03,1.93,3.26,4.26,2.41c0.95-0.35,2.54-3.75,3.82-6.49c2.33-4.98,4.78-10.59,8.39-11.31l0.02,2.24
			c-2.62,0.52-4.58,5.59-6.6,9.92c-2.06,4.4-3.3,6.92-4.94,7.52C211.53,124.64,211.02,124.73,210.54,124.73z"/>
	</g>
	<circle cx="174.24" cy="120.8" r="1.51"/>
	<polygon class="st12" points="205.79,116.33 201.74,116.33 199.72,119.69 201.74,123.04 205.79,123.04 207.81,119.69 	"/>
	<circle cx="203.72" cy="119.73" r="1.91"/>
	<g>
		<path class="st17" d="M186.28,128.33c-6.85,0-12.26-6.23-12.5-6.51l1.52-1.3c0.06,0.06,5.58,6.4,11.91,5.77
			c5.27-0.54,7.77-2.62,9.98-4.46c1.63-1.36,3.18-2.64,5.48-3.02l0.33,1.97c-1.77,0.29-2.99,1.3-4.53,2.59
			c-2.31,1.92-5.18,4.31-11.05,4.91C187.04,128.32,186.66,128.33,186.28,128.33z"/>
	</g>
	<circle class="st6" cx="202.37" cy="119.89" r="0.5"/>
	<circle class="st6" cx="174.93" cy="121.61" r="0.52"/>
</g>
<circle class="st25" cx="435.73" cy="143.01" r="133.46"/>
<g>
	<g>
		<g>
			<ellipse class="st0" cx="437.31" cy="189.37" rx="13.6" ry="3.76"/>
			<path class="st1" d="M458.18,214.91c-2.49-1.64-11.94-8.15-11.94-12.65c0-5.18,5.85-10.36,5.85-10.36c0-0.62-0.86-2.1-1.12-2.31
				c-0.05,2.06-6.12,3.73-13.6,3.73c-7.45,0-13.5-1.66-13.6-3.71c-0.28,0.27-1.1,1.69-1.1,2.29c0,0,5.85,5.01,5.85,10.36
				c0,5.35-12.54,13.04-12.54,13.04c-0.01,0.01-0.01,0.02-0.02,0.04c-0.3,0.26-0.46,0.62-0.46,1.11c0,4.06,9.79,7.35,21.86,7.35
				s21.86-3.29,21.86-7.35C459.22,215.6,458.86,215.14,458.18,214.91z"/>
			<polyline class="st2" points="428.04,204.29 440.1,205.54 446.06,202.95 			"/>
			<polyline class="st2" points="441.03,202.62 440.1,205.54 450.53,221.81 			"/>
			<path class="st3" d="M415.58,215.83v5.87c0,0,1.85,0.79,6.06,1.47c5.48,0.88,11.18,1.41,18.42,1.26
				c6.92-0.15,14.21-1.08,19.3-3.77l-0.19-4.96c0,0-4.26,1.87-12.46,3.09c-8.21,1.22-16.81,0.28-20.38-0.22
				C422.41,218.03,416.7,216.98,415.58,215.83z"/>
			<path class="st4" d="M424.38,209.55c0,0-5.38,4.22-8.1,6.17c0,0,0.66,0.79,6.2,1.72c2.26,0.38,8.71,1.49,14.47,1.48
				c2.4,0,8.09-0.17,10.64-0.79l-1.5-2.27c0,0-0.78,0.37-4.08,0.59c-3.33,0.22-14.77-0.14-16.48-2.4
				C423.82,211.78,424.38,209.55,424.38,209.55z"/>
			<polygon class="st5" points="428.32,204.86 431.23,205.97 430.08,209.29 435.7,210.03 436.57,206.21 439.73,206.05 			"/>
			<polyline class="st2" points="428.41,201.87 441.15,202.86 446.36,200.44 			"/>
			<path class="st6" d="M428.7,203.86c0,0,0.35-0.99,0.31-1.44l11.24,0.87l-0.52,1.68L428.7,203.86z"/>
			<path class="st7" d="M441.27,203.34l-0.38,1.29l4.88-2.1c0,0-0.07-0.78,0.05-1.29L441.27,203.34z"/>
			<path class="st7" d="M451.53,191.66"/>
			<path class="st4" d="M449.51,191.85l-6.48,3.33l-1.42,6.91l-0.54,0.26l-12.12-0.94l11.01-1.23l1.41-6.54c0,0,2.08-0.16,4.17-0.57
				C447.47,192.7,449.51,191.85,449.51,191.85z"/>
			<path class="st4" d="M441.51,192.4l-1.27-2.11c0,0,0.84-0.16,1.24-0.59l-0.36-3.46c0,0,4.72,0.13,8.38,2.01
				c0,0,1.18,0.65,0.82,1.42C449.75,190.88,445.26,192.29,441.51,192.4z"/>
			<path d="M451.1,190.59c0,0-0.86,0.89-2.61,1.79c-1.75,0.89-5.45,2.81-5.45,2.81l-1.42,6.91l4.49-2.02c0,0,1.75-4.69,5.52-8.37
				L451.1,190.59z"/>
			<circle cx="451.56" cy="214.81" r="0.99"/>
			<circle cx="448.06" cy="211.12" r="0.99"/>
			<circle cx="430.85" cy="196.33" r="1.54"/>
			<circle cx="435.84" cy="196.97" r="0.99"/>
			<path class="st7" d="M416.06,219.6v1.75c0,0,5.63,1.75,12.17,2.2c6.53,0.45,11.77,0.56,17.35,0.06c5.58-0.51,8-1.07,13.35-3.27
				l-0.17-1.69c0,0-3.77,2.25-13.41,3.38c-6.89,0.81-11.04,0.34-17.07-0.23C422.91,221.29,416.06,219.6,416.06,219.6z"/>
			<ellipse class="st1" cx="437.16" cy="189.52" rx="8.89" ry="1.9"/>
			<g>
				<g>
					<path class="st8" d="M433.77,186.19l0.34,2.97c0,0,2.67,2.02,6.87-0.03l-0.39-3.29C440.6,185.83,437.93,188.55,433.77,186.19z"
						/>
					<path class="st9" d="M438.19,187.55c0,0,1.02-0.17,2.02-0.8l0.24,2.07c0,0-2.54,1.37-5.32,0.33c0,0,2.97,0.31,3.03-0.43
						C438.23,187.97,438.19,187.55,438.19,187.55z"/>
					<path class="st10" d="M435.27,187.38l0.2,1.49c0,0,1.04,0.01,1.19-1.22C436.67,187.65,435.71,187.52,435.27,187.38z"/>
				</g>
				<g>
					<path class="st8" d="M433.64,182.88l0.12,2.98c0,0,2.52,2.21,6.85,0.48l-0.16-2.92C440.46,183.42,437.61,185.55,433.64,182.88z
						"/>
					<path class="st9" d="M438.15,184.7c0,0,0.95-0.05,1.88-0.53l0.08,1.84c0,0-0.97,0.29-1.29,0.36c-0.28,0.06-0.59,0.09-0.59,0.09
						s0.07-0.15,0.06-0.89C438.28,185.04,438.15,184.7,438.15,184.7z"/>
					<path class="st10" d="M435.03,184.2l0.14,1.9c0,0,0.55,0.19,0.73,0.24c0.2,0.05,0.78,0.14,0.78,0.14s-0.25-1.08-0.17-1.85
						C436.52,184.62,435.47,184.4,435.03,184.2z"/>
				</g>
			</g>
		</g>
		<path class="st1" d="M537.75,128.48C537.75,128.48,537.75,128.48,537.75,128.48c-7.75-2.72-12.21-9.55-13.54-20.33
			c-0.67-9.19-1.5-18.22-2.17-27.41c-2.34-9.19-8.86-13.87-19.56-13.87h-2.84v3.01c4.85,0.33,8.69,2.01,11.37,5.01
			s4.01,6.85,4.01,11.37c0,1.84-0.17,4.68-0.33,8.52c-0.17,3.84-0.33,6.85-0.33,8.69c0,12.7,4.18,21.56,12.37,26.58
			c-8.36,5.01-12.54,13.87-12.54,26.58c0,1.84,0.17,4.68,0.33,8.52s0.33,6.85,0.33,8.69c0,4.51-1.34,8.36-4.18,11.37
			s-6.52,4.68-11.37,5.01v3.01c12.37,0.17,19.89-4.35,22.73-13.54c0.67-9.19,1.34-18.39,2.01-27.58c1-11.03,5.52-18.05,13.71-20.73
			C537.75,131.38,537.8,128.5,537.75,128.48z"/>
		<path class="st11" d="M371.57,66.78c-12.37-0.17-19.89,4.35-22.56,13.54c-0.67,9.19-1.34,18.39-2.01,27.58
			c-1,11.03-5.52,18.05-13.71,20.73v3.34c7.86,2.67,12.37,9.53,13.71,20.39c0.61,8.34,1.35,16.54,1.98,24.86
			c0.2,2.69,0.88,5.35,2.2,7.71c3.23,5.78,9.08,8.72,17.55,8.72h2.84v-3.01c-4.85-0.33-8.69-2.01-11.37-5.01
			c-2.67-3.01-4.01-6.85-4.01-11.37c0-1.84,0.17-4.68,0.33-8.52s0.33-6.69,0.33-8.69c0-12.7-4.18-21.56-12.37-26.58
			c8.36-5.01,12.54-13.87,12.54-26.58c0-1.84-0.17-4.68-0.33-8.52c-0.33-3.84-0.33-6.69-0.33-8.69c0-4.51,1.34-8.36,4.18-11.37
			c2.84-3.01,6.52-4.68,11.37-5.01L371.57,66.78L371.57,66.78z"/>
		<g>
			<path class="st12" d="M463.64,159.89c-2.97-5.95-12.63-8-12.72-8.01l0.29-1.98c0.41,0.06,10.78,2.21,14.22,9.1L463.64,159.89z"/>
		</g>
		<g>
			<ellipse class="st13" cx="435.34" cy="162.92" rx="34.13" ry="7.35"/>
			<path class="st13" d="M469.93,162.92c-4.03,3.15-17.87,5.46-34.33,5.46c-16.46,0-30.3-2.32-34.33-5.46
				c-0.69,0.27-1.19,0.93-1.19,1.71c0,0.05,0.01,0.1,0.02,0.15c0,0.04-0.02,0.08-0.02,0.12c0,4.06,15.9,7.35,35.52,7.35
				s35.52-3.29,35.52-7.35c0-0.04-0.01-0.08-0.02-0.12c0-0.05,0.02-0.1,0.02-0.15C471.12,163.85,470.62,163.18,469.93,162.92z"/>
			<ellipse class="st8" cx="436.47" cy="161.81" rx="21.81" ry="3.6"/>
		</g>
		<g>
			<g>
				<path class="st8" d="M432.33,159.17l0.34,2.97c0,0,2.67,2.02,6.87-0.03l-0.39-3.29C439.15,158.81,436.48,161.53,432.33,159.17z"
					/>
				<path class="st9" d="M436.75,160.52c0,0,1.02-0.17,2.02-0.8l0.24,2.07c0,0-2.54,1.37-5.32,0.33c0,0,2.97,0.31,3.03-0.43
					C436.78,160.95,436.75,160.52,436.75,160.52z"/>
				<path class="st10" d="M433.83,160.36l0.2,1.49c0,0,1.04,0.01,1.19-1.22C435.22,160.63,434.26,160.5,433.83,160.36z"/>
			</g>
			<g>
				<path class="st8" d="M432.2,155.86l0.12,2.98c0,0,2.52,2.21,6.85,0.48l-0.16-2.92C439.01,156.4,436.16,158.53,432.2,155.86z"/>
				<path class="st9" d="M436.7,157.67c0,0,0.95-0.05,1.88-0.53l0.08,1.84c0,0-0.97,0.29-1.29,0.36c-0.28,0.06-0.59,0.09-0.59,0.09
					s0.07-0.15,0.06-0.89C436.83,158.01,436.7,157.67,436.7,157.67z"/>
				<path class="st10" d="M433.58,157.18l0.14,1.9c0,0,0.55,0.19,0.73,0.24c0.2,0.05,0.78,0.14,0.78,0.14s-0.25-1.08-0.17-1.85
					C435.07,157.6,434.03,157.38,433.58,157.18z"/>
			</g>
			<g>
				<path class="st8" d="M432.07,152.84l0.12,2.98c0,0,2.52,2.21,6.85,0.48l-0.16-2.92C438.88,153.38,436.03,155.51,432.07,152.84z"
					/>
				<path class="st9" d="M436.57,154.65c0,0,0.95-0.05,1.88-0.53l0.08,1.84c0,0-0.97,0.29-1.29,0.36c-0.28,0.06-0.59,0.09-0.59,0.09
					s0.07-0.15,0.06-0.89C436.7,154.99,436.57,154.65,436.57,154.65z"/>
				<path class="st10" d="M433.45,154.16l0.14,1.9c0,0,0.55,0.19,0.73,0.24c0.2,0.05,0.78,0.14,0.78,0.14s-0.25-1.08-0.17-1.85
					C434.94,154.58,433.9,154.36,433.45,154.16z"/>
			</g>
			<g>
				<path class="st8" d="M432.1,150.06l0.12,2.98c0,0,2.52,2.21,6.85,0.48l-0.16-2.92C438.92,150.6,436.07,152.73,432.1,150.06z"/>
				<path class="st9" d="M436.61,151.88c0,0,0.95-0.05,1.88-0.53l0.08,1.84c0,0-0.97,0.29-1.29,0.36c-0.28,0.06-0.59,0.09-0.59,0.09
					s0.07-0.15,0.06-0.89C436.74,152.21,436.61,151.88,436.61,151.88z"/>
				<path class="st10" d="M433.49,151.38l0.14,1.9c0,0,0.55,0.19,0.73,0.24c0.2,0.05,0.78,0.14,0.78,0.14s-0.25-1.08-0.17-1.85
					C434.97,151.8,433.93,151.58,433.49,151.38z"/>
			</g>
		</g>
		<path class="st14" d="M444.4,164.23c-11.94,0-21.62-1.36-21.62-3.05c0-0.91,2.82-1.72,7.28-2.28c-8.6,0.4-14.81,1.54-14.81,2.89
			c0,1.68,9.68,3.05,21.62,3.05c5.51,0,10.53-0.29,14.35-0.77C449.08,164.17,446.79,164.23,444.4,164.23z"/>
		<path class="st9" d="M444.98,93.27c0,0,0.81-3.92,0.72-4.88l-2.33-0.09c0,0-0.28,4.13-1.13,6.7s-1.45,4.53-3,6.79
			c-1.69,2.46-3.52,3.76-4.5,4.44l5.75-2.66c0,0,1.58-2.16,2.45-4.16C443.95,97.08,444.83,94.31,444.98,93.27z"/>
		<g>
			<path class="st1" d="M475.22,177.06L475.2,177c-0.02-0.22-0.09-0.43-0.22-0.65l-3.61-10.82c0-0.18-0.04-0.35-0.11-0.51
				c-0.32,4-16.1,7.23-35.54,7.23c-18.53,0-33.74-2.93-35.4-6.68l-3.59,10.78c-0.12,0.21-0.19,0.43-0.22,0.65l-0.02,0.06
				c0,0.02,0,0.04,0.01,0.05c0,0.01-0.01,0.02-0.01,0.04c0,4.06,17.62,7.35,39.36,7.35c21.74,0,39.36-3.29,39.36-7.35
				c0-0.01,0-0.02-0.01-0.04C475.21,177.09,475.22,177.08,475.22,177.06z"/>
			<path class="st12" d="M448.22,176.08c0,0-9.47,0.38-12.63,0.38c-3.08,0-12.3-0.38-12.3-0.38v-3.97c0,0,9.31,0.38,12.42,0.38
				c3.13,0,12.52-0.38,12.52-0.38V176.08z"/>
			<path class="st12" d="M400.63,166.33l-1.59,4.67c0,0,6.56,3.18,12.62,4.27v-4.57C411.66,170.7,404.21,169.21,400.63,166.33z"/>
			<path class="st12" d="M471.37,165.53l1.88,5.28c0,0-7.15,4.27-15.89,4.67v-4.57C457.36,170.9,465.62,170.38,471.37,165.53z"/>
			<circle cx="416.97" cy="174.37" r="1.94"/>
			<circle cx="452.79" cy="174.65" r="1.94"/>
			<path class="st14" d="M400.89,167.1l-0.7,2.14l10.94,3.76l0.03-1.92C411.16,171.08,403.62,169.1,400.89,167.1z"/>
			<path class="st14" d="M423.77,172.6c0,0,9.41,0.77,23.88,0.04l0.07,1.47c0,0-15.93,0.62-23.99-0.04L423.77,172.6z"/>
			<path class="st14" d="M457.84,171.36v1.69c0,0,7.24-0.73,13.98-4.83l-0.72-1.93C471.1,166.28,468.12,169.67,457.84,171.36z"/>
		</g>
		<path class="st5" d="M403.06,165.37c0,0,8.7,2.98,16.55,3.67c8.68,0.77,22.78,0.65,27.02,0.28l0.14,1.21
			c0,0-17.81,0.51-27.43-0.33s-16.37-3.86-16.37-3.86L403.06,165.37z"/>
		<path class="st5" d="M454.46,168.6l0.15,1.13c0,0,7.78-0.83,13.14-3.1l-0.38-1.06C467.37,165.58,463.14,167.54,454.46,168.6z"/>
		<path class="st2" d="M464.57,62.36c0,0,3.46,2.91,5.66,8.21"/>
		<path class="st9" d="M420.53,94.15c0,0,2.82,3.76,4.84,5.15c2.02,1.39,4.6,2.61,6.37,2.93s4.46,0.17,5.78-0.21
			c0,0-1.11,1.46-1.99,2.02c0,0-6.2-0.77-8.88-2.75C423.98,99.31,421.86,96.9,420.53,94.15z"/>
		<path class="st5" d="M452.48,51.06l2.2,1.57l3.66-2.67c0,0-1.28-0.93-2.73-1.39L452.48,51.06z"/>
		<g>
			<g>
				<path class="st12" d="M451.86,175.03c-0.26-0.65-0.47-1.34-0.69-2.08c-1.37-4.54-3.24-10.75-21.39-12.59
					c-22.19-2.25-23.79-12.23-23.85-12.65l1.98-0.28c0,0.02,0.37,2.2,3.2,4.61c2.67,2.28,8.12,5.23,18.87,6.33
					c19.47,1.98,21.65,9.22,23.1,14.01c0.21,0.69,0.4,1.34,0.63,1.9L451.86,175.03z"/>
			</g>
			
				<ellipse transform="matrix(0.9228 -0.3852 0.3852 0.9228 -32.17 187.7778)" class="st15" cx="452.62" cy="174.19" rx="0.5" ry="0.26"/>
		</g>
		<g>
			<path class="st16" d="M469.11,150.96c-1.03-2.13-13.83-12.3-14.12-21.7c-0.17-10.53,18.04-23.78,17.39-47.02
				c-0.72-25.43-27.91-29.75-27.91-29.75c13.48-6.2-9.83-20.92-9.83-20.92l1.64,21.59c-14.88,1-20.89,10.03-20.89,10.03l3.38,8.33
				c0,0-19.93,14.73-24.77,18.58c-4.68,3.84,2.01,13.71,2.01,13.71l4.85-1.17l8.52,2.17c0,0,4.18-14.71,14.37-10.86
				c10.36,3.84,18.55-2.84,18.55-2.84c3.01,11.87-13.37,17.88-30.59,30.75c-8.36,6.35,10.17,20.85,10.17,20.85l-4.8,5.14
				c0,4.06,0.35-1.37,18.51-1.37c18.16,0,24.68,3.89,24.68-0.17c0-0.17,8.98,5.13,8.93,4.97
				C469.19,151.16,469.16,151.06,469.11,150.96z"/>
			<polygon class="st11" points="422.71,73.47 411.58,80.83 406.4,77.59 412.88,71.97 415.6,61.71 439.28,47.3 440.85,52.33 
				430.55,63.56 			"/>
			<path class="st4" d="M438.31,54.42l-7.96,8.64c0,0-2.64,0.15-4.31,1.26c-1.5,0.99-2.41,2.29-3.26,3.73
				c-1.08,1.84-0.7,5.23-0.7,5.23l-10.49,6.94l7.97-8.28c0,0,0.09-4.27,1.97-6.61c1.12-1.39,2.46-2.81,3.52-3.27
				c1.33-0.58,2.76-1.17,5.15-1.27L438.31,54.42z"/>
			<polygon class="st5" points="410.48,79.54 407.04,77.67 413.33,72.23 416,62.05 439.02,48.02 438.28,51.06 417.85,63.74 
				415.21,73.44 410.68,77.08 			"/>
			<path class="st13" d="M422.68,73.51L416,77.9l13.75,8.88l37.42-26.61l0.21-6.84l-22.04,12.14c0,0-2.75-5.9-9.37-7.61l-5.42,5.72
				L422.68,73.51z"/>
			<polygon class="st7" points="429.77,86.13 466.91,54.2 466.64,60.01 			"/>
			<polygon class="st12" points="438.66,71.43 451.34,65.16 451.01,67.81 437,76.94 			"/>
			<g>
				<circle class="st12" cx="430.55" cy="71.69" r="8.12"/>
				
					<rect x="426.1" y="70.11" transform="matrix(0.7808 -0.6248 0.6248 0.7808 49.6569 284.7411)" class="st17" width="8.99" height="3"/>
				<path class="st5" d="M430.84,67.25c-0.02-0.04-0.04-0.08-0.06-0.11c-0.87-1.2-2.56-1.47-3.76-0.6c-1.2,0.87-1.47,2.56-0.6,3.76
					c0.03,0.04,0.06,0.06,0.09,0.1L430.84,67.25z"/>
				<path class="st9" d="M433.81,64.85c1.48,1.39,2.41,3.36,2.41,5.55c0,4.22-3.42,7.64-7.64,7.64c-1.12,0-2.17-0.25-3.13-0.68
					c1.37,1.29,3.2,2.08,5.23,2.08c4.22,0,7.64-3.42,7.64-7.64C438.31,68.71,436.46,66.05,433.81,64.85z"/>
			</g>
			<path class="st7" d="M436.1,58.39l-4.45,4.73c0,0,1.42,0.21,2.69,0.82s2.16,1.49,2.69,2.05c0.53,0.57,1.23,1.79,1.42,2.24
				s0.53,1.47,0.65,2.4l2.55-1.25c0,0-0.35-1.97-1.12-3.55c-0.77-1.57-3.92-3.82-3.92-3.82l2.63-2.29
				C439.24,59.72,437.52,58.73,436.1,58.39z"/>
			<circle class="st18" cx="430.52" cy="71.63" r="11.2"/>
			<path class="st12" d="M436.35,57.68l8.09-8.4c0,0,7.62,0.39,13.35,9.09l-12.34,6.89C445.44,65.27,441.96,59.31,436.35,57.68z"/>
			<path class="st9" d="M444.59,49.8c0,0,1.67,0.18,2.78,0.67l-3.92,4.06c0,0,3.26,2.25,5.22,4.8l6.41-3.65c0,0,1.42,1.64,2,2.54
				l-11.46,6.4c0,0-1.66-2.52-3.46-4.06c-1.8-1.54-3.35-2.54-4.91-3.11L444.59,49.8z"/>
			<polygon class="st1" points="448.2,50.1 450.47,42.18 433.73,30.05 435.5,49.41 439.29,47.01 440.83,51.92 444.1,49 			"/>
			<polygon class="st4" points="449.89,42.38 440.09,47.87 441.22,51.51 444.23,48.62 447.85,49.51 			"/>
			<path class="st11" d="M465.16,54.51l-7.33,4c0,0-2.79-6.59-11.15-8.87l2.32-3.41C449,46.23,458.67,44.8,465.16,54.51z"/>
			<path class="st4" d="M458.03,57.8l6.4-3.47c0,0-1.6-2.22-2.72-3.11l-5.3,4.12C456.41,55.35,457.74,57.15,458.03,57.8z"/>
			<path class="st5" d="M435.26,32.77l1.21,10.01c0,0,1.11-2.12,2.51-2.89c1.25-0.68,3.4-1.09,3.4-1.09L435.26,32.77z"/>
			<polygon class="st19" points="424.4,83.41 393.04,99.56 388.32,93.33 393.58,88.54 399,89.4 416,77.9 			"/>
			<polygon class="st6" points="410.74,82.08 413.64,82.26 399.01,91.92 391.1,91.49 393.76,89.07 399.11,89.93 			"/>
			<polygon class="st12" points="411.27,80.92 399,89.4 394.28,88.66 408.63,79.43 			"/>
			<polygon class="st20" points="442.5,78.34 442.19,91.96 429.6,97.12 420.21,93.09 415.41,95.05 408.44,106.61 400.84,102.62 
				395.99,103.79 393.04,99.56 424.4,83.41 429.75,86.77 			"/>
			<path class="st16" d="M395.51,100.36l28.89-14.55l5.68,3.19l10.73-6.85c0,0,1.79,10.01-10.89,12.96l-9.77-3.61l-6,2.55
				l-6.21,10.41l-7.17-3.61l-3.98,1.27L395.51,100.36z"/>
			<polygon class="st8" points="408.82,91.53 413.12,98.11 415.36,95.66 411.94,89.95 			"/>
			<polygon class="st8" points="418.11,94.33 415.06,88.25 418.16,86.61 421.34,93.31 			"/>
			<polygon class="st9" points="410.29,92.85 412.44,91.76 411.73,90.6 409.54,91.72 			"/>
			<polygon class="st9" points="415.71,88.45 417.93,87.29 418.6,88.72 416.42,89.8 			"/>
			<polygon class="st9" points="417.77,92.55 420.07,91.8 420.65,93 418.36,93.72 			"/>
			<polygon class="st9" points="414.75,95.59 413.91,94.22 412.72,96.58 413.19,97.29 			"/>
			<polygon class="st4" points="462.87,63.89 463.25,67.25 446.33,78.38 446.2,81.35 442.8,82.94 442.88,78.05 			"/>
			<polygon class="st1" points="442.36,87.82 474.32,76.93 474.86,96.63 442.11,93.46 			"/>
			<g>
				<g>
					<path class="st12" d="M442.46,83.58l30.67-14.03L456.5,86.19c0,0-7.03-3.49-14.04-0.61V83.58z"/>
					<path class="st9" d="M446.07,84.04l0.06-0.84l21.6-8.91l3.03-3.12l-27.95,12.82l-0.03,0.7
						C442.78,84.69,443.98,84.19,446.07,84.04z"/>
				</g>
				<path class="st19" d="M471.72,70.61l10.11-5.64l-24.47,27.99c0,0-5.69-6-15.08-5.14l0.06-2.53c0,0,6.54-2.44,14.16,0.89
					L471.72,70.61z"/>
				<path class="st6" d="M446.04,85.05l-0.02,1.16c0,0,7.16-0.14,10.86,3.08l16.53-17.42l-4.05,1.92L456.6,86.82
					C456.6,86.82,451.96,84.34,446.04,85.05z"/>
			</g>
			<path class="st1" d="M442.11,93.46c0,0-0.87,4.96-1.54,6.22c-0.82,1.54-4.42,4.99-4.42,4.99l31.61,21.11l2.07-29.33L442.11,93.46
				z"/>
			<polygon class="st1" points="436.16,104.66 408.94,122.61 466.73,139.55 465.15,127.04 			"/>
			<polygon class="st1" points="408.94,122.61 404.81,146.59 414.46,152.54 470.18,151.72 463.47,138.64 			"/>
			<path class="st13" d="M407,128.19l1.44-5.72l54.92,16.31l6.45,12.7L464,151.5c0,0-1.66-7.55-15.98-11.91
				C441.07,137.47,407,128.19,407,128.19z"/>
			<path class="st13" d="M429.09,109.33l8-4.99l27.7,19.56l1.49,12.48l-5.01-1.68c0,0,1.75-6.71-8.89-13.8
				C446.94,117.28,429.09,109.33,429.09,109.33z"/>
			<path class="st4" d="M468.13,113.48l-0.29,4.22l-7.32-2.22c0,0,0.79-6.1-1.84-9.19c-2.63-3.09-5.2-4.43-10.25-4.97
				c-5.05-0.54-10.1,0.2-10.1,0.2l1.89-3.44c0,0,6.15-0.66,12.33,0.6c0,0,2.84,0.38,4.34,1.15c1.51,0.77,3.96,2.71,4.76,3.91
				c0.8,1.2,2.59,5.65,2.45,8.55L468.13,113.48z"/>
			<path class="st17" d="M440.94,97.81l1.54-4.33l30.3,3.17l-1.83,17.17l-6.35-1.87c0,0-0.49-10.33-9.4-12.96
				C447.39,96.68,440.94,97.81,440.94,97.81z"/>
			<path class="st4" d="M408.33,129.06c0,0,19.84,5.49,24.7,6.68c5.52,1.36,18.66,5.1,22.74,7.61c4.08,2.5,6.49,4.31,7.76,7.98
				l-5.7,0.11c0,0-1.88-4.32-7.09-6.09s-43.46-10.27-43.46-10.27L408.33,129.06z"/>
			<path class="st4" d="M466.15,138.88l-0.27-2.15l-5.11-1.74c0,0,0.4-1.82-0.37-4.39c-0.69-2.27-3.9-6.49-7.97-9.15
				c-4.07-2.66-16.69-8.51-23.38-11.61l-3,2.14c0,0,21.34,9.31,25.68,12.52c4.33,3.21,6.67,6.06,5.82,11.84L466.15,138.88z"/>
			<path class="st5" d="M416.74,140.92l-2.14,11.13l21.69-0.41C436.29,151.63,437.11,143.51,416.74,140.92z"/>
			<polygon class="st5" points="422.21,130.64 424.55,127.78 437.63,131.66 436.53,135.03 441.16,137.08 416.06,130.14 			"/>
			<path class="st5" d="M425.19,126.85l10.12-9.98c0,0,6.8,5.19,2.65,13.72L425.19,126.85z"/>
			<polygon class="st5" points="437.91,112.79 442.06,108.52 447.7,112.45 446.57,117.21 			"/>
			<path class="st5" d="M442.85,107.85l4.89-6.02c0,0,3.03,2.27,0.21,9.66L442.85,107.85z"/>
			<polygon class="st7" points="472.23,97.09 470.29,96.89 465.06,111.55 470.51,113.17 			"/>
			<path class="st7" d="M461.83,134.36l4.01,1.33l-1.54-11.52l-2.85-1.96C461.45,122.2,462.39,133.1,461.83,134.36z"/>
			<polygon class="st7" points="464.37,151.02 469.01,150.98 462.98,139.2 459.88,138.3 			"/>
			<g>
				<path class="st12" d="M433.19,104.7c-9.85,0-14.26-10.31-14.31-10.43l1.99-0.67c0.21,0.46,6.9,11.32,17.98,7.54
					c0,0-2.3,3.26-3.34,3.42C434.72,104.68,433.92,104.7,433.19,104.7z"/>
			</g>
			<g>
				<path class="st12" d="M430.67,109.9c-8.89,0-16.61-11.78-17.03-12.35l1.37-1.39c0.11,0.14,11.07,14.44,19.15,9.81
					c8.5-4.88,8.77-18.06,8.78-18.19l3.3,0.12c-0.01,0.6-0.61,14.95-10.59,20.67C434.01,109.51,432.33,109.9,430.67,109.9z"/>
			</g>
			<circle cx="470.85" cy="84.15" r="1.62"/>
			<circle cx="511.67" cy="71.59" r="1.51"/>
			<circle cx="465.32" cy="69.01" r="0.99"/>
			<circle cx="359.87" cy="71.76" r="1.56"/>
			<circle cx="470.22" cy="91.29" r="0.99"/>
			<circle cx="519.36" cy="103.26" r="1.49"/>
			<circle cx="518.95" cy="88.23" r="1.54"/>
			<circle cx="409.15" cy="144.9" r="1.67"/>
			<circle cx="412.79" cy="147.62" r="0.99"/>
			<circle cx="416.66" cy="121.55" r="0.99"/>
			<circle cx="421.32" cy="123.1" r="0.99"/>
			<circle cx="458.94" cy="148.95" r="0.99"/>
		</g>
		<g>
			<path class="st17" d="M481.99,87.3c-6.4,0-11.01-2.01-11.3-2.14l0.81-1.83c0.09,0.04,8.33,3.61,16.5,1.13
				c3.54-1.08,5.28-3.55,7.12-6.17c2.82-4.01,6.01-8.56,16.11-7.73l-0.16,1.99c-8.94-0.74-11.55,2.97-14.31,6.89
				c-1.95,2.78-3.98,5.66-8.18,6.94C486.36,87.04,484.11,87.3,481.99,87.3z"/>
		</g>
		<g>
			<path class="st17" d="M373.19,84.77c-4.52,0-8.07-1.23-10.57-3.66c-3.99-3.89-3.76-8.86-3.75-9.1l2,0.1
				c0,0.05-0.18,4.33,3.16,7.57c2.45,2.38,6.21,3.39,11.16,3c2.85-0.22,5.79-0.89,8.63-1.53c7-1.58,14.22-2.89,18.18,2.45
				l-1.75,1.09c-3.18-4.29-9.37-3.08-15.98-1.59c-2.91,0.66-5.92,1.34-8.91,1.57C374.6,84.74,373.88,84.77,373.19,84.77z"/>
		</g>
		<circle class="st6" cx="510.61" cy="71.51" r="0.5"/>
		<circle class="st6" cx="471.51" cy="84.42" r="0.5"/>
		<circle class="st6" cx="359.88" cy="72.55" r="0.5"/>
		<path class="st7" d="M471.01,84.42c0,0-0.06,0.39,0.5,0.54l1.69,0.57c0,0,1.81,0.48,2.35,0.59s2.21,0.43,3.29,0.52
			c1.09,0.09,3.02,0.21,4.32,0.13s2.34-0.17,3.91-0.52c1.57-0.35,3.38-0.94,5-2.22c1.62-1.28,2.43-2.35,3.74-4.12
			c1.3-1.76,2.05-3.15,3.66-4.65c1.61-1.5,3.08-2.22,4.84-2.76c1.76-0.54,4.33-0.61,6.11-0.51c0,0,0.15,0.05,0.35-0.01
			c0.2-0.06,0.32-0.26,0.33-0.45c0,0-2.93-0.07-3.88,0s-2.37,0.22-3.64,0.67c-1.27,0.45-1.93,0.77-2.58,1.2s-1.57,1.21-2.11,1.75
			c-0.54,0.54-1.55,1.86-1.93,2.34s-1.77,2.49-1.77,2.49s-1.14,1.45-1.55,1.88c-0.41,0.42-0.99,1.18-1.91,1.84s-1.66,1.11-2.48,1.39
			c-0.82,0.29-2.02,0.69-2.9,0.84c-0.88,0.15-2.34,0.36-3.4,0.35s-1.98,0.07-3.1-0.04c-1.12-0.11-2.48-0.28-3.43-0.48
			s-2.5-0.51-3.32-0.78c-0.82-0.26-2.08-0.77-2.08-0.77L471.01,84.42z"/>
		<path class="st7" d="M359.88,72.05c0,0-0.34-0.03-0.5,0.38c-0.16,0.42,0.34,2.7,0.34,2.7s0.7,2.9,2.52,4.83
			c1.82,1.93,2.55,2.41,4.56,3.24c2.01,0.82,4.75,1.15,7.01,1.07c2.27-0.08,4.91-0.42,8.66-1.27c3.75-0.85,6.24-1.35,7.55-1.53
			c1.31-0.18,4.29-0.4,6,0.03c0,0,2.57,0.38,4.31,2.53l0.42-0.25c0,0-1.19-1.49-2.8-2.2c-1.62-0.71-3.18-0.77-4.18-0.77
			s-2.86,0-5.22,0.42s-6.35,1.3-6.35,1.3s-3.89,0.9-5.8,1.03c-1.91,0.13-2.49,0.33-4.5,0.16c-2.01-0.17-3.5-0.42-4.9-1
			s-2.05-0.94-3.05-1.84s-1.79-1.72-2.72-3.27c-0.93-1.55-1.03-2.8-1.16-3.37C359.95,73.69,359.91,72.7,359.88,72.05z"/>
		<g>
			<path class="st12" d="M417.15,175.36l-0.35-1.97c5.6-0.99,21.16-5.35,23.38-10.94l1.9,0.64
				C438.99,170.86,418.01,175.2,417.15,175.36z"/>
		</g>
		<circle class="st15" cx="417.4" cy="174.29" r="0.5"/>
		<path class="st9" d="M434.61,169.03l0.73-1.45c0,0,3.97-2.18,5.11-4.54l0.96,0.34c0,0-1.14,2.05-3.06,3.37
			S434.61,169.03,434.61,169.03z"/>
		<g>
			<path class="st21" d="M443.14,160.8l-1.92-0.55c0.09-0.33,0.13-0.89,0.17-1.49c0.1-1.61,0.22-3.61,1.61-4.81
				c0.81-0.7,2.2-1.26,3.57-1.16c1.17,0.08,3.9,1.12,3.9,3.14h-2c0,0.07,0.02,0.13,0.03,0.14c-0.21-0.35-0.9-1.33-2.23-1.4
				c-0.82-0.04-1.58,0.46-1.97,0.79c-0.75,0.65-0.85,2.18-0.92,3.42C443.33,159.59,443.29,160.26,443.14,160.8z"/>
		</g>
		<g>
			<path class="st17" d="M378.71,212.41c-4.19,0-7.97-1.19-11.27-3.57c-9.61-6.91-11.78-21.29-11.87-21.9l1.98-0.29
				c0.02,0.14,2.15,14.16,11.06,20.57c3.96,2.85,8.73,3.79,14.16,2.81c9.52-1.73,16.09-5.33,21.88-8.5
				c7.89-4.32,14.7-8.05,26.14-6.21l-0.32,1.97c-10.75-1.73-17.29,1.85-24.86,5.99c-5.93,3.25-12.64,6.93-22.48,8.71
				C381.61,212.27,380.14,212.41,378.71,212.41z"/>
		</g>
		<path d="M358.06,186.44c0,0.22-0.04,0.42-0.12,0.61c-0.12,0.29-0.79-0.28-1.46-0.26c-0.6,0.02-1.21,0.64-1.33,0.42
			c-0.13-0.23-0.2-0.49-0.2-0.77c0-0.86,0.7-1.56,1.56-1.56S358.06,185.58,358.06,186.44z"/>
		<circle class="st6" cx="356.64" cy="187.25" r="0.5"/>
		<circle class="st6" cx="430.18" cy="196.23" r="0.5"/>
		<circle cx="514.97" cy="184.9" r="1.54"/>
		<g>
			<path class="st17" d="M486.82,204.82c-0.77,0-1.55-0.03-2.35-0.08c-6.61-0.45-10.86-2.72-14.97-4.91
				c-5.17-2.76-10.78-5.46-20.88-3.8l1.18-2.06c10-1.59,15.41,1.3,20.64,4.09c3.92,2.09,7.98,4.26,14.16,4.68
				c21.05,1.44,29.05-17.25,29.38-18.05l1.85,0.77C515.74,185.66,507.56,204.82,486.82,204.82z"/>
		</g>
		<circle class="st6" cx="514.66" cy="185.6" r="0.5"/>
		<path class="st7" d="M356.52,186.75c0,0-0.33,0.03-0.39,0.47c0,0,0.25,1.42,0.38,1.95s0.62,2.45,0.95,3.48s1.2,3.65,2.21,5.62
			c1.03,2.03,2.13,4.44,4.54,6.99c1.74,1.84,2.99,3.19,6.41,4.88c3.42,1.7,8.2,2.41,14.16,1.02c5.99-1.39,9.72-2.79,13.81-4.79
			c4.26-2.08,9.84-5.26,12.84-6.7c3-1.44,7.79-3.19,11.91-3.28c4.12-0.09,5.37,0.13,6.55,0.29c0,0,0.27,0.09,0.47,0
			c0.29-0.12,0.3-0.37,0.31-0.42c0,0-1.88-0.2-2.49-0.25c-0.61-0.05-1.72-0.17-2.84-0.18c-1.12-0.01-2.65-0.03-4.52,0.27
			c-1.86,0.29-2.72,0.58-4.14,1.01c-1.42,0.43-3.22,1.17-3.87,1.43s-2.97,1.4-3.64,1.77c-0.66,0.38-3.12,1.64-3.39,1.8
			c-0.27,0.16-2.78,1.49-3.49,1.88c-0.71,0.39-4.42,2.17-5.3,2.6c-0.88,0.43-4.59,1.97-6.23,2.37c0,0-4.39,1.31-5.8,1.63
			c-1.4,0.32-4.27,0.81-6.6,0.73c-2.33-0.08-5.11-0.47-7.95-1.94c-2.4-1.24-3.74-2.42-3.74-2.42s-2.3-1.96-4.67-5.51
			c-1.07-1.6-2.28-4.28-2.88-5.78C358.29,193.53,357.16,190.34,356.52,186.75z"/>
		<path class="st7" d="M449.91,194.77l-0.35,0.61c0,0,4.45-0.52,6.48-0.31c2.02,0.2,5.02,0.5,8.17,1.73s6.97,3.39,6.97,3.39
			s4.22,2.18,6.61,2.84s4.62,1.25,7.82,1.28c3.2,0.04,5.19-0.13,7.32-0.56c2.13-0.42,5.7-1.58,7.79-2.76
			c2.58-1.45,5.69-3.56,8.92-7.1c3.08-3.37,5.11-7.23,5.5-8.08c0,0,0.13-0.47-0.26-0.66c0,0-1.96,3.99-4.05,6.61
			c-2.02,2.54-4.46,4.68-6.39,6.2c-1.93,1.51-4.77,3.36-9.88,4.82c-4.74,1.36-10.6,1.26-14.36,0.3s-8.11-2.84-10-3.96
			s-5.71-3.1-8.76-3.82c-3.05-0.72-6.74-0.89-8.79-0.7C450.62,194.79,449.91,194.77,449.91,194.77z"/>
		<circle class="st12" cx="365.85" cy="206.03" r="2.25"/>
		<circle class="st12" cx="399.31" cy="205.59" r="2.25"/>
		<circle class="st12" cx="468.92" cy="198.36" r="2.25"/>
		<circle class="st12" cx="492.55" cy="82.78" r="2.25"/>
		<circle class="st12" cx="376.55" cy="83.64" r="2.25"/>
		<circle class="st12" cx="400.73" cy="126.94" r="2.25"/>
		<circle class="st12" cx="399.33" cy="141.25" r="2.25"/>
		<circle class="st12" cx="409.59" cy="114.57" r="2.25"/>
		<circle class="st12" cx="498.49" cy="201.6" r="2.25"/>
		<path class="st4" d="M537.22,128.8v2.22c0,0-4.99,1.78-6.75,4.06c-1.76,2.28-3.87,2.96-6.23,12.15c0,0-1.25,8.33-1.9,25.08
			c-0.07,1.81-0.78,7.2-0.78,7.2s-1.23,5.35-6.19,9.08l-1.08,0.76l2.11-3.84c0,0,0.41-0.99-0.39-1.78c0,0,2.38-3.6,2.48-7.17
			c0.1-3.57,0.07-16.23,0.07-16.23s-0.46-12.04,2.97-19.06C524.97,134.27,529.62,130.25,537.22,128.8z"/>
		<path class="st4" d="M333.71,129.55v2.22c0,0,4.99,1.78,6.75,4.06c1.76,2.28,3.87,2.96,6.23,12.15c0,0,1.25,8.33,1.9,25.08
			c0.07,1.81,0.78,7.2,0.78,7.2s1.23,5.35,6.19,9.08l-0.48-2.19l-0.14-0.72c0,0,0.09-1.08,0.93-1.4c0,0-3.34-4.14-3.44-7.71
			c-0.1-3.57-0.07-16.23-0.07-16.23s0.46-12.04-2.97-19.06S341.31,131.01,333.71,129.55z"/>
		<circle cx="352.01" cy="103.86" r="0.99"/>
		<circle cx="352.57" cy="89.46" r="0.99"/>
		<polygon class="st13" points="357.86,106.9 330.8,131.82 330.6,134.66 352.71,127.98 		"/>
		<polygon class="st7" points="331.6,133.88 352.23,117.33 349.48,128.42 		"/>
		<polygon class="st13" points="357.44,152.79 330.46,128.43 330.26,125.59 352.37,132.27 		"/>
		<polygon class="st7" points="331.21,126.44 351.85,142.85 349.1,131.84 		"/>
		<g>
			<g>
				<path class="st17" d="M518.23,102.94c-1.93-6.8-0.37-14.36-0.31-14.68l1.96,0.41c-0.02,0.07-1.52,7.41,0.27,13.73L518.23,102.94
					z"/>
			</g>
			<circle class="st6" cx="518.8" cy="88.98" r="0.5"/>
			<circle class="st6" cx="519.06" cy="102.2" r="0.5"/>
		</g>
		<circle class="st22" cx="378.45" cy="122.13" r="3.37"/>
		<circle class="st23" cx="378.45" cy="153.01" r="3.37"/>
		<g>
			<circle cx="351.67" cy="104.24" r="1.49"/>
			<circle cx="352.08" cy="89.22" r="1.54"/>
			<g>
				<g>
					<path class="st17" d="M352.8,103.93c1.93-6.8,0.37-14.36,0.31-14.68l-1.96,0.41c0.02,0.07,1.52,7.41-0.27,13.73L352.8,103.93z"
						/>
				</g>
				<circle class="st6" cx="352.23" cy="89.97" r="0.5"/>
				<circle class="st6" cx="351.97" cy="103.19" r="0.5"/>
			</g>
		</g>
		<polygon class="st24" points="496.24,127.7 492.24,127.7 490.24,131.05 492.24,134.41 496.24,134.41 498.24,131.05 		"/>
		<polygon class="st17" points="496.26,140.6 492.21,140.6 490.19,143.95 492.21,147.31 496.26,147.31 498.28,143.95 		"/>
		<circle cx="494.31" cy="131.16" r="1.53"/>
		<circle cx="494.28" cy="143.99" r="1.53"/>
		<g>
			<path class="st4" d="M409.92,235.38h3.17c0.5,0,0.89,0.1,1.17,0.32c0.28,0.21,0.46,0.51,0.56,0.89c0.1,0.38,0.14,0.87,0.14,1.46
				c0,0.54-0.08,0.96-0.23,1.26c-0.15,0.3-0.42,0.51-0.79,0.63c0.31,0.06,0.54,0.2,0.68,0.43c0.14,0.23,0.21,0.54,0.21,0.93
				l-0.02,3.61h-2.02v-3.73c0-0.27-0.06-0.44-0.17-0.51c-0.11-0.07-0.32-0.11-0.61-0.11v4.35h-2.09V235.38z M412.51,238.91
				c0.29,0,0.43-0.29,0.43-0.86c0-0.25-0.01-0.44-0.04-0.57s-0.07-0.21-0.13-0.26c-0.06-0.05-0.16-0.07-0.28-0.07h-0.48v1.76H412.51
				z"/>
			<path class="st4" d="M416.75,244.91v-9.53h1.99v9.53H416.75z"/>
			<path class="st4" d="M420.77,244.91v-9.53h3.14l0.86,5.81l0.86-5.81h3.17v9.53h-1.88v-6.87l-1.19,6.87h-1.85l-1.26-6.87v6.87
				H420.77z"/>
			<path class="st4" d="M431.45,244.66c-0.26-0.23-0.43-0.53-0.52-0.9c-0.08-0.37-0.13-0.85-0.13-1.44l0.02-3.66
				c0-0.58,0.16-1.05,0.47-1.41c0.32-0.37,0.76-0.55,1.34-0.55c0.57,0,0.99,0.17,1.27,0.52v-1.9h2.1v9.59h-2.1v-0.86
				c-0.12,0.32-0.28,0.56-0.49,0.72c-0.2,0.16-0.48,0.24-0.82,0.24C432.1,245,431.71,244.89,431.45,244.66z M433.82,243.2
				c0.06-0.19,0.1-0.44,0.1-0.76v-0.34v-3.05c0-0.24-0.04-0.44-0.11-0.6c-0.07-0.16-0.2-0.24-0.38-0.24c-0.21,0-0.35,0.08-0.41,0.23
				s-0.1,0.36-0.1,0.62v3.42c0,0.68,0.17,1.02,0.5,1.02C433.62,243.48,433.76,243.39,433.82,243.2z"/>
			<path class="st4" d="M438.58,244.31c-0.39-0.46-0.59-1.14-0.59-2.05V239c0-0.75,0.23-1.32,0.7-1.71s1.11-0.59,1.94-0.59
				c1.69,0,2.53,0.77,2.53,2.3v0.59c0,0.59-0.01,1.07-0.02,1.44h-3.05v1.58c0,0.28,0.03,0.5,0.1,0.66c0.06,0.16,0.2,0.24,0.41,0.24
				c0.16,0,0.27-0.04,0.34-0.13s0.11-0.19,0.12-0.31c0.01-0.11,0.02-0.28,0.02-0.5v-0.79h2.09v0.47c0,0.95-0.2,1.64-0.59,2.09
				s-1.08,0.67-2.05,0.67C439.62,245,438.97,244.77,438.58,244.31z M441.07,240.07v-1.04c0-0.58-0.16-0.88-0.47-0.88
				c-0.35,0-0.53,0.29-0.53,0.88v1.04H441.07z"/>
			<path class="st4" d="M446.23,244.91l-1.4-8.12h2.1l0.43,4.11l0.07,1.32l0.08-1.33l0.48-4.09h2.1l-1.43,8.12H446.23z"/>
			<path class="st4" d="M451.75,244.91v-1.62h2.1v1.62H451.75z"/>
			<path class="st4" d="M455.78,236.25v-1.35h2.1v1.35H455.78z M455.78,244.91v-8.12h2.1v8.12H455.78z"/>
			<path class="st4" d="M459.84,242.48v-3.26c0-0.77,0.23-1.38,0.7-1.84c0.47-0.46,1.11-0.68,1.93-0.68s1.46,0.23,1.93,0.68
				c0.47,0.45,0.7,1.07,0.7,1.84v3.26c0,1.68-0.88,2.52-2.63,2.52S459.84,244.16,459.84,242.48z M462.84,243.34
				c0.08-0.11,0.12-0.26,0.12-0.46v-3.97c0-0.47-0.16-0.71-0.49-0.71c-0.33,0-0.49,0.24-0.49,0.71v3.97c0,0.19,0.04,0.34,0.12,0.46
				s0.2,0.17,0.37,0.17S462.76,243.45,462.84,243.34z"/>
		</g>
		<g>
			<path class="st17" d="M374.3,121.81c-11.17-3.66-17.07-13.87-17.18-14.26l0.16-4.02c0.02,0.08,4.85,11.53,17.71,16.4
				L374.3,121.81z"/>
		</g>
		<g>
			<path class="st17" d="M406.54,146.18c-7.62,0-15.53-5.12-18.69-13.49c-3.42-9.08-11.78-10.49-11.86-10.5l0.43-1.95
				c0.35,0.08,9.45,1.93,13.28,11.7c3.3,8.43,10.99,13.38,18.49,12.06l0.35,1.97C407.67,146.12,407.42,146.18,406.54,146.18z"/>
		</g>
		<circle class="st6" cx="407.92" cy="145.06" r="0.53"/>
		<ellipse class="st6" cx="376.79" cy="121.35" rx="0.48" ry="0.52"/>
		<path class="st4" d="M474.63,176.74c0,0,0.24,0.48-0.15,1.02c-0.39,0.54-1.96,2.44-10.28,4.01c-8.32,1.57-19.24,2.23-30.15,2.23
			c-10.92,0-24.25-1.24-32.29-3.67c0,0-4.25-1.36-4.77-2.96c0,0-0.13-0.12,0.57-2c0,0,1.52,1.7,4.68,2.69s14.24,4.09,32.31,3.76
			c18.07-0.33,20.7-0.66,27.3-1.71c6.59-1.05,12.4-4.35,12.4-4.35L474.63,176.74z"/>
		<circle cx="517.66" cy="164.44" r="1.58"/>
		<g>
			<path class="st13" d="M508.58,167.35c-2.28,0-4.69-0.31-7.05-0.93c-6.25-1.66-11.19-5.21-13.9-10.01
				c-5.63-9.96-21.66-13.41-21.82-13.44l-1.14-2.41c0.68,0.14,18.2,3.42,24.7,14.87c2.45,4.32,6.95,7.54,12.67,9.06
				c5.3,1.4,11.1,1.34,15.1-0.99l0.43,1.84C515.36,166.66,511.97,167.35,508.58,167.35z"/>
		</g>
		<circle class="st6" cx="516.92" cy="164.66" r="0.41"/>
		<polygon class="st7" points="350.12,128.23 338.99,125.06 336.78,127.06 345.47,129.64 		"/>
		<polygon class="st6" points="352.38,134.6 331.02,127.26 330.78,126.12 351.94,132.65 		"/>
		<path class="st4" d="M356.18,152.31l0.2,3.12l-9.68-7.5c0,0-0.95-4.3-1.59-5.64L356.18,152.31z"/>
		<polygon class="st5" points="330.92,128.19 330.78,126.12 351.94,132.65 352.53,135.39 351.23,135 350.9,133.2 331.58,126.83 
			331.69,128.82 		"/>
		<g>
			<polygon class="st13" points="513.24,106.98 539.61,130.86 539.8,133.7 517.7,127.02 			"/>
			<polygon class="st7" points="538.8,132.92 518.17,116.36 520.92,127.45 			"/>
			<polygon class="st13" points="513.58,151.35 539.94,127.46 540.14,124.62 518.03,131.3 			"/>
			<polygon class="st7" points="539.19,125.43 518.55,141.89 521.3,130.84 			"/>
			<polygon class="st7" points="520.29,127.28 531.43,124.12 533.64,126.11 524.95,128.69 			"/>
			<polygon class="st6" points="518,133.7 539.4,126.31 539.64,125.17 518.46,131.73 			"/>
			<polygon class="st5" points="539.46,127.27 539.64,125.17 518.43,131.71 517.85,134.48 519.15,134.09 519.48,132.29 
				538.8,125.92 538.68,127.91 			"/>
		</g>
		<path class="st4" d="M514.87,105.16l0.16,2.85l11.22,10.1c0,0-1.42-3.75-1.48-4.3L514.87,105.16z"/>
		<path class="st4" d="M356.56,104.84l-0.11,2.85l-11.21,10.23c0,0,1.37-4.07,1.42-4.62L356.56,104.84z"/>
	</g>
	<g>
		<path class="st17" d="M501.32,123.67c-2.33,0-4.05-1.97-4.78-2.98c-0.23-0.32,0.11-0.48,0.08-0.52l1.26-1.06
			c0.02,0.03,1.93,3.26,4.26,2.41c0.95-0.35,3.36-3.87,4.64-6.61c2.33-4.98,2.62-12.42,7.47-12.98l0.02,2.24
			c-3.35,0.1-3.66,7.26-5.68,11.59c-2.06,4.4-4.13,7.04-5.77,7.64C502.31,123.59,501.81,123.67,501.32,123.67z"/>
	</g>
	<circle cx="465.02" cy="119.75" r="1.51"/>
	<polygon class="st12" points="496.58,115.28 492.53,115.28 490.51,118.63 492.53,121.99 496.58,121.99 498.6,118.63 	"/>
	<circle cx="494.51" cy="118.68" r="1.91"/>
	<g>
		<path class="st17" d="M477.07,127.28c-6.85,0-12.26-6.23-12.5-6.51l1.52-1.3c0.06,0.06,5.58,6.4,11.91,5.77
			c5.27-0.54,7.77-2.62,9.98-4.46c1.63-1.36,3.18-2.64,5.48-3.02l0.33,1.97c-1.77,0.29-2.99,1.3-4.53,2.59
			c-2.31,1.92-5.18,4.31-11.05,4.91C477.82,127.26,477.44,127.28,477.07,127.28z"/>
	</g>
	<circle class="st6" cx="493.16" cy="118.84" r="0.5"/>
	<circle class="st6" cx="465.72" cy="120.55" r="0.52"/>
</g>
<path class="st22" d="M375.19,122.89c-0.41-1.82,0.73-3.62,2.55-4.03"/>
</svg>
